<mxfile host="app.diagrams.net" modified="2024-05-15T01:07:33.848Z" agent="Mozilla/5.0 (Windows NT 10.0; Win64; x64) AppleWebKit/537.36 (KHTML, like Gecko) Chrome/124.0.0.0 Safari/537.36" etag="AOfgQKmXBeQt7kW6nxbm" version="24.4.0" type="device" pages="2">
  <diagram name="Trang-1" id="uiY65PO6rOApC8IdcI1V">
    <mxGraphModel dx="1290" dy="530" grid="0" gridSize="10" guides="1" tooltips="1" connect="1" arrows="1" fold="1" page="1" pageScale="1" pageWidth="3300" pageHeight="4681" math="0" shadow="0">
      <root>
        <mxCell id="0" />
        <mxCell id="1" parent="0" />
        <mxCell id="AzmfuMKhb9_MXkvoqs_1-1" value="" style="rounded=1;whiteSpace=wrap;html=1;" parent="1" vertex="1">
          <mxGeometry x="150" y="800" width="120" height="290" as="geometry" />
        </mxCell>
        <mxCell id="AzmfuMKhb9_MXkvoqs_1-2" value="Data source" style="rounded=0;whiteSpace=wrap;html=1;fillColor=#FFA41C;" parent="1" vertex="1">
          <mxGeometry x="170" y="810" width="80" height="20" as="geometry" />
        </mxCell>
        <mxCell id="AzmfuMKhb9_MXkvoqs_1-4" value="" style="shape=image;verticalLabelPosition=bottom;labelBackgroundColor=default;verticalAlign=top;aspect=fixed;imageAspect=0;image=data:image/png,iVBORw0KGgoAAAANSUhEUgAAAUIAAACdCAMAAAD2bIHgAAAAz1BMVEUaN2wYM2QaOG0aN20YM2MYMmMYM2UaN2saNmoYNGYZNGcZNmkaNmsZNmoZNGYZNWgYNGUZNWcZNWnBJy3////FJyoANmuLLk6nKj/EJysmNGisKjoLJ2GbLETLztYzPWxtMFY0NGa0tsLf4ue5KTPy8/RNM2NnZ4UAHF6GMFRVM1/JJiXc3eJ7L04/M2GjKz5HS3UAAFO0KjWvKjnPJB8zRHAhJmJnMVhbMVw/Kl12MFRtMVk6M2WHLk8lMGSjprSAhp0AE1+bLEORLkqQlagBVgmNAAAFjElEQVR4nO3ZC3uaVgDGcbbupgQNWo4BY6MtdYtM0mhaHDHtpvv+n2mgngMqHtrnPc2S9v09eVINF3P+4V7rRwJZ//cv8PwxIYwJYUwIY0IYE8KYEMaEMOsFgZgQxoQwJoQxIYwJYUwIY0IYE8IsIiIiIiIiIiIiIjLmVwIxIYwJYUwIY0IYE8KYEGadEYgJYUwIY0IYE8KYEGb9RiAmhDEhjAlhTAhjQhgTwiyHQEwIY0IYE8KYEMaEMMsmEBPCmBDGhDAmhH3TCTs12kY+xWRCoXM8e0c31dGuLNPRf1zGObus0zExbKvuL/W5sjGPh9e9Sg/T+2U26ANikg630qTpHExbrKtXpVYZi7FcvFry8erTa72//6ndUD+DqYQiuA6jyDsl8vrJQUQx6cr5o2h9mHCqWVm+RHchenfaOcK/3r95qff69gkldMY3d15Xx4vWQbmhiPvFAr6XHvSd6tfWDbOEkW4Gf/a8EjrLm5oh55l6Z6UlXqz8cuAw3mv4/SUU69Jw/H3Fz7tJkUlM7/ZG7PWXe9voVLsfe95T2pHbBohRV240vtcN96lJXe+mqZZI1AJy4ipwSmtMVgOd1WAs0v6FzmB59fqV3r+3roHRm0m4KIKsk8m+odrH/dlI7BYYz3fpvJkK/CA6xSqbQY22E4z0Op2rOp3q8XwZMwmv1X48PL4+C9bZKXcj2/u2849k1uwYuN699KPd1K2gqRW4badmB7M79pX2r3DlNkyM3kxCeWT3+iPneOrofnepdj+y8x/YYq0KJkKdibz5WDUUw3lf62Ii0rluP+6vlu9fvdH7dGsbGL3hhBfBccJ26SZk+z6N5G6fimynnsmG2SlFLvJYpxMDozedsGIrPJp7EcoDYa/p5O/lGcdbi93ij3ZRY2D0j5HQ3tsKi2tq7ybYbHUi9WTTVJ5vioR+lc1WGOlm8b6lhHYrllp223GLY5/cbzs9X+7Z8oSjEvphpdmklLByjn454dsqL5/SsfBBHtzCScUjk7Q07lLubF65/GigDofxdsNUCe/SeFwlUCvyw6Ryjssi4dvfK727NDF6Mwnv1TbTT+KDy7N42pWH+OwuTiTyfiUsX/+MSjt3vh2XEibVj7Ls4m8xW1bOUU74R6VLE1fWhhLG6j7O6x5easyKaRdBcU0d9Zz4WorFWJ1SHvLNsJTwXpz4ULUjh73rCunHUsIPlU/6jBRsW64JYlWcHf2Dq4vSTfK0vLVlG6R6oLUQYihv9bxEZCssJzzxmcWxsPai5u2HhpFxVjKUcDKrfVKzOQGv7+Qx79wWC1V3IVw7laHzd6WEw/qEVfYuap5BQvd8GGoHlN+/9cfZ1YscX55pL6HbWqvTenbI/P4SuiKee5FXeQ23uUqL/MEov4bePQDb7KyJmj9PKMQs2r6LBs3s7mQ3py7hyY/LP/GZ7chuXmA8HVycuKG9GaTZWXO02p1q5pssYnIjTTbv49X28VU/m67ukcPFqYT798hHT74G+T3ynxtvXl1+1YRNN/9yd/+qr4ofZN+rX26/C3F+6rlTkE1suq3iOdRmBa2RfGbS2qzMLh5fucFy92rZalT+Pk235mFX0Gi8UzrFOtyD1ZRfnpx24mebb5b+mdKXOf3gqbE/vX0w/9HyzfbhvMcaNQ+7ms3ifztNjvKQ0YRPjtzXvuqHfNsJHwUTwpgQxoQwJoRZLQIxIYwJYUwIY0IYE8KsBoGYEMaEMCaEMSGMCWFMCLPOCcSEMCaEMSGMCWHWLwRiQhgTwpgQxoQwJoQxIYwJYdYPBGJCGBPCmBDGhDAmhDEhjAlhTAhjQhgTwpgQxoQwJoQxIYwJYdZPBGJCGBPCmBDGhDAmhDEhjAlhTAizfiYQE8KYEMaEMCaEMSGMCWFMCGNC2H/dtVl1hNm6IAAAAABJRU5ErkJggg==;" parent="1" vertex="1">
          <mxGeometry x="168.98" y="880" width="82.04" height="40" as="geometry" />
        </mxCell>
        <mxCell id="AzmfuMKhb9_MXkvoqs_1-9" value="" style="shape=image;verticalLabelPosition=bottom;labelBackgroundColor=default;verticalAlign=top;aspect=fixed;imageAspect=0;image=data:image/png,iVBORw0KGgoAAAANSUhEUgAAA1kAAANgCAYAAADedKJWAAAAAXNSR0IArs4c6QAAAARnQU1BAACxjwv8YQUAAAAJcEhZcwAAEnQAABJ0Ad5mH3gAAP+lSURBVHhe7J0HnGRXcfWrc5jpnryzM5uzco5kBEIChAIIGWxjQGQwJplgfziBwZmchEQymCSyAElEgXJGWSvtavNOzjOdw3dPvTer1WrydHjd7/zt/vX07WG12/3evffcqjrlKRQKV3s8nkvFaRSLkk8kZPL++2Twmp/I+O23SWrPHimkU/YvEEIIIYQQQuoFTyAgoa5uiZ1yqrSd/xJpeuazxd/cbL9bOxSLxXsdKbIK2awktj8ivf/3TRm94feSGRyQYjqtwosQQgghhBBSv3iN2PK3t0v81DNkxSv/TJqe8UzxhsP2u87HkSIrawRV77e/JT3f+KpkBwYorAghhBBCCHEjHo8EWtqk4+JLpOuNb5bwmrX2G87GMSKrmM9LdmhIRm/4nRz86pUy9fBDFFeEEEIIIYQQJdTdLd1vfKu0XfAyCbR3aLTLqVRdZBULBcmPj8vkA/fJwE9+JMPXXye5sVH7XUIIIYQQQgix8EajEj/9DFn556+RmHkOtLWLx+u133UOVRVZxWxWknt2y9AvrpHBn/1Ekjt3aESLEEIIIYQQQmbC4/NJcGWXtJ53vrRfeIk0Hnuc4+q1qiaycmNjMvK73xpx9WMZv+N2yY2P2e8QQgghhBBCyBx4POJraJDG40+UjotfroILUS2nUHGRVcznJLV7t/R9/zsyeM3PJL1vr/0OIYQQQgghhCwcj9+KarU87wWy4pWvktgpp9jvVJeKiiz0vBq/7Rbp+fpXZfyuOyQ/MWG/QwghhBBCCCFLA+mC0W1HycpX/6V0vPIy8QZD9jvVoTIiq1hU58DBX/xMer56laR271LDC0IIIYQQQggpCV6vBNs7pO3Ci2X1W98uwc6V9huVp+wiq5jLSWrPbun77rfN4/8kN0rnQEIIIYQQQkh5QK1W83OfL6vf/k5pOO54NcqoNGUVWYV0Sib+9Cfp+cqXZfg3v5ZiNmO/QwghhBBCCCHlwRsMSuMJJ0n3m98izc9+rvgaY/Y7laE8IqtY1F5XI7//nQqsifv+ZL9BCCGEEEIIIeUHEazwho3S9ZrXSttLL5BgZ5f9TvkpuchCrVWmr1cGf/pj6f3mNyS1d4/9DiGEEEIIIS7A47Ea5JpnfYmfD2+Ya36eqYGux+t76u8thmJRpJDH5l5/LhbwXDBjBfOUF8mbZ7znNsx3EOhYIR0XXiRdr71cwus32G+Ul5KKLDQStuqv/k8Gf/JjSff2WF84IYQQQgghtY7Pd0gwHXqeHoOwws8eWyTZY8DjNc/T42D6f38EZj++PJEFcWU/q7jSnyGy7Ndmry75nD4XcuY5m1X/BDfgb2qS1nPPk5WveZ3ETjnVHi0fJRNZ+JISOx6T3m/+rwz+/GeSGx2xvmBCCCGEEEJqAYgfv98SS+YZr72BgBFEPktgqQiCcDKCCj/rA0/Twsp6z7HYAqyoES5Eu/BsBJfZxxfSaSlmMtajTvfwvsZGaXrGM6X78jdJ/Myzre+4TJREZEEBJx7bLgeu+LwM/vIXUjRfkn6JhBBCCCGEOAkjjCwRFRBvMCBiNtroqaTiClEkCCf796ynp76uSw6JL/NAlMvs5QuppBSSybqLdHnDEWk86WRZ9bZ3SMtzn2euhfIIrWWLLCjg1K4nZP9nPin9P/qBPUoIIYQQQkiVmBZEiESFwyqgvKGQOs5BXM2UqkdmwIguCK58ImEeU5q5poKsxvEEAhI76RRZ+7cfsCJaRnSXmmWJLCjd5I7H5cAXPyf9P7zaHiWEEEIIIaTMGCGlUSY7+qTRqYARUaGgiikvxFQZ08Fcx2GCC1GuYi5rtEChZkWXx1wjsVNOM0Lr/RI/9YySXytLFllQslOPPiwHv/wlGfjJj+xRQgghhBBCSoyKKCOmvEZI4aGCyq8RCQgrrZsqQzSCzEwhn9fyoEISgiulKYVa31VjgkuF1smnytr3GaF1xlklvYaWJLIKmYxMPfSA9sAa/MXPXeNKQgghhBBCKoDXdu1DnZTPPPx2lAppf9OCajolkFQPRLdgmmGEVh71W5m0pQtqSGzhuoqdeJKsftd7pPlZzylZRGvRIqtgPrzJB43A+upVMvzr66WQSNjvEEIIIYQQsgQQqdKoVMASUSqoELGCwLINKYhzMaIK4gqBmMMFV62AiFajEVqr3vbX0vL8czTVdLksSmRZEawHjcC6UoZ/db0WwBFCCCGEELIoIKognmBGMW1IYacBahSLoqpmQdogbODhTJibnJRiNmO/42xgkBI78WTpfvNbpOWcF5rrc3lCCyJrQVcxPrBMT4/2wBr+za8osAghhBBCyMIxwskbjYq/tVWCK7skZB7BtnYJxOLii0RVbDFqVfvg+4NgQfPf4IoVEmhu0e/V6SACN/Hg/dJ39fc0qFQK5o9kFYuS6euT3m9+Q/Zf8QUpplP2G4QQQgghhMyAHa3yGWHlizboxpt1VC7ErtvKT0xIfnJC3cmdjK+hQZqf/wJZ8+73SsO2o+3RxbOgSFZ+clJG/vA76f3OtyiwCCGEEELI00AEA6LKawSVv7VNQqtWS3j1Ggm0tYs3EqHAcivme0c6aKC1RYIrOo2IabSjlc68HvJTUzJ+2y0y+OMfSaa3V0XiUplTZCGfcuQPv5c9//Fvkh3ot0cJIYQQQoirgaiCUQVSw+JxCXR0SLCrW0IrV0qguVk31hRW5BAer4ptXCd+CG80iXZoamh2cFD6f/A96f/h9yU3NmaPLp5Z/3VoODZ+x22y/3OfpsAihBBCCHE7MKcw4snb0CD+pmaNUgU7jahq79AIBZwBCZkLCCt/Y6OKLZ+5huAk6UQxnunvl77vfcdyU89l7dHFMaPIgg1jYvuj0vONr0rikYftUUIIIYQQ4ioQsQqFxRdvkkBrqyWsYFjR0qL1VmwCTBYNUgiNINcIaFub1kE57joqFiW9b6/0fvNrMnbjH+3BxfF0kYU/9OAB6b/6uzJ2801WB2dCCCGEEOIOzCYYESsVVu1GVJkHRBU2xb5IpCbc4ojzgbDC9eRvadXIKNJPnQSCTlMPPywHv3qVTC0h6PQ0kZUdGZGh66+V4V9dp83ECCGEEEJIvQM3QCu6AIMCTQOEsEIaIOzVGbEi5eCwqFawvUNTUZ0Eyqcm7rlbev/3a5IdHrZHF8ZTRFY+kZCJu+6QwZ/+WNI9Pcty1CCEEEIIIQ7H5xdfY6MRVZ0SWrVK0wGRvoWNrwormleQSuC1jDE0FbW1VdCc2inAen7kht9L/w++K4VFNFc+JLIQEkvt2iUDP/6RTN73JwosQgghhJB6A6LJiCe4u0FQhbq7bWttuy6GoopUEe2thjTVjg7xhELOuB4LBcn098nw9dfJ2M03L7iUyhJZRlDlRkdl9MYb9EEIIYQQQuoFjxFQfvGGwuJvarLSAbu69Wc6AhKnAQdCmKogqqXmKg4QWsVMRqYefUQGf3mNpPfsWVAwSkVWIZWSiXvvlv4fXr0sP3hCCCGEEOIQ4AwYDIkvFtMUrOCKFRJoabXMKxixIk7GXJ+oBfTDxdJcv06oCcxPTMjYjX+Q4d/+SnKTE/bo7KjIyvT1Sv8Pvi8Jo9AIIYQQQkjtgpQrb2OjurbBHVBtsrFRRdSK4orUChBagaA6DyLqWnX3wWLRaKY+GfzlL2Tq/vu01GouvOmDB2XwF9fI6A2/s4cIIYQQQkhNAeMAnPw3N2tz4EBrmwRguR4Oa/oVITWJEVoQV75YXALNLVbz4ipSzGYl8chD0v+jH0h2eMgenRnv2G23Su+3/ledBQkhhBBCSA3h86lpBUwsAh0rjMiymgR70cuKUStSJyBdEPbuiMrChbCa5CcnZfzWm2Xkd7+xR2bG91rJXzb18EPH2K8JIYQQQojDwabTj9P9VtSsxMWHXlZGWLHWitQruLZxeACzlmI+r1GlapEzQis3OiJNz3iWpjLOQK/vrwqZy4rpNEUWIYQQQoiTQepUEDUqsLheIf7GRm0grOmAFFfEDeAegFOmEVsqtHJVElrFouTHJ6SYSkrzc58/0+FGrxchL0IIIYQQ4kTsTWU4onVWoZVdWpvidYDbGiFVAUIrHNb6Q00drNIBQ25iXEb+8HsZRdrgDL2zvMVi3v6REEIIIYQ4AmwkUfDfaNWhBDs7LYc11FoR4nI0dRBCq6lF+79VS2hlentl4Kc/lnR/nz3yJLSbIYQQQghxChBXcAmMN1lmFu0dRmg1OqJPECFOQoVWxAitFiO0jOCqBvlUUiYfuF9Gb/i9pi8eDkUWIYQQQki18Xg1JVB7WxlxpU1Yo1HarxMyBxBaaFMQaGqujtAqFLR31tgtN0l63z570IJ3bj1hJuJAa7tEt2yzBwghhBDiaOy0p0Cb1TjYz95WhCwOjWhFtEarGn208okpmfjTPTLyx99LIZ22Rymy6gczGUe3HiWb/u0/ZeNHPy6NJ51sv0EIIYQQx4GNYTQqwRUrzKNT/I0x8QaDFFeELAU9rIA5DBoWB+zBClEoSLavX8ZuvkmSO3fYgyK+y+PRyzzioYV7LQOBtWWrrP3bD0jLC8+V8KrVEtm8VRLbH5VMX6/9S4QQQgipOvape6C1VRsHe9HfCsLKjBNClg5SB1G7iOciIkrFov1O+UHPLvw3o1u3msc285fx9lJk1ThQ6w1HHS2r3/ZOaT33RdZkbS6wYHuHhNeuk9TePZId6J/RWpIQQgghFcIIKazRqLUKoFA/FNbNICGkdKjQ8vqM6jFb30zGHq0MRSPqEJ1uOPoYOIFSZNUyaEgY3Xa0dL/hjdL24peILxK13zHv+f1WCkJnp2QO7JcMhRYhhBBSeXw+y9CiKa79rXyRiNkIMiWQkLKgIstr9sFGaGmz4pz9RvkpGlFXSKXN3vwoCa9ZS5FVq0BEweCi+3IjsF76MvE1NNjvPAlyu7VpYVu7ZA4elEw/hRYhhBBSEcwmT8UVrNibm/QglPVWhFQARIghtLweKWSyKrYqRj6ne/KG40+gyKpFMElHNm6S1W97h7S95IIZBdY0KrS6u8Xf1ibpA/sk29tjv0MIIYSQkmPWaESr/LEmyykQkSv2uCKkohyqzzI/I8JUqfqsQtYSdZGNmymyag4zeUc3b5U1732/tJ13vvbQmA8VWqtWS6izS5K7d9MMgxBCCCk1ZlOHOis/olaxaXHlt07VCSEVR9MGjdBCk2AVWpXAiLliNie5sVGKrJoCAmvrUbL2/R+U1heeu6ima95AQEKr10hkw0ZJ7thBoUUIIYSUCKTwo94KjoEQWl7zmuKKkOqjKbpGaGn/qgqlDeK/ld6/lyKrZoDA2rJN1v7tB6XlnBdodGqxYBFA6mBkyxZJbN9OoUUIIYQsA6yrSAlE7TMyS6btowkhDgERZq+5L80jn0zYg2UG0axcjiKrFsCk3bDtKFnz1++yIlihkP3O4sGfpfbu6zdIctcTku3vq1ieKiGEEFIXmA2bL9pg9bqKxXRtZeSKEIdi7k29Rwv5Stq6U2Q5HU8gKNGjjpbuN75F2s5/iTYwXC5P2rt3SfrAfskODNB1kBBCCJkPr2VqoamBzc3aSoXiihDnoxFmr8+IrIqlDVJkORmPP6Bdo7te/0Zpn8WmfalojdbKlRJsh737AfbRIoQQQmbDiCttJByPazNhrYmmuCKkdkA0Cw/zYzGVssbKC0WWU0FYM7Jpk6x689tKLrCmUdfBrm7xt7ZbES2mDhJCCCFPgk0ZxFXMiKumJrMWN1qF9ISQmkOjWeb/Czk0Kc7ao2WDIsuRwORi0xZZ8673aIpgOQTWNCq0Vq+SYEenpGjvTgghhChqatHYaMRVs67DyAAhhNQwKrK8mrlVgd5ZFFmO45CL4Aek9dwXlaQGaz68gaCEV6+R8Jq1kty5k0KLEEKIezGbMDgF+ptbxBeLqbhi9IqQ+sCKZnmkkM3AAdAeLQsUWY7iMIHVcs4LtddGpVB799WrJLqZ9u6EEELcCdbCQGuLCixkeqi4wqaMEFIf2CJL8gUpGqFVxmhWL49mHAL8+yGw1rzr3dLy/Bcsy6Z9qSCiFTvlNFn3of8njSecxIWFEEKIO/D5NGqldcrxJlqyE1LH4PAEmWIwmCsnjGQ5AE8gINFtR8mqN79V2s4rjU37UtFTvI4OCXWvkvS+fZKl6yAhhJB6BZutUEgCLS1ae4U1kBBS59jRrGI+X87aLKYLVpsnbdrfIO0XXFhWk4uFgvzzYOdKCbR3SPrgAfbRIoQQUl+YDRYOONU1sKVVe19prQYhxBUcqs2CnXuhLH2zKLKqiccPm/bN0v3GN0v7yy5yhMCaRl0Hu7sl0NpmNyxmRIsQQkjtg1RAf7RB/M3N4mtsFC+jV4S4Dxy0mAfML7Q2q/RQZFUNr1ciGzbJmr/+G2l7yQWOEljTqNBatVoC7e2S2rOHZhiEEEJqF7Oh0obCsGSPxcQXDlun2YQQd4L7v1iUQjJRjpRBiqyqABfBzVtl7Xs/IG3nvVitYp0KhBbs3VGjlXxip9WwmBBCCKkhtOeVEVZqy64F74xeEeJ2pg9Ziul0OezcKbIqDgQWbNrf9wFpfeG54g1XzqZ9qSBvPbRmjTZITjz2GCNahBBCagNEr8w6G4C4isethsKMXhFCpsF0oNGspPW6dNDCvaJAYBmhsubd75WWF6IPVuVt2pcKIlqx08+QdX//YWk47gR7lBBCCHEoZs1FzVWgY4U+s6EwIeRI0EIJfWk9vtJHtxnJqhBITWjYuk1WvfUdmiJYCxGsI0GxcNAsVqHVq7VGKztI10FCCCEOA9GrYFBTA/0tLeJFzytCCJmNYlHNL4rZrD1QEpguWAkO2bRf/kZpf+mFjq7Bmg+kDgY7O/VkMH3gAIUWIYQQx4ADTRhJBdrada2lsQUhZF4wTxTzUkiUNGWQIqvcYMKPbNoi3RBYF17sSBfBxaKug13dEmhpNUILDYsptAghhFQRRK8iEQnEm9SanbbshJCFYpdlSSFlRFbp9rOsySorXq+E162XVW95W90IrGmQ397y/HOk+01vtWq0eFpICCGkCljOgXE9+IM1O2uvCCGLwuxhURLjCQbtgdLASFa5gMnF5i2y9j1/K20vfmlNpwjOhka0Vq+R4MqVktz1BO3dCSGEVA5Er0JwDmwWXzymaxIP/AghSwJ1WbmcFFIpe2DZMJJVFiCwtmy1bNphchGJ2G/UHxCPLc87R9Z/6MPSeMKJ9ighhBBSRsw6q7VX7e3iNc/lcAYjhLgIM6d4AkHxeEonjSiySo0dwVrz7vdJyzm1ZdO+VPBvjJ91tqz7uw9Lw/G0dyeEEFI+kB4YaG1Vt1usP0wPJIQsF5jkeHxmLgmU7sCGM1MJQT5nw9ajZNXb3ymtL3xRTdq0LxWkacRPPV3Wvu+D0njCSVz0CCGElBZEr6JRFVeowWJqICGklKBnFg5xSgV3wiVCbdq3HSVdb3ijtJ3/ElcJrGmQFtl01tmy+h3vlMYTTy7phUoIIcS9qLlFPC7+tnYrBZ8CixBSSjSS5StpXz2KrBKAyT+yeYusfO3l0v6yi+rKRXCx4N/e/JznSveb3mJFtCi0CCGELBWz8cGhJZwD0VzYGwjYbxBCSIlBFpbfzDElOsShu+AyQVpcZMNGIyreJh1q095ov+NevMGQhFatFn9rq6T37ZNsX6/9DiGEELIwsL76Gxu175U2FmYaOpkLuMOhxxEe+bwUc1n7kbMe2ZwUMmkp6iMzw8P6Xcnbv49HoWg3UCpoLyVGUOsfvWbSaet7Xx69nhtXt1/tEe+l9gBZDBBYmzbLmne+W9rgIliHNu3LIT81JaN/+L3s/9ynZfKB++1RQgghZA4QvQoExBeLi6/BiCucLBNihI4lfMwzhJARUjqWN4+C+Rmb4kMP8//22FO2yhBgs22eIaCmHzYQ9ofEPVznfHjts3oq+X3mtU+85vrU3+EhQM2Da6uQSEh2dESF9zK5lyJrqZibKbp5q6x57/uk9QXuMrlYDOg3MHbrzbLnv/5dpii0CCGEzIXZyPoiEfE1NdE50K1go4toQtaKLBXwnM2ZcVs0HRJS1uPQ60phC7Hpa9MSWEZ0BQLmmg2qDTgOCVguUYOY6yifTEp2xIis9LL7Zd3LdMGloAJri6x5jxFYLzyPAmsOMMlgkhy7+WZJ79trjxJCCCFH4PeJLxaz0gMpsNxB0QiqTFryiSnJTU5KbnREcmaDmzc/F6amJJ9KaeqWCi6kANrRq0MRqUqKq8PBf9f+e+jfCxG2bEYKZoOOLJ785IT+e5B6hlCaRr4Oi5ARB4PvFCml5ppbJkwXXCwIE0c2b5bVf/030vbiCyiw5sJMQonHH5PdH/+ojPz21/YgIYQQ8lQ0PTAe1xRBiqs6xBZDECR5I5qQ5VJMJa1aqGoJpUpiRJbP7BdRtw93TL3GVXNReDkKcy1CXCGSlZ+atAeXDNMFFwPywuEi2P2GN7neRXA+cKoz9fBDsv+zn5LhX19vnT4RQgghh+MxOxCz+fTHm7Sumaf9dYAd5YF4Ql1UAULKiKoCxBXqXNwgqubCCCwILlzvuPY9Pr8tunjtOwHsX3Mjw5KbmLBHlsy9PC5aIJZN+2bpeh1s2i+kwJoDTKKTD9wnB674gozc8HsKLEIIIU8D66qvMSaBtnZdUymwahiIqmxWI1S5qUnJjI5Kpr9PMgcPSra/X3Lj4yqyXC+wgPms8jBXGBqSTF+fZLGhT0xJIWsEqHmPOADMRSWYjyiyFgByacPrN0rX698oHRdfouFeMjMqsB58QA5+9Ssy8tvfmAk3ab9DCCGEGMzmBaYWqL0KtLaKNxi03yA1hREEEE6oP8oaUaWiYaBfsgMDkh8btVICKRpmx05NyxsBis8sOzhoxOgYP7dqY+anUtXQUWTNh9cr4Q0bZfXb3ykdF1FgzQVOYaYeeUh6vnaVEVi/KkU+KyGEkHoCqVKRqPhbWjWKhc0MqR2w+YcZRQ6RqqFBI6zwGJKcEVUwr1CzAEarFg8Eq+1qh89VzT/Ma4qt2oYiay7MYgAXwbXveT9TBOcBKYHJHTvk4Je/JCO/ul7yy89lJYQQUkdAUPmNsEKjeti00+CiNpgWVugdlO3vk9zAgLoAYp3XqAtKAiisSgOiW+m05CbGVcCiNkgzgvj5VhamC5YZW2Cteff7pPVFtGmfj9TePbLvk/8jQ9dfq6dZhBBCyDSov0J6oL+lxUoPLMEGhpQRs6lHfyqNrPT2GHHVK3lEVxIJzVphhKXMmM8XzouoZcsMDGo6JgwZSAXA3OT1UWSVDSOwIhth0/5uaT2XAms+kjt3yq5/+UcZuu4XegJDCCGETIMmrYG2NvE3NTM90OEgKgVXtXRvr6T377MjKSmzwc8b3cVoSsVBZMuIWnwPaSN2YSpCKkCJzoAoso4Ap23Rrdtk1VveJm3nnU+BNQeYjKceelD2/Nu/ysjvfsNwNiGEkCfxetWmOrhyJeuZnQo28WYt13qgoUFJHzgg2YF+8zrBNd1haGQLBhn4fjJ0aqwFKLIOw7Jp3yJdr7Vs2rE4kJlBusDkA/fL/s9/VkZu+C1vdkIIIYfQ9MDGmATb2sUboHugo7CFldZZTYxLpr9fUwJzY2NSzGXtXyJOBGmauclJdSKEuZjWwxHHQpFlozbtGzaqwOq4+OU8dZsD2LRPPfCA9HzlShn53a+t3heEEEKI50l7dtRfIVWQOAQjrrB+56amtDcTIiK5oSGNWjEVsIbA9wiBPDysLo/a4Jk4Eoos4PVKeN0GWfWWt0vHJa8QXyMF1myowHr4Ien5+ldlWG3aaXJBCCHEAIEVjqi4oj27c3jSHXDUbMyHjLAa1N5MtFuvbWCEkZuc0HotGJIQ50GRBZOLTZtlzXveJx0XXkSb9jnADZ18/DE5+JUvy/Cvr6NNOyGEEAuzlvqiDdpcGH2waM9efVRcIWo1NCTZQct2vWA240wxqyOQ9mm+UwgtCC5GJJ2Fu2dBswhoH6x3/620nf8S8ZqFgcyCuXHVpv2zn5bh666V/CQdbgghhIgRVE/2v0KqIO3Zq0vBbLzhEJjp7VVxlcfmGyll3IDXJ0gfTKcti/2JcQotB+FekYUIFmza3/lu9sFaAMldT8juf/0XI7B+YTXGI4QQ4nrU4KK1RS3avay/qiqIUGlfpZ6DKq6wVmvUiptuV4C+ZvmxMfMYZbRyWZj7pUT3jCtFFvLEEcFa9ba306Z9HpBukHj0Edn9sY/K8K+v541LCCFEo1WeUEiC7e3ij8UZvaoWiGKYzTUMENIHD6i4YtTKvei1YIQ2HmwYvURw62CvW4LPz3Uiy7Jp3ypdr3+jtL/0QqYIzgGKYqcefED2ffqTlk07IYQQovVXUQm2tllrKAVW5TEbQKSI5cbHJNPXp4YWamRBXA/q5wtTk+YxRaFVZVwlslRgbdwkXa99vW3TTpOL2YCL4KQRWAevukIbDevJGCGEEFeDTBB/Y6P4W1qNwIpQYFWYYgH9rZKSHR2RzEC/mloU0ZiWkMNQq/6xUTU6YVSzerhHZHm9El6zVrre8GbatM+DZdP+oGXT/ptfST5Bm3ZCCHE7OKj0xePia2oWb5ANhisJUvXzyaTkRka0Ea02DubhJ5kDTR2cmGAv00VTNLoUdVn2y2XgDpGlJhebZM273isdF19CgTUHatP+2Hbp+epVtGknhBCioKlwoKVV/PEmGlxUEtRcaY8rI66GjLhCrQ3EFaMTZD702jHCfNwIctbTLxzcWoUCpJb1ehnUv8iCTfumzbL2PX8rbS99mfbxILNgLqrUrl2y/wufk6Hrr6XAIoQQt+NBg+GwGlzggJINhisENshGTGWHhzUtUJsHU1yRxYLrCBFQI7TIIsB9VoJ7rb5F1rRN+9+8R1rPpU37fCT37Jbd//lxGbr2F1YeLyGEEPcCgRWJSKCt3ayfrL+qCGZjBwOL7MiIZPp6rSgEDC0orsgS0VTTqSkVW2QB4B60f1wudSuy0G0+unGTrHrbO6TtvBdbBbpkZswFldjxuOz+14/I8HW/lGKODkWEEOJqzBrqa2i0BBYbDFcEbIZzU5OS7u9T0wKKK1IqcC2hPotug/MAgYXUyhKlV9alyFIXwS1b1eSi/aUvo8CaA9RgTT30oOz7n/+Skd/92h4lhBDiVrTBcCwu/tZW1l+VG3tTl08kLLfAgQEpwqiA4oqUEnM9FTJpRrMWCCNZs+AJBqXhmGOl+/I3WSYXtGmfFbVpf+gBOfDlL8qwEVgQXIQQQtwLDC7gIOhvahKvEVukTEyLK7PpRY+rbH8f7bZJWcEeL59KMZo1B7j78PkU86X5jOpKZHkCQWk87gR1EVxx2avE1xiz3yFHAreiqQful56vfUVt2lmDRQghLgb1V8GQEVfN6iCIaBYpD7CHzqORsO0YCJMpbnxJ2YGwz2Zo/T8XOOQomnsRjxJQNyILAit20kmy9r3vl5ZzXsgFYg4QLp64607Z/7lPy8ivaNNOCCGuxnYQ9Le2iD8W05pmUgbMBq5gNrm50VGNXqkdO+quCKkEKrKyeg2qmCAzUiyYz6ZEhx51MZMiRTB2yqmy9v0flKZnPZsCaw5wg00+cJ/s+8wnZOSPN2ghJCGEEJfi8YovGpVAa6v4IlEVXKT0IFKFxv5oJJyHqUUqxY0uqThIgytksoyczsp0JKs092bNiywVWCefImvf+7cSP+1M9vCYA+R/I0Vw10f/ScbvvIMhY0IIcTNwEGxsEH9Lq6YKUmCVAUSv0Ex4cEBNLQpJ1sSQamLEQz6n+0EyA9BYuXzJPp+aFlko0G084UStwYqfdba+JjODC2by3nvk8Q+8Vyb/9CeaXBBCiJtRgdUo/uYWI7CCFFhlAOsurNgz/X2Sn5y0xRWjV6SKIGUQAoJCf2bwuZTws6lZkYW+HbGTT5bVb3+nND3jmeLxMoI1G4V0WsZvu0UjWInHttujhBBC3IhatMebJIAIFg8nSw42sWj+munv16bCPNQkjgEiy1yPpYrU1BVIEcTnUyjdZ1OTIssbCkvjCSdJ9xvfKi3Pf4F4fKzBmpmiFJIJI7BulX2f+ZRM3n+fdRERQghxJRBVEFiwaGd6fYkx62shndLoFVwDsf5yzSWOQ8VEgdfmDEBglVKA1pzI0j5Yxx0nq97yVmk990U0uZiDQiIp47ffLgeu/KKM33UnT9MIIcStqEV7UHzNzeKjwCotZrOK9TU3MW7E1ZARWWNcb4mjgZBAKwHyVJDS61qRhZqr2AknyJq/eY+0vAACi2kOswGb9vG775QDV31Jxm67VYqZtP0OIYQQV3HIor1V/I0x85L1V6VCXQPthsK5kRE1uWCEgJDaA6JT6yZLeEBSMyLLsmk/Rdb+7Yek+bnPZwRrDgqZjEze/yfZ//nPyNitt0gxTYFFCCGuRAVWRALNLbRoLyVmQ1bIZiU/PqYCCzVYrHMhpMZBJMttxheHbNrf836Jn3EW0xzmAJN84uEHZfe//auM334bbdoJIcStwEGwoUF7YCGSRYFVIiCw0ikrNXB01FpnGb0ipLYpGoFV4jTfmhBZoa5uWfma10ns9DNp0z4Pyccfkyf++cMycc/dzAknhBC3gibDkahl0R5iD6xSgYPM3Pi4OgcWElMlPfUmhFQPq1FzaQMTNSGy0j0Hpe+7/6cRGk5ocxNau066Xv8mCbS1cVElhBA3YjcZDrShyXDQHiTLAtGrTNpqKjw0yENMUttwf/hUEIlGqmCJU359l8ejl3nEc4z92pmYf3S2t09Se3ZJdMtWCazoNNcHL5CZgD1veNVqCXWvMqL0IcmPj9vvEEIIqXvsJsOB1jbWLpcCiKt8TvKTE5oeiL6ThNQyKLnxNTRaEW5yiEIuK4WJCUtwlYbe2hBZBqjLdG+PJHfukMj69RJc2SUes5iQp4OTy2B3t+bhp3Y9IbmRUTPKfHFCCKlntMlwLK4mF6xdXj7InIGogrkFDixpbEHqARVZkSij3IcBZ0HUWeYnJ+2RklA7IktBRKu/X1K7d0moq0tCq1dTaM2ExyO+UEhCRmj54k2S2rtHcsPD9puEEELqDW0y3NTMJsOlwGy4kA6Yn5rUnldoiVLC021Cqgq8DXxRI7LocfAkRl+gxrLEkeoaE1kGnCRlB4ckc/CgBFZ0SHjNGgqtmTBCC7a9oVWrtC9K0gjT3OiI/SYhhJC6AHN9MCg+I7B8sRjXw+WCE+1s1oirUT3VLpqfCakbMF9AZEWiTCc+DD1UmRgvda1l7YksUMxltfg009Mrwc6VElpNoTUTqFvDjRQyQtQfb5LEIw9rXjkhhJA6QAVWSPzNTVpjwXVweWh64NSUZIeHpZBKaiE8IXWFmSNQi+WFyGLE+xA4TEHUusQR69oUWQAfSKavVyNaobVr1eiBZhgzAKEVjkgYdWxt7TJ+x21WR3pCCCE1jBXB8jc3U2CVABS9580mCxkfdA4kdQsOZiCyzL6QIstCD1fMvrgwVdJ6LFC7IgtgIoQZRnrfPmnYStfBWdGbKizhjZskvG69jN1ysxb4EUIIqU3QpF9rsGIxnePJErEL3lG3rEXvrL0idQwOY9CY3Bc1IsvDgxmlPPVYoLZFloIard5eSe3eLdGt2yTQsYJCaxbU3n31GgmtWStTD9zP1EFCCKk1cGgWiWhmgq+hwR4kSwE13hBW2ZERa4NFgUXqHHUWjEY1w4lYlKkeC9SByDJgosxAaO3aKZFNmyTYiYgWFfpMQGjB3j3Y1ibJnTslTzMMQgipDVRgRSXQ0qKn0WSJ2OYWsGXXzRXNLYhLgNkF7dsP49BcUPJ6LFAfIguo0Orrk+QTOyW8ao266jFHfQbMIu0LhSXUtUrNMNTefYT27oQQ4mg8XktgNTdTYC0Drb9IJrXIHRbtNLcgrgGHNMGQRsDpLGih/bFSScknEvZISakfkQXU3n1gQNIHDkhwRaeE1rCP1ozgRjOLNISor7FRUnt2S36EES1CCHEkZh3zNTZIoKlJi9Yxh5PFo2lBkxMqsIo0gCJuA/VYoaB4o0Zk0fTCQlOGp6SYydgDJaW+RBbAJJqBvXtvjxFatHefDdStIa8fnw8Kp6ce265pE4QQQhwEBFZDg5pcaIoPBdbiwWm12UTlND1wwuwTmB5IXIiZO1CL5UctJ+cRBXNBDnvf0tdjgfoTWUDt3Qf6jdA6aETEKgl1r1ZRQZ4KPhOfEVpwHPS3tMrkPXdZne0JIYRUHwisaFTnZwqsJVJEemBKsqOj6iDG9EDiVrQeywgsuE0TTA2wbk+Xc16oT5EFILTSPQclvd+yd0f6IBeoGTCfCVIHI5s2S3jVahn94w0sAiaEkGqDudkIrEBbuxoWkcVzqLnwyIgU2baEuBnMJ2Ye8TfGWI81jZkfiomE1Tu29KYXoH5FloIarb4+rTlq2HaUBDs6KLRmQe3d166T8PoNMnnvPZKHsieEEFJ5YHIxLbC4IVo8ZsOE0gGkAeVGR/VnQlwNRFYoJL6YEVksobFAPdbUpLoLlok6F1mGaXv35O4nJLoFDYvZR2s2ILRC3as06pdAjdbYmP0OIYSQSoCCdH8sbqUIUmAtHq2/SlvugePjTA8kxODx+vTghr31bDBPpFNGZE2p2CoT9S+yAIRWuqdHEjt2aLQm1NVNJT8T9kkHPh9/U5NGAHN0HSSEkIqgNRMQWLBpp8BaNJoemEhIbnREnwkhFphbYHLG/lgWViuHhOVDUJ5UQeAOkaUgdXBwQFL790poZaeEVtPefUYgtNTefbX4GmKS2kt7d0IIKTeWwIqJPx5nzcRisdMD85OTkhsfK5cdMyE1C8QVDm+477UxmgD1moh6lxEXiSwDJuHs4KBkemDvDqFFe/eZOGTvvma1+BsbNQKIhYsQQkjpUYHVSIG1JJD2k7VsmNEDi8ZNhByB2ef6og1MFZwGhzLptHoPlLle010iC2ACzg70S7qvR9Pi0JDX46HQOhLL3j0qobXrtD/L1P1/snJXCSGElIxDAqupiQJrsUBgof5qdESjWKy/IuTpYF7xx5voUmpjWbenLOv28qUKAveJLKB9tHp7JX3ggFqXBztXqqggR6BCKyKRjZs08jd20x95SkgIISUCmRQqsFpa1PCCLAKzOcqbjRKyU9SCmRAyIygBCbS02q/IoVTB8s8b7hRZACFCCK3U3j0SPeooCbR3UGjNAnJ5wxs3SmTDRhm/83Y2LCaEkGWiAgs1WGbzw7T1xQEzq8LUpGSHhnjwR8gc4PDG19CoB+bEgFTBTEat2yvQ2sG9IgtM27undu2i0JoHbyCoqZWI+iUeeVjyE+P2O4QQQhaDx282PrZNOwXWIkB6YD4nhckJdb7FGk4ImR01vIgzFXmaIuaQVNLMIZM6n5QZd4ssoEKrp0eSO3dIZP0GCa5cyUVvFrzBkPbRgkNNcvcuyY/SdZAQQhaDVYNlBFZTM1MEFwM2RziBRv+riXGtqyCEzAGamocjVgNiBhAs4EKKBsTpsroKTkORBSC01Axj7x4jImCGQXv3GTE3qWXvvkrrCJBqSXt3QghZGCqwaNO+aKzT55QRWKNaS4HXhJC5sSLmMfGFQrp/cz3TBzXjEyKFikTBKbKm0RqtwQFJ9xykvfsc4DRE7d21j1aDJJ/YqZ31CSGEzI4VwTIbHiOw2Gh44Uw3DcU6U+bGoYTUD9irhcLagJgHOhaYS/KJhOUqWBkosg5H7d37jdDq7ZXQyi7L3p1C62lAaPmiEQmvXat1BYmHHrTscwkhhDwNS2A1qk07BdbCmd4U5UaGrQbDFFiELAhEsdDn1BuJ6p6NmOkjn7dSjStnlkORdSRq797Xa4TWQYmsQ41WFy/QmYDQgr37ho3ib2uX8dtuZZd9Qgg5AhzUqcCCyQVrsBbM9IYoBwdBGlwQsig8gaARWTE1viAGpAqm0VNv1B6oCBRZM6Gpgwd7JLV/n0SPPpqug7NhPhPUaKHXWGT9ehm75eZKFRMSQojjOSSwWtuYFbEIirms5MZGrVR0Rq8IWRyYdxoaxGsenHcspg9tKrxHpciaDXwhmV4jtHbvloajILTaKbRmAV3Ew6vXqGnI1IMPMHWQEOJ6tD8NbNpbadO+YOzCdJw25ycnKLAIWQIesyfT3ljhsB6GEzOVYF4ZGTU/VNSVlCJrLqaFFswdops2SaCz01yvXCxnAiHpYPcq7SqefGKHukARQogbsVwE0QerhQJroUBgpVKWwEJhOgUWIYsHUSwjrtS2nenJikaxzJwCA50KQ5E1Hyq0+voktXuXhFav1j5RXDRnAKmDoZCEVnWrm01q727auxNCXMe0i6DatHOTsyAsB8GkpgcWU3QQJGSpaAS9oUF8kSijWDbwWsiPj2sacoWhyFoIxbxt737woIQ6O9lHaxaQTmnZu6+y7N137dK8ekIIcQO0aV88KrASCclCYKVTFFiELBU97A6LP96kcxGx55dkUgpTk9WYWyiyForauw/0q/NgqHMlhdYsWEIrKqE1a9XZJvHoI6zRIoTUPYds2s0GhwJrYahFu1kf1KI9S3daQpaDRrEQRY8yinWIXE7rO1HrWQUoshaDZe/ep3Va6BEV7OpWUUGeCj4ThKrhOOhvaZWJO++QAk4oCSGkDsGBmwqs5haeIC+Qabev3MiI/kwIWR4o2QhgDmKasqJRrHTaOuivzhxDkbVYVGgdPCjp/ful4eijJdjewRODmUBEKxyRyOYtEl61RkZvvEE/O0IIqScOCSzYtHNzsyDQJoUW7YSUDo1ixeJaqkFsbMOLKtZ59jLfbQkUMmkZv/1W2f3vH5Op7Y+YgYpaQtYUOFmJbNsqsZNPsUcIIaQ+8HixsYmxD9ZCMRsdHLZBXOUnaNFOSKnwBINqOkZs7LmmkEprRKtacFVYIghBjt96i+z+2Edk8qEHqvolOhVc4FOPPCQHr7xCRm++yR4lhJA6wIgqLyJYLeyDtSDMpgd1EVlYtE+Mc80kpERoPWhDIyPph2GlCqbMPrS6tZ5cGZaBCq3bbpXdH/+oTNx1O/PKDwOL6eSDD8iBL31BBq/5qT1KCCF1AFIEGxosm3YKrPmxBRYiWIXJCQosQkoFSjNCIfHB7IJYIIqVQxTLiKwq78u5OiwTCK2Ju++SfZ/9tBFct1BoGbCYThmB1fOVK2X4V9dr/j0hhNQF0wKrqVm8gYA9SGYFAsusk9nREbVRLprXhJDS4PEHGMU6Aswx2IfiUW0oskoAPPjhoHfgy190vdBSgfXwg9Lz9atk+DfXV6PDNiGElAcIrOhhAoumR3NjNjv5VEoyw0PaC4sCi5ASYuYjbzgkHvPgXGRj5hgc7GNf7oQDfoqsEpGfmjIC6zYVWhN33enKdAjUYCUe2y49X/uKDF13rX4mhBBSF2BDE42Kv5kCa0HYAitrBFbRPOM1IaR0aBQr2iBeH9tGTGNFsdJ6qOMEKLJKCKwix265WfZ/7lOSePABcZPrIKJ3qd27pOcrX5bBn/5YTxEIIaQu0LqHsARaWsUbDFJgzQMOGXHIlh0alGI6bY8SQkqG1yfeSEQ8IUaxnkIhb0WxHLL/psgqMSi0G7v1FtnzX/8miccedYXQwsWc2rNb9n/x89L/g++zLo0QUld4giEjsFpYg7UAsB7gFBk1WEUH1EQQUnfg0AeW7dGoeNn8/CkUszkpTDmnTIUiqwygyBdCa9fHPqp9tOo5dRA5r4lHH5H9n/mk9F/9XXuUEELqAGxmIhEJtrWJNxy2B8ls4ICtkJiS7NgoBRYhZQImF95I2IpikUNok3N1L3XOQT9FVpmw+mjdLLs/8s8yee/ddRndUZOLhx6UA1/8nPT/6Af2KCGE1AEQWOGIlSJIgTUvGsFKJozAGmOKICHlwsxLaDyMWiy2jzgM1GKZeafgMC8AfkNlRIXW3XfKvk/9j4zfcVtdCa1pgXXwK1+Woet+qRc4IYTUBdMCCyYXPC2eF6xt+fFxbTRMgUVI+fD4/NoTS2tDySEQxcpPTjouc4wiq8ygAG8M9u5XfEEbF9eD0HrSpv0rMvyr67QOjRBC6gKtdwiJPxZjUfkCsATWmOSYIkhIedHDn5D2xeK89CQQVnAydeJelCKrAqAIePz22+TAlV+ScSO4nJQvuljUpn37o2rTPnzdL2nTTgipH1RgBcUfj6tdO9Nx5gYCKweBNT5eV5kahDgRTyCgcxMbDz8VjWKh0bkD99ZcQSoB+oVMTqq9+4Evflam7r/fcSHNhYBFNPnEE3Lwq1fK4DU/lbxD+hAQQkgpwCbGF28SX2MjBdY8TEewkCZIgUVIeYGwwryEVhLkSSCsCqmkFUV3YNkKV5EKgqLgsZtvkr2f+E9JPrbdDNSQ0DJ/1/TePZr2OACb9mzWfoMQQmofj99sYmIxTRNkKs7cWAJrXHLjExRYhJQdmF2ENIrFuempFHNmLkJfLIfOQxRZFUbt3W+5WXZ//COSMEKrFiJaatP++GOy77Ofpk07IaTuUIHVGDebmCZ7hMyGpuZMTEhuAhGsnD1KCCkXnmBA/E1x8XiZJng4EFYaxYLZjkPN1yiyqsC00Nr10X+Sqfv/5OgaLUSsph55WPZ//rMUWISQusPj96u48re0iIenxHOiBeaJhNZhQWwRQsqLpgk2NKjbKTkMI6qwP8V85OS5iCKrSqi9+x23y97//k/LDMOBoU64CE4++KAcvPJLMvjLa+xRQgipDyCwkCKIOiwKrLmBwIKJk0awKLAIKT9mTvKEwyqyWCP6VKwoVsrxLSP4rVURXCBjd90hB774eRm/3Vn27tN9sHq+fpXatLP3CSGkntAUQbN58TXGuIGZh2mBlR0d4VpASIVQIx40HfYH7BGiIIqFtOXElCMDFIfDlaXKWPbut8qBK6+Q8Ttvd0TqoGXT/oj0fOOrMnz9tbRpJ4TUF16feKONGsHymo0MmR0VWGYNyI4Msw8WIRUC9Ve+SNQ8IjwEOgJNW04lNSPM6fCbqza2vfv4LTfJgSs+L5P33asXULXA6UBi5w7p+epVMvTzn1FgEULqC7Nh8UUjVi8sCqw5eUoEi46yhFQGTRMMWa0k/H57kEyjtVjj47p/djoUWQ4BxXtjN94o+z7xP5J8/LHqXDzmv5nev08OfvlL0v+D79fEKQEhhCwYs3lBnxl/U7M2HSazowIrmaTAIqTCqBkPzC5CIXuETKNpgjVUF0qR5SDUdfBW29798cr20UJeKyJYtGknhNQltsAKtLZy8zIfqHkw65G6CFJgEVI5vF7xRiLibYzZA+QQZl7CPjk3OWkPOB+KLIehQuvmm2TXR/5ZJh9+sCKpg1qD9egjcuBzRmB9/zv2KCGE1AkQWMGgBJqbKLDmAxuZVEqyY6P6XJWsCkLcCOapsBVpp9vpEWBeymTU3bSW5iSKLAcCoQUzjD3//jGZuPvOsrqnqIvgww/JgS9/UQZ+9hN7lBBC6gSNYIXE39wi3miDPUhmxD4pVoGVTFJgEVJB9CCoiWY8M6FmF8mENS/VEBRZDgUniOiftf/zn5HxO24ri9DCf2Py3ruNwPqSDF/3S6aFEELqDmxY0GzYF43aI2Q2CrmspghSYBFSWaZ79nnYdPjp2Ic/asRWY/MSRZaDwUI3fvvtchD27nfcXlKhZf3Zt8m+z39Whn9zvRpvEEJIPYGTYbVph8Bi+s2caCrOyIjatVNgEVJBUIdl5ijticV56mmo2YWZl2qxhQRFlpMxC11+alL7Z/Vf/T1J7d5lv7E8cCIwce89sv8Ln5Wxm25Ui15CCKkncDLsjcUsG2T2mZkTZDHkRoatjQwFFiGVYzqdGU3Radf+NNTlNJUyj9qMrnPlcTrmosqNjsrwr65Ta/X0wYP2G0sD0bCpRx6Wvf/zHzJ+681mcWVzSUJIneHzideIK924UGDNCU6JNUUQh20UWIRUFCtNME5Dnpkw8xEOgPTwp0bLWbj61Ai5sVEZ/PnPZP9nPyWZvj57dHFAYE3ef5/s+pd/stIPuaASQuoNNBtuaJAAHLqM2CKzYwmscclPTHI9IKTCYH5CpB3N0ZnO/HSme/VpFKtGociqIXDaOPizn8i+T/63pHt67NGFoY6Ft90iu//1n2XirtvtUUIIqSMgsKJRNbqgwJobq85hUvKTE2YzUz4HW0LIDEzXYWk6M+eqp1G0e2KZOaoSrYzKBUVWjQGhNXDNT2TvJ/5TkruesEfnBicBaHK87zOfMgLrTnuUEELqCNQ2RCLib2lVwwsyO8hqgB1ybsIILCO2CCEVBHOVmaOQzuwNcK6aCcxLhURtml0cDkVWDZIfH1fL9QNf/JwkHttuj84MXAPHbr1FbdrH77qjpk8ECCFkRmyBFWhuZo+ZeZguJM+Njdf8BoaQWkTTBGNGYIXD9gg5HMxReTNH1aJl+5FQZNUoubExywzjqi/L1PZH7dGnkodN+x23ycGvfFkm0GuLCyohpN6AwArbAivETcucIAXHbF6yo6M0PSKkCqjAisfF19Cocxd5OgW4nY6PlaU/bKWhyKpVzGKZHR6W4V9fJ71fvUqSOx6337AopFMycc9dcuCKL8rY7bdqbishhNQV02k38RgF1gLIZzKSHRmWolkfav2EmJCaA3VYDQ1WzShdT2dEa0UhsOpkz8pvuZaB0BoaksFrfy4HrrpCUvv2WcPmIp168CHZ96lPWDbtFFiEkDoEqYH+pmbxRht4KjwPWkQ+NMj1gJBqoBH3sM5XFFizoKnMSashep3guzwevcwjnmPs16QGQfpHes8erdVqOO44SZmfd33knzRFkKeVhJB6RPvLNMa0toGblrlBqnhudETXCkJI5fGEQhJobhEf+mHxQOjpmL2qFWkfqScznl7Pjavbrzb6+lJ7gNQwCEE3nniSukbRRZAQUq9MCyx/M0+F58RsXNDEU3thqVU7jY8IqTQePyLuTTwQmgNrnhrTYEEd9ey7l992HYELdPTGP1BgEULqF7NJQXogNyzzg8Jx9JlBPywKLEIqjx4INZj5yjw4X82M5XiaVDfBemuKzm+cEEJIbWA2KdpsuKmJVu3zoAXkEFjohVUHLl2E1Bw+nzqf6oGQEVtkBhBtR73o5GRdzlMUWYQQQpyPxwisiBFYzS0UWPOgJ8PJpKYJ1lF9AyG1gzqfhsQfj7M5+mzY6cwawUK9aJ1FsQBFFiGEEGeDDUsoaARWEzcs82E2KhBY2dER3cAQQiqPB86nEFgwuiAzgtTAfDol+UT9pQlOQ5FFCCHEuajACkmgpUVPhskcQGAh9YYCi5CqgdTAAIwuolGdv8gMmLkKrqdqdFHH0XaKLEIIIY4FGxY9EQ5HuGGZh0I2I9mhQTafJ6RKeHw+8cXi+uB8NTvFfE5yE+N1P1dRZBFCCHEkhwQWmw3PjX0qnBsZlYJ5JoRUARhdNDSoMQ+ZHXU9nZyS/OSkPVK/UGQRQghxHJb1caPZtDTS+ngukCJo95gpJBP6mhBSYQ45n7J335xoSnNK8ma+csNcxSuBEEKIszCbFG8kKj5YtdP6eE5wKlxITEk+kWAvLEKqAepGw2Hxx2Kcr+YCAiuTltzYmGtcTymyCCGEOAezYfFFIlYvLG5Y5gQCC85ctGonpEpAYIVg1W7mq1CYac1zoL370A8Ldu0ugSKLEEKIM9ATYSOw1EmQVu1zob2wzGYlN0aBRUhVwHxl5il/DMY8FFhzUSzkJZ9MWD2xXJTSTJFFCCHEEXjMhoVW7QtA6xrSkh2hVTsh1UKdBBtRN9rAOqy5KBY0eqVRrHzeHnQHvCoIIYRUHRVYzUZgsXnnvKjRxeioFDOwP6bRBSGVxhJYMU0TpMCaAxwIZXPqJojIuxvMLg6HVwYhhJCq4vEHrJSbCHthzYdl1T5sOQkSQioPjHlg1d7czPlqHtSYZ8oILPNwIxRZhBBCqoZatccaNe2GJ8Jzg9RAmFzASZAQUnkwR8FFMNDaxvlqHqy60aQ2HS4W3el8yiuEEEJIdUDzTli1N8Y0/YbMjuXMNaEPt6XcEOII7AiWj72w5sfMUUhndpNd+0zwKiGEEFJ5zCbFsmqPizcQsAfJTByyap+YYC8sQqoB5qtog2XVzgOhedGo+9i4GvS4GYosQgghFcYjnmDICKxmOgnOg6bcJBJ2Lyx3OXMR4ghUYEWt3n1oLcE6rDlB5MpKa3ZnHdbhUGQRQgipKJ5gQIKwaqeT4Nwg5Sadtmoa1KqdaYKEVBT0wkLEHc6nFFjzolH3qSnzmNT5y+1QZBFCCKkY6iSIDQuad5LZMRuUQiYj2fExK+WGGxZCKg6EVUAj7hRY83GoQTqi7i7rhzUbFFmEEEIqApwE/c1N4m9o4IZlHrBJyUFgwfqYAouQioOU5kBbOw+EFgKi7mgvAYGVzdiDhCKLEEJI2VGr9saY+BoaKbDm4VBNw8SEPUIIqRhIEQxHJNhOgbUgEHXPZnW+KqaS9iABFFmEEELKixdW7RHxxWjVPh8awZqckNzYqD1CCKkYtsAKoGaUAmtBYM5CxB39+4qMuj8FiixCCCHlQzctYfHHaNU+H5aToNmsjI/r6TAhpIJgrooYgdXcTIG1QA41HJ6cMGLLvf2wZoMiixBCSHnApiUUkgB6YdFJcE50s5JMWL2wWDROSGWZFlhxI7AwV5nXZB6QJphOSxYNh9X9lBwJRRYhhJCyoE6CaN4ZjnDTMhdaNA6r9gk6CRJSaezDII22R8JmZ8yt8UKA+2luZETbTJCZ4ZVECCGk5KD2yhdrFB+dBOcGp8HZrCWwkkkKLEIqjCcQMHNVXBsOc65aGIhc5cbQXiJlj5CZoMgihBBSWrxe8TU2SqC5hZuWeUAdQ35iXPKTbN5JSKXRthLxJvHHYpyrFgjmLDRIZ8Ph+aHIIoQQUjogsBoaxd/Sag+Q2UAdFhy5KLAIqTyeQFAbo/vjcXuEzAfqRfOTU1Z7Cc5Z80KRRQghpDSgtiES0U2Lh3UNc6ICa2pKcqOjNLogpJJgngoagdXURIG1CCxzniTNeRYBV0FCCCHLBxuXUFgCMLowGxgyB8WitVkZHdHGw4SQCoF5KhAUX1Oz+Bsb7UEyH+h/VUiltUk6THrIwqDIIoQQsjymT4bRbJj2x3ODzUo6ZTYrtD0mpKLYAgvRKzXkYbR9YZg5q5jJSH6CRheLhVcYIYSQZaFOgtEG8ZqNC9ME5wACC7bHcOVKcbNCSMWYPghqahJvYyPnqUWAaHt+3MxZCbqfLhZeZYQQQpaO12fEVaP4WIc1L7pZmaRVOyEVBQIrFBZ/S5tGsDhPLRzUXuXMnAVznmKxYI+ShcIrjRBCyNLA5iViNi8QWD6fPUhmQl25ElNqdoECckJIZYCLYKC1VXzRCFMEF4FlzjNpmfPwUGhJ8GojhBCyJLyhkPbC8gYC9giZCXXlSiSsonEaXRBSMVAjGmxvF284bI+QhaACa3JSssPD5gUF1lKhyCKEELJIkH4TEn9zsz6TOTAblGIqpc07aXRBSIXQKHtEgm0UWIvlkFX72JgIo+7LgiKLEELIovAGA+KLN6nZBZkDI7DU6GJ8nEYXhFQKCKxwRBsN8xBocVhW7SkjsEalmOOh0HKhyCKEELJgPH6/+GB0AQtkMidqdDE2Jvlkwh4hhJSVQwKrSXyIYJnXZIEg6p5OS35iXArmmWmCy4ciixBCyILweG2rdlogzwsEFiJYKBznZoWQCqACK2zZtIcosBbFoaj7mOQTCc5ZJYKrJCGEkPkxosobjapVO40u5kadBI24gl07XbkIqQB2BAtGPL5IhIdAi+RQe4mpKQqsEsKrkBBCyNxgAxMIiq+xURt6ktlRVy44CY6NqdgihJQZzE9GWAXa2iyTC0awFoX2wpqYsNxPKbBKCkUWIYSQOfH4/OKLxcQXjdojZEaQcpNOW06CtGonpPxMR7DgIogDIAqsRWH1wppSowtGsEoPRRYhhJDZ8fu0Bgsii8wBBFYmI3mcBqNonBBSXiCwolEJoA8WU5gXjUawzHyVHRqkwCoTFFmEEEJmxutVo4tAU5PZz/CEeFbMBgV2x1rTkGBNAyFlx+dTl9NASysF1hKYbpCOQyHOV+WDIosQQsjTMaIKBeT+pmbxmA0NmR3L6MJsWCYnzX6FGxZCyonH7xN/Y6PVDJ0Ca9GowJqalCx6YeWZ1lxOKLIIIYQ8Fa1zgBUyNzHzoRsWNO9EmiCNLggpKxBY2qcv3sQarCUwHcHKYr7KZhnFKjMUWYQQQp6CJxAUPzYxoZA9QmbEbFAgsLKjI5ouSAgpH4ioq8BCHywe/iweM18VU2nrQCiTocCqABRZhBBCDuHxB8Qfi6klMk+J50abd44MWxsWQkjZUIEVi4u/uUW8Zo4iiwQHQum0HggV0ikKrApBkUUIIcTC6xNvQ4M+2MxzbpBqg15YEFqEkPKhAiveJIHWVtaHLpGCma+yQ0NSSCUpsCoIV1FCCCFmNfBaRhdoOOz324NkJtADC72w6CRISHnxmLnI19QsgZYWe4QsCkSwEHEfG7UiWKSiUGQRQojbgdFFMCi+eIx1WPOgToJGXKmTYKFgjxJCSorOSSE13/HH4/YgWRSHCaz8xIQ9SCoJRRYhhLgcTyCgRhe+cMQeITOhzlzJpOTMhgXRLEJIGYDAChmB1dysTdCZurwEDgmsMT0QItWBVy4hhLgYtURujIk3GtXNDZkFs2kpZtKSmzQCi3VYhJSHaYEFd1MzJ1FgLYHDBFZhiinN1YRXLyGEuBRsYGCJDDdBbmbmAAILRhfj4xrJ4qaFkDKgAiss/uZWCqylgrkql5X85ITWjBaLTGmuJryCCSHEjWBDYzYyqHmgY9fcIE0wNzkpeZ4KE1I2PMGQOgj6ImEKrCWCmtHchJmrkNLMmtGqw6uYEELcxvSJMQQWnQTnBBsVGF2geJwCi5Dy4A2HJdjRoc9MW14aKrAmJ3SuosByBhRZhBDiMiCs4NgFR0EyB0ZUIT0wOzhIgUVIOUDKcmNMAis6OR8tA20rMT4uuZERzlUOgiKLEEJchPadidHoYl7MRiWfTEmWmxZCygOaDKMmtKWFvfmWwXTfvtwo5yqnQZFFCCFuwWxqvJGobmxY8zAHZqMCd678xJgUs3QSJKTUaDS9MaY27d5AwB4li8LMU5Yhz5g6CVJgOQ+usoQQ4ga0DgvWyHFuauYCG5dcTnvL0EmQkNKj0XQjsHyci5YODoI0gjVhNRpmDZYjocgihBAX4AkGJYDeM0ZokdlRo4upKfOYZPE4ISXGqgdt4mHPcpg+CFKBNa6GF8SZUGQRQkidc8joIhKxR8hMQFQheoX6BmxiCCGlQ+ehlhaNYOFnsjSmXQQpsJwPRRYhhNQx2nC4sVHrH2h0MQdIv8mkJQv742zWHiSElAJPICD+1jadh1gPunQsk4sJyY2OUWDVALzSCSGkXkEdFhoON7dQYM3DdPpNMZ22RwghpcATCkmwvUP8DQ2ch5aBRrBUYMFFkKnMtQBFFiGE1CMQWOGw1j/w5HhurNPhcauAnBBSGjAHRSISaGllk+FlonMUXARp015TcOUlhJB6A5ubYNCqw6LRxZxYp8PjlgUyIaQ0IE05GlWBhWcKrCUCkwu1aUcfrFEKrBqDIosQQuoMyyK5UXticXMzO2p0kUhYESxuXggpDdpkuEH8TXQzXRaoE7VrsGBywTmq9qDIIoSQesLr1TosLxsOz02xIMWU7STIAnJCSoNGsIzAam4RbzjCQ56lggiWXSeqtaKco2oSrsCEEFIvIE3QbGz8sbh4aZE8OzghzmT0hLgAowueEBOybDx+nwSamyXQYgQWe2AtnekI1jjqRHEIxHYStQpFFiGE1AmowwrEY/pMZsc6IZ6UfCJBgUVICdAeWE3ogdXEHljLRE0uRkfV6IIRrNqGIosQQuoAnCJrHVa0wR4hM4FNS35qSvKTrMMipBSgB1agtVX8cfbAWi4QWFkjsFiDVR/wbiCEkBpHGw43NOopMpkdNbqYrsMyPxNClgHSk0MhCaD+Coc7Hm4plwxSBDMZyY6MWAKL1AW8IwghpJYxGxtscPxNzWbPwyLzWTGbmGImrVbtsEQmhCwDrf8Mq8CCkyAjWMvAFli5MTuCReoG3hWEEFKrYKMTQcPhOOsg5gICK4tNzJgUUil7kBCyJBA5j0Ql0NSsTqZ4TZYIBJaZk1RgTU7ag6Re4J1BCCE1Chy8/I0x9qKZBy0kHxu3jC4IIUsHAssIK39rq3gjtGhfFrbA0hqsqSl9TeoLiixCCKlBtOFwA4wu2HB4LtToYnLSbGImuYkhZBl4fD7xx2LibzECCw6mnHeWzmECC3WinJvqE4osQgipNcxmRxsON7Lh8Fyo0UUyKbnJCRpdELIMILB88bj4m5vZA2u5TAuskWEKrDrHc+Pq9qs94r3Ufk0IIcQpeDwasYJFMlICPYGgniAf2uTwJHluigU1uUBjz2Imo0ILkS2M6bMZ5waHkLnB/ANjHbSI4KHOMjHzTR4Ca6Dfmn9IPXMvRRYhhFQDCCSIqOmfzeYF4gkbGo8KqaA+c1NTXooFS2yp6EqnLSGG1zmMZ58UYeZZfzrsNSF1jZmXMCehNQQFVgmAwEomJDs4SIHlDiiyCCGkrEBIYXNy2LP4/RqR8vgQpTIPf0C8cAfEe8Q5QFhBfOWnRRfE2PTPefN+QR9FCC48F/BsPwipZSCwQiHxQ2A1oAcW56blgHmkMDUl2bFRtpBwDxRZhBBSEqZFlHmgfkF/xvO0kMLPiFLhNd4jtQ2EFGq+NO3QbJryiIDZaYjmIUZwIUqG39F6MDxTfJFaAAIrHBZ/kxFYERrrLBcczsB8Jzc+pj8T10CRRQghiwaCSgWUeaBmClGoaUHls0XWtJiioHIXh6Ja5qFiC+IrZ71G9Ovw9ET7PUIcg5mvELnyx+IqtMgyMHMB6kHV3XRinPe6+6DIIoSQOTGbDk3lg5iyI1FeRKa8vkNRK33GaS9PfMlcQFSZx1OeNfKVk0LWCC815EA6otmMMepFKo2Z01B7hQgWHQSXibl/cR/nxseNyJqwDlyI26DIIoSQQ9iRKa2XQp2UPkNQQUB5rQgWhBSjU6SUHF7PZQswbNAKSD+EKyIeEGAUXqRMYJ5Ti/bGmBWZJ8sC9yvSA/MTbB/hYiiyCCEuxe8TbyBkhJTt5geLdCOsgAop6wfrmZBqMC2qcCpuHgUVWxl9Rp8dLaCn8CLLBPOe3wgsX8wILETmybIomPsyOzQkhWSC96e7ocgihNQpiDr5EH2yUvoQlRL0mQoE9KGntRRRpJaB8DIbOjQ0LcB+HiIsl1NBdmhzx00emQO1aG9q0hoszoez4EUGw2HZC+aemjk6ZR2EZIeHpZAwAou4HYosQkgNgLqocFhPXA+l8AVhex7Q9/BaRRSwU/5QvB1a2SWB9g7x+vy6KOamJs0COKT9kA5HeyUhKgCHOKRumZ+tWhnzSKWkcGTPJEIciqYamuu7kD0szXBaeOE9PPM6JkZQYc5Ek2GvmSsPRe/rHSOYtAehWTu0D6HfMinSGjSYFuG9w9PBzc9IoQy0t1vrjQG9rtL791n30mEU0inJ9PdLIZm01g7cezgEwSOTtvrwod6SuAWKLEKIc1BxZBde+5tb9GeksGCRC3Z163igrV38GGtttQu0g1pLgPElYRZKLI650VEppMwiaBbE7Oiw9jTJm8Uy09MjefQ3GRkyzwk9odRc+8SUFOAaxRNL4mTM9a31XfaGzxJd5mEfIlgHC9gsUni5BiMcfOGwmVvjVg+sOgXrifb5MuuFr8GsJXHzbH4OYg0x4xBO+Pfjc8B6o33Bmo3oXKKrItaRdG+vdbhhBBWaDmOtyI2NqvjK4jE6IrmJcatn1siIZe0+Nmb+N089+CN1AUUWIaRKYKGPNkigo0NCXV0SWrNGgiu6JNjZKaHOlRJcuVL8bW0SRCQqgkWvuiet2JBOL4jZ/j5dOJF3n8HPZrHMDAxIpq9HU0WwyBLiWAoFS3RBbE03WdafLWdDTYVitKs+8fnMvBu1IljT0f96AJE5I46QuRDE+rFihQQ7zKOr2zx3iK+lRdcSrTs7PFJVYTSdcMiIL6wZBw9IxvyMg7zMQL9kjEBDhCzd2yM5s46QmociixBSOZCKEVq1SqJHHS3RbUdJZP0GXRBxoghxhdNFnD7WDIiCmc0qeqBg0cTimRkclPTevZJ8Yqek9uzS00yNGBDiVJBGaEe29PGUyFfGun4pumqe6UwBRG7qwaIdtbZ+I57CZh2JbNoskY2bVFj5W9sk0NpadUG1UHCogQwJPbTr61XBldq9WxLbH5HEo49KcvcTmoJIag6KLEJIefFGotJwzLESP+NMiZ96uoospGb4m5vEG22oiUVwMeiCOTWlKSGIdqUPHJCpBx6QifvukfS+fbqBJcTRIMUQ0SyIL9QrGpF1uKOhXsMUXTWFGlwgba7GLdqnhVX0qGPMenKaRLZukwDWE6SOo7asHtYTHN6l05rCnhsd0RTEyT/dI+N33mGe79UURFITUGQRQkoPmvZG1m+Utpe8RJqfd45GrCCo1LyizkTVnGCzOr1BRbG0WSzHb79Fxm+5WRKPP27/EiE1AK5lCCscIiDSBXMNFPKnkjw4cDiYjyFCVGDV6PyLeqnIlq3S8txzJHb66ZahkRnTiFydm3bowV3G3G9JGGv0ytiNf5TBX14jUw89RBdDZ1NjIstMDuzhQByBvdnQ015i3Zt+v4S6u6X9ggul9UXnS8Oxx9dXzn8JweY08fh2GfzFz2X81pslj8JnXFN4kNJiNmC6sdRm0vYYeTqLvf4O+10VXcmEmsBotAvphYDXdNWBgx4iPUgTrDnMfRtobpWWF7xA2s5/iUQ2b7HfILqGPPqw9P/ohzJ8/bWaZsi0XsdROyILDjDtF1wkGz/yMfFGo/YoIdUBZgcHr7xCDnzp8/aIC8BmFSeG2LCqqAqYhbtBC4wbth0tzc9/gTQ/89laX0UWBhZFGGaM3fRHGf3D7yW1b5/WdzEyUDpCq9fIqre8XZqe+Swe0s2CFuP39Ul+atIemR1cs0hX0lrDw65TGGdkh0ckZ8YL+ZzkJycktXevZAf69TAK/zvUd0mheCjlsKBj5mfz+zSLKTEwggiFtDbJG47YgzWAGnM0qBFS8zOepZkQSDF3VQbEIsC9hXts5He/lYGf/EgSjz2qaYZcQxwBRRYhS6HuRRYE1WGNfPURsPqKqGU6FkGz8DUcd5w0nfVMaTz5ZDWtIEsHzoUTd90po0ZwJbY/qieTOK0ky4MiywEUiyq60j0H9ZrODgxovWJubFwyvT2SnzCCbN9efQ+/py6eE+PaOoHpUEvACBJ1EDRz8lLtyCuO+Tvj7xvdtk3iZk1pftaz9QCPLBBzj+HwY+zmG2Xo2l/K5AP3S3r/fnNPpexfIFWAIouQpVB3IguRqWkx5fdbD23YaP3sNY/pk1E4ODWecJI0nnSyNB53vPaoIiUCm1GzqZx6+CEZu+UmLXJOoeklT/mXDEVWbaARMrRF6Osz82u/EWQHrOcD+yV98KAeOmTNIzfOSO9c4BrX3k+waEe9ktMx6wp6WDUcfYw0PfvZEj/9LE07J0tExda4TNx7r4z8+joZNaIrtXuX3l+k4lBkEbIUal5kIVKFyJR5YCHW7vcqqKzu90duRvE+IldNZz9Dmp/9XIls2WIEV42ckNYgSAFB2mDyscdk/I7bZez22yS9bw9rAJcARVYNYzaMqPFCBAwiC2ILDp2JnY9rtDe5cwcPIA4D8znMLfyNjfqz08GhHSJXTWZNgfMsbNhJacBagbYiE3ffKUO/MmLrDzdo1JhUlHt9l8ejl5nt1jH2gGNBAX1061HS8vwX1MTkQeobpLFM3HO3pnfVBIhUYQFGCknMLMLxJrMQm+eGRrVYR/d/FVsQWIfnvpufA23t0vqCc6Xz1X8hzc95noTXrFHRRcoHat+Q5hPs6tJ+YtGtW/W7QLNKbioXB671+GmnS3jtWtZ11Br2YVCgpdXMO2s12hE76WRpOu0MaX7Wc7QGFCIaQizv8ggX0rjhIIj5HQdmTgaHHaGubjWzWPHKV0nTWc9gamCJwRqC9T68br3ETj5FGo46WlNvU/v3ixQY1aoQvRRZhCwBx4ssbNJhb2tEFDaZgeZm8xzXSdcXjuj9pJEriC/zuzOBTX7sxJOl+/I3StuLXyohs0n1RSL6Z5PKcEhsda6UhuNOkOhRR2lRc6bnoP0bZD4osuoIcz/oYZERErgnIps3S/yUU6X1hS/SGh5817nRYa3xQhTMLWA+97e2aNqd06O1WJeQZr7ydZdL23kv1oOkmkhrrFEw58FZEm1UGk818+Cq1ZI5sF+yw8P2b5AyQpFFyFJwosiCaNJIlRFUiD4F0BeloUEXtUOCCpvMBYgkOFJ1XvZqWf3Od0lkw0bd6M8mxkj50YXSCFyc2seMYAi0tUlq1261zSZzQ5FVv+ghhJnf/E3Nuolsed7zpeOSS6Vh6zbJJ5OS2rPb/s36xWP+/ZjvYUbk9Dka61HLOS+UNe/7gDRs2WatTVxXKgLENw5bG445VhqPP15yI8NWVIu1WuWEIouQpVBVkWUWJRVMEFVm440UkUBrm/hbWjUX3xs0C9cCxdRTML+PjvmxU06VtWYRxOmw3mtcBB0DNiTYTEU3bzWPzZIdG5Pc8DCLmueAIsslYJ7CYUQ0qhvJ9pdcIM3Peq55o6in9oVsrr7SpMy/FfXpwfYO8Rmx4mSwVkU2bpTuN71Vuv7qdZpNwXWlOuC7CHWvkvjpZxiRG5bUnj1SMPsZUhYosghZChUVWRBUPr/m3HsjYc259zW3SKClRX/GRIlTquWcCOKeCq9eI+0vu0i63/AmsyFdZ79DnAgWymBXtzQcfSz2kGqJjWuSPB2KLHdizWmrpfk5z5WmM8/WaDzSCLUXWI0fSuD+x4EaDtfU+dWp4FAoFpf4mWdK9xvfbJ7PXtY6RUqE+Q4wL6K+ERFg9GfMjo4wqlV6KLIIWQplFVnoTWUWTkSksDHww47XLFQ+FDU3GlGFmirzfkkWKyyCZrFuPPEk6XjFK6Xt3PM19YY4HwgGRDFRp+VvbtL0D7hJuakWZSFQZLkYM7/hcEpP7s84Uxq2HWXmzoDO33qv1Br496D+KmaZF2GdcCoer0/NLFrPeYF0/vlfSnTzFt5/DgPXUnj9emk45jgpTE2q+yBMZEjJoMgiZCmUXGRh8QwZURWJGNHToGIKxd2w4/VFopbzHxaoUgiracyf5W9pUUv2zle+Sh2I1NiC1BSIZIbXb1AXKfTYygz0SzGbtd8lFFkEQGwhQh8/7Qzt9QeBkh0clGKt1DXagtFnrmesC44WWD4jsFatkvYLXmYeF2rUnfeeM0GWDMQwnDsBGhijGTgpCRRZhCyFUogs9KRCVEr7mmDhhKhC1Aqiylzvy00BnA+YJ3RcdIl0vPwVukl3dNoJmRNsuILt7RLesB6vJKOd/tPWmy6HIoscAkIlEjH3yUZ1TkU7Cti+oyedUiiiwZD1s5PA3xsGHy0tlsGFkx0EzT2G1PPOP/tzresNtHeUdR0jywfzomZFbNqih7zp/fskh/RBslwosghZCksSWWahwbULm13tZ9LUrHn1iB6py9J0j6oKLEjBlV3S9brXS/uLL1BnKi6CtQ82XnCWjKxbL55gSBdK9EVxOxRZ5Eh0UxmLaQpbwzHHqHEEWiNomjacVHHghKxbJzT/hsAyfyc4vsIwwunXMPpfdb32cmk55xw9QCS1Aa4rlA4gIwKGKskdj2vvObIsKLIIWQoLFllYIM21iwUdkSN/c4vWWGmkyizklRJVhzD/veiWrbLm3e/TRp441SX1g8djL5Rr1+k8mdq9SwrJpP2uO6HIIjNi5l3cI8GOFRI96hhN0cb9gppGdW3FAZgZ07kav1+NRsfm7wi3RPwd8feo6FqxBEKrVkn3m99q9mnnWH9fUlPgsBWRUggtPE89eD8P6pYHRRYhS2FWkYVF0OezUjvM5g7CKmCEFU6GVFTh/elHhUGkA/dQ9xveIrGTT7ZOa0n9oQtlVOtO/K1tknz8cb1e3QpFFpkT+36Jbt1m7pnNkty10zrBN+OYM1HzqLWxTU3ijUTNBeUTD8xlpg1myjSXI50cDeQ108DJ6YHA65HQmnXS9fo3qsBy/N+XzM5h6weu+0mzzylkmHq+RCiyCFkKT4qsu3RBwTWJxdjfZBZF9KtqatbTUF1syrQILwYP7p9tR8vKv3iNNrNlh/36B3MmXNWQQqipHy4VWhRZZCHg0Cm0arXEjj9BWyJkBge0XmsaHJBh3kTNrLbOmM5I8Hn1PczzpZrpsZ5oOrkRdk6/ZrHGoWF956v/Qlqe8zyuLXUCUlQhtJCmOvnAA4xoLQ2KLEKWAlzcJh+4X6YeeVgNK7CRDeCkswQ9q0oN6nMazL3TedmfSfzMszTKRtyBCq1VEFotktj+qCsXSoosslAwb+OQLHr0MVLMZNR9cMZ7BoLKzPOYS3Hqj9QqbyiiAgMRqEPX2WLbKZg/V7MgzFqCKILjBZb5+4VWr5GOS16uezN8FqR+UKG1foPWkU/ef58UUu5OPV8CFFmELAVMNonHtktq5w6rUBoRKweCeyW6ZYusuOxV0nTWM/TvStwF5k5Y9OJa0O7+LhNaFFlkURihg7rGyIZN5p7xS+bAgbmjwBBc5rqCwML8CqGBZxy4aaRruvb28BTDmcB/F7VgzXAQjDr/WjV/P9SKtbzwXGk79zz9e5P6w2NEf3BFpx46JJ/YyT5ai6OXKw4hS8IsrB5z+zh4IdQ0jvUbpPPPXyNNZz+TAsvFIPUIjabbX3aR+Ftb7VFCyExA4ARWdEirEQ9tL7vQ/LzCfmcBIBplxBXaceC+C7S2aV0VrMz9La06ruLL/N4hzH9PXWchsJBm7nSBZf7u/lhc4medLW0vfqkEjNgi9QmuxVB3tx7Utp73Yq0vJwuHIouQOiXYuVLz5LEQMkXQ5WBT1NYqrS94oWYDcKEkZG48Xp/Ooe1GRHSaDSaE0qIx992htEIjrpBSjj8HESAIExVVKsbMeGurdRB2uPhyKJohse0oPbQJreyyR0m9gmgsDmzRUxPNvJ2aueNEKLIIqUPQB2vla14rTSxEJja6aezqlrbzXsyFkpAFoBGt9g5pOedcab/oYiOCltnywvx5mj4I0dXYKIGWFktsNTXreK0AQ52Vf/6XEtm02dHZHKR04KAgdtzxRmhdKuH1G+1RMh+8OwipM7Bgw0ZXIxYUWOQwsJELb9go7RdeLJGtW82A80/NCakq5h5BK46Oi14unUZYlDSVD5EuCK8aEiqoz1lxySuk8eRTaurvTZaJuVZ98SZpfuazpPWF56rDJpkf3iGE1BFIA4ufcYZ0XPxyNhomM4J6kIajjpb28y/QDROFFiHzAwfZ9gsu1BpXt6Zfo09Y7NTTpfX8l9gjxG0EzJrRcellEjvz7JqKvlYLiixC6gRvMCSNxxwn7UZgYSIkZDbQdiD+zGdK87Oeo6KLEDI/qJuC0UPz884RT8Bd943HH5AG1GFdfAlNlFwMopeoz1r56r+Q4MqV9iiZDYosQuoATQNbt1Zazztfopu3Mo2DzAtcz1pf/GJpPOkUe4QQMicej24sOy68WBpPOME986wX/+5OtWvHBpu4G4hspIt2XPwKRrPmgTsxQmods/CjDit+5jMkfsaZPGUkCwLGF+F1G7SRaKiLDmGELAS9b4zQaHvJBeZ5vT1a3/iijRI7+TSJnXoanWqJEmzvkPaXXSzx08+0R8hMUGQRUuNAVDUcf7xGsdgQkiwGrc86+lhpe+nL1JaZEDIPMABoaJDYiSdLy/NfqKYY9QwiFaHVa6Tp7LNZw0mexFwH4Q3ow/mX4mukCcZsUGQRUst4vRqFaD33fF0ICVksvnhcm1XHTjvdHiGEzAmyB1pbJf6MZ0jDccfXdcoUNtDx08+QhuNPZGoYeQq+cFiNUNovusQeIUdCkUVIDeM3C2DT2c9SW1XWYZGlgOsGAr3tRefrxpEQMj+aNrhmrd43we5V9mh9geh2eP06aTz5ZPHH4/YoITYejwQ7OqT1+efwkHcWuCsjpFYxm2OE62HXzhQOshw8waBEt26T5mc/l6fVhCwQbygs0WOOk9ZzXqAphPWGL9qg6cSNxx5njxDyVKbXDvTmZIP7p0ORRUiNEupcqf1KAitW2COELA1EswLtHdJ05tkS2bTZHiWEzAf6ZzU989kS3rjJHqkPtBZrzWqJn3GWeMPsuUhmRteOjhVquhVet84eJdNQZBFSg6DRcMMJJ0rLc55rjxCyPOAaFtm0SRpPPEmbWhNC5udQuu1LLhBPHTnvYQ5oOPo4aTjmWHuEkJmB+VZ029FmT3KSeHzMhDgciixCag3kQa/olGYjsLgZJiUDxfwtrVrkHtmw0awOTEElZCH4zDwcMxvMpjPOtkdqHHuNaXneOWwJQuZFo55d3RI/7XQ2KD4CiixCagws6I3HHa/d9z1e5kCT0gFLdwisxpNOFl9Doz1KCJmPYGentF3wMk2dqnU0MrF1q0S2bbNHCJkbX2ODxE44UaKbNxuNTmkxDT8JQmoJj8cs4h0SP+ts8bEnFik1Gs1q0WhWaGWXviaEzA+c+CIbNmhtSq2DRrMtzz1HvOydRxaIxx+QYFe3RI8+Tnwx9s2ahiKLkBrCF4lKdOtREt6wkQsgKQtYLEPdqyR61NFsUEzIIkAz+PjpZ9Z0c1a1bTfrS+z0M+wRQhaGppufdXZdRHNLBUUWITUEGsc2Hn8C855JWQm0tWvNH08kCVk409GsprOfYV7UZhTY39Ss5je04yaLRc2TNm6U6LZtelhHKLIIqRl0Alu/QSKbt4g3ELRHCSk9KGQOr1svTWeZzSIhZEFYdtYd0nDCCbXZN8vr0doyRCMIWQoBRLPOOEt8Edr+A4osQmoELNroYcTO6qQSaOrTaWeIN0IHS0IWCpqz4oAiuu0oe6R28EXMGrN5i26UCVkKyH6A7b+vhTXjgCKLkBoAqRv+1naJbNkq/njcHiWkfGjkdMsWaTzpJHuEEDIfXtQ0dnUbsbJVBVct4W9qksYTTqy5v3e5KGQyktqzW8ZuuUkGr/mp9H37m7L/i5+TfZ/5pD73f/+7MnTdL2Xyvnsl098vxVzO/l+6F+xVQt3dmnJKjOi8PB69zCOeY+zXjgXWwij4b3n+C1iMTapOIZmUqYcelKkHH7BHyos3FJbGY4+T1vNeLH7WyZAK4QmaubZQkPHbb9PnWsQfb9L+LeG1azWdi5CyorVYHilMTkryiZ2SHxuzxh2Obo7Xr5e2885Xd0G3OosW83nJ9PbI8K+ul77vfVv6f/B9GfrFz2X419fJyO9+I6M3/E7GbvqjjN96i4zfebs+j912q0zccbskd+4wf0BRgm3t7t6nmnk2Nzqin5XL6eWKQ4jTMYudryEq4Q3rJbiy0x4kpPz40C9n0yYt5ieELAz0mQqbeya8apU94nz077x6jfjjza4UWMVCQcVV33e+JY+/929kz799VPq+/S0Zu/EPknj0YckcPCg5I5ino1V4zg4NSWrvHpm89x4Zuv5aOXjll2Tn331Qdnzo/TJ64x/199yIr7FRGo46WvzN5lpyORRZhDgcLaZu75CGY09g82FSWTxe8be0ScMxx9sDhJD5QFQo0NYq4U2basah0xttkMjGTeI3G2S3UUinZeLuu+SJf/4H2fMfH9foVKavT4rZrP0bC8CItLxGL3fI4DU/kZ0ffJ/s/vePGSE2aP+Ce7AMYFZw3TAwXZCQJVDJdEE4vUW3bJUVF79c62TIPJjFDqeSmt6Wz2v6x5EPjOv7xaL5HxTFzIHmg3Znesx8YL7FZzZpNiGFTNoerR3cmi6IeyA/Oqopa8nHt8vEnXfI+G23yMQ9d8vEvdYDc1hmoF9yQ0OSHRyQorkFsNYeujfMQ+8K3huLx3x2uZFRSTz6iOQnJuxB5xJsb5fWF75Iwhs32iPuIJ+YktE/3iB7Pv6vMnbzjVJIpaxrfzmY+yc3PiaJhx/Umq7o1m0SaG11133k9Zj5Z8R8pjfZA66k13Pj6varPeK91B5wLHBWa7/gItn4kY+JN0q3K1JdkCaAote+7/6fPVI+0Lek/eJLpPvyN9kj5CmYBREnkbnxccmaDWNyx+OaG5/ctUsyfb36OBw1EWlukWDnSgmtWqXmDg3bjpbgyi5Nc/BGIvo7xAJpMYntj8rBr3xZT3trDbhxrnrL26Xpmc9y1feaGxuVgZ/+WHq+cqU9sjCQNoZ7Aalj4Y2b1NE0snadeGMx8Zm1V+8P1rbNCw4mcN/s/9ynZerhh5a/cS8jOLxrPOkU6br8jZrm5QrM94HI0/CvrpPdH/+oZPr77DdKC3pbtp33Yln15repcZVb5iBc/6M33iCPvP6v3GwIci8jWYQsgUpGstB4uP3CSyTUXTv5/RWhWJD81KQkHn9MRm74nfR/9zvS9/3vyOgffq+bG4grvP80IMqSCUuQPbFTT/iHf/87mbjrDkuQmcUBtUja54Mn+OYjMJ+BeWQHB/Vk1smbxZlwaySrkE7pfYB6kcWADVFudNSqNbnvT3rKP/L735j57gFJHzygc58UiroxR5Sd98jM4ForZrI6P6X37bWigw4FB9exE06U+Bln6kGTG4DAGvzlz2X3v/+rZPv77dHSU0ynJX1gv/73Ihs2ir+l1ZpT6xxc//nxCRm77RbJDQ/bo66jlyKLkCVQMZFlJuPwug3S+co/Y6rgNDiBTCUl8eijMnzdL6X/+9+Tkd/8SouWi5mM/UuLJG82lmYhmHr0EbXjTff06EYSCyJO9l2NvSHAxnvKbNoLU1P6ulagyFqcyHoaOJQwG8WMuScw343fcZskdjyutSbFbMaK/mJuoth6OoW85Ab6NWUQduBOBW1B4meeJbGTTrGEc52TTyZk9Kab5MAXPiup3bvt0fKB+yd94IDeS43HHa8RYTeQN2vF1IMPWq6L7oTugoQ4GR+KkTdv1pQDYtaoQkEyZnMHe92DV3xB+q7+nhYalwzz52cHBmT419fLfrMA937za2aj+ogUjQhzMzjYgq0z6jZQl4WCcH04+HSelAEccExOyuQ9d6vz2v7PfUYOXnWFjN91pxQWYxLgEtDIO7R2vXhCDj6o8Xq1HAPmSm44UEKkNvn449L/3W9J4rHt9mj5gaX50LW/0IdbgOlLdMsW+5U7ocgixMFoc8hj6dADkOONtIsBI6x6v/l1jSQiFaMsQMz19crgL34uB79ypYzdeov+992K1++XYOcK3Ygh4of6BX309moEUWvfBgckOzwkWbOZyE2MS25qUvKplEYX3fzZ1Ss4nUdR/9C1v9S6owNf/JymxpEnQQZOcMUKncedGumbrlHFww1A7Iz87rcyfs89la0VKhYl03NQBn70A5l64H57sL7BIXF43Xr7lTuhyCLEwehJ0NEuKUSeC7NAoYZq8Kc/0mJ+RJsqEUUpJBIyce+9anIyfset7hULXq94G2MSWr1arZ6xwdZHKil58xkhLQQOaugjg7RCuNXlBgcla8RX2ogwiOPU/n2SNpsMuNlljVCDEMsnk5pGxYhY7YKIZmr3Lhn6xTWy/zOflJHf/sZsXhnVUoywQjplqKvLsdmUSA9EP6NAS/2LLKT5T95/n9YY5kcqXycEUTf16MPS+51v2SP1Da6tQEeHhLq77RH3QZFFiEPRFK3OTgmuYANidXP84dX60ML7RQJxBGtedSAcMpt/81hoelMxk1Z3MKRHTd53j2sFAepu4NSHRXNGjBDWh/l88BnhM9eH2Vjow4gpfHcqxkZHVCjjZDdtxBc26cm9u20RNmBFw4xwK2SNAMOfSRwP7q/JB+6XA1d8Qfqv/r4Kb2LuG7g1wrTI48ztFiJZgaZmdbGtd2CrPnbrzTL1yMNVm1fyk1MyftttMvLHP9gj9QtqYH3RRgm0zbJmuICasXDHAh879TRZcdmrxBusXQMARCYajz/BXHTt9og7wAKc2rdX0vv22SO1TX5yQlPIxm4pXw8IpG90XPJyWflXr3dVwf6RYFM+dN21sv9zn7JHbOxNvS6Vh2/uzcZcoyNGREFIaUPJwxZUnK75YnFN4VnM54p5J3bKqdL95rdq0063FfpDMKGAf89//buM/O43T/lMy4r5nHHggO9Nn83DGwiah22AhO8BvzP9fRzxvdDCfXEW7svGfP5Y31rPO186LrrEOiQ64jtxE3AyRXra3k/8V2XT0xYIoljtF14sXa8164y/fk3FsCYgirXv0/8jozf83h6tDlh/Vrz8Uln/Tx95ch6rQzRy99CDsve//1NGbvitPeoq7q0ZkVUvoCndpo/9h8TPOtsecQFmM4b6jf6rv6cPsjBCq1brhr7lOc8zO3x3iiw4pEHM7vv0Jyyb3WkhhUfOCKmMEVKIlkBIZXPmUpsnyoSTtYZG3VgsZXHD4tj6ovNk5Wte54r0miOBhfeBz39WDUeweawqEFbTwss84/v0+Mxr8zO+ZxVd5jm8dp2seus7KLIqDA6J2l96gXRcepkEWtvsUfeBjeb4nbfLE//w99Y85STMPYKasY5L/0w6L3uVPVifID156Bc/l32f/B8zj+23R6sDxGzjiSfJug/+nTSd/Ux7tP7AOp3eu1cOXPlF6f3fr9ujruJepgsS4kTM4gfHJ+2N5dJTYGxOYP068MPvaz+r7OCA1vOoyYJ5ZAeHNP0PluJqrjCfwDKfozcUFn8stuTTw7xZqNHBfvz2W+0Rd4FGtOENG9TyueogioloJWrCNA10SA9zNOXQCPIMasJGhvU7OzKaScqPuqldf602e3Vz6iBEP1Lx0ErAaWg6V2OjBOtdBJt7HxkRyZ2Pm7nhqc3pqwHcanFgNXHP3XXtyomDLqTLOvHarxQUWYQ4ECzMgfZ2CbS2qjhwIziJR5rNyB/+oI52MFiA2YKaTyxhwwxh5W9sUMev5QCxN2w2jzBycBu+cERCa9Zq2rNjgfjKpDXSpuJrbMzRPYrqGQjfwZ/9VJuFuxmUOwQ6VtivHIRugiPia6rvFiE4sIMLKvogOiJlU0XfuLpxagP8egXXVyQsgbY28bi0zydFFiEOxBcxm9lVa8RTw/WHywGRh+SuXTJ6041mozxmjy4dpImhZw2c8ZabejkdYRu+7lp7xD1goQx1dVtF8jUl/hnFqgpmM4nNLdK0ph55yB50H2p+sdKBBkZmLkR0GmnQ9QwO5rIjI5LZX900wcPBwQ9S6eq9Ua/H69Noqb/Or7HZoMgixIHgdBG2p8uNutQqcIFCSl7isUetyNVyMGIAzUDR0LlUNTm5iQmZuPsuSexwV18gpBchVRDXZj0XyZPSgfs3uWunDP7kx2rv70aQmYCNptOw0rkizkj/LSPFghFZQ0OS3LPHHqk+OEhEymDqiZ3OiK6VC6+Vpu+LRO0Bd0GRRYgDQcQguHKlFvW7DT11HBiUyfvvl+zgoD26dPAZBpZodDErBatZ8cSdd9kD7gHGIZFNm83mzJ1RVrJ44C4Ll7Gxm2+0R9yFHpqtdGavIByc1Lt7bTGd0bUEzrOOASmDiYSk9u2T3PCQPVh/4GATmQ+BtlZ7xF1QZBHiNMyC52tsEH9Lq6vc0KZBg9vE49sl+cTjuhAtBz1BjsU1XafUwMYfKVCoHXMT3oYGiWw2IsulOfZkCeBQYmhQJu69R9MH3YamK0cdeJLvxQa4SYIru+yBOgRixoj8rAOFDEQfzHqydR3h9Vgi3lxrboQiixCHgRTBYPsK14bX0bA2+cQTkt5/wB5ZGuqcZQQB3ATLgRZT9/TI1IMP2iPuANcn+iChVxUhC6WYTqu7G3oVwdrZTUBk+cpw0EMWBsQMTHCcBoyc0vv3S3ag3x6pQ8w67G1s0HR9N0KRRYjDQHqbv61NC5LdhlWgPCypXTs1UrRkUIdlF3SXKxUGG8Xs0IA6RNV1Tv0RqPNla5vrGqqT5aH39tCQ3i9uq83CXB5ctcp+5Rw8fp946lz8FYtFTVeFK6zTQF1WdtBqN1GvBw9Yf5FJ4nNiJLcCUGQR4jCsGqIWV9a8aHSof0CSe/faI0sAxdzBoPgbl94Pa0HYizfSn5yYilJOsGCG1q/Tz5qQhZJHlHrHDkm7sP2B48A8GQpLsMWdtTJOoZjN6aFDMZ2yR0g9QZFFiMNAGlago10tx90GRFYWDWX3Lt0FyuODk5cRWIgEllkEoJFkpq9PMgeXl9pYa2hd1rr1QolFFgNO7jMD5n4x9wwaspLqAndB8fvtV6QaIGUw03uwfht2I22/Ma61f26EIosQh6H5+9HG8kZhHIqVPjGw9NQOpCY0RFUEVMIxSzeNvb2SOuAykaV9f7rKLmJJnQETgslJSe3brW0QCHE7xZxZ80ZH1ZyjHtHa6HDIlYfGgCKLEAeB3kOodfE311qz1xKADdiU2YAdPKj1G4vGTn/xNxiBWqnTWfydE1NqgJFzYGF1uYApS2jNGvsVIQunmMlIprdPCvV6cj8LaMqK1hyksiBah8yG0Lr19oizQFNiGF/A8InUHxRZhDgIq0g0JN6gC+uxCgXJjYxIasfj9sjiQC0bGn6Ww659LvQkcmhI8hPuEVlWc9WYRg4JWQzWpnJAewS5CfTKCnc5z/zCDaiZVJlcZpdNsWjWkDwWQHuA1BNcIQlxEn6f+JqaVCy4DrPY5CYnJL2U1DvtQ9NQlc8Nm8ZMf68KRDfhj8el4Zhj7VfEcaDFXMFs4BAVNveWU9CU4OEhqwbFQX8vV+LxaKSnrkEkC0Y9q1ar2HIaME9KH9hv1r5Je4TUExRZhFQTnGKZTRBSaDDZ4uHxeMUTdF89Fj6LQiIhmcFF9gzBIhqJSMBs+quxYYBZBwQWak3cBKKtgVbauDuVYrEg+WRCsqMjengBZ79CNuMI0YX5Ljc0KAUXtT4w/2opFpaQBl1OfF51Yq13EHkPrlghkU2b7BFCKgNFFiEVBmlxhUxaT3JzE+OSM5ugzPCQZAYG9GdEs1zrLIgN4SIjQt5QSJ2LsJBWBfN9oi4Lf3e4DboFuDeGHNj7h9jgAMeImfzYmKbnZQf6JDs4qH3oUD+IaxZR2Gr054HQ00jWUmovaxRNk3RatHs60lnnYG0Ida2ShqOcGXlHynl+bNwV34XboMgipMyoqEqntLkuNjiWe57Z7AzhMSQ5swlCBAdd6VGT5Y83ia+hwf5fuwdY2Wb7FxfFsnLt42p4UU2wmcX3Wki5p3jZchhcab8iTgd1HyiuzxuBhXQ9zD3WHGQeoyNaI1WpptpIGcS856ZNpW6knVa3ibXJBdFErKtoi9Jw9NGOrM0qZqwU2krdf6RyUGQRUmqwcKVSelqsYqqvzzpJNpMomg4irQzv64R6ZNoOjC9CML6o/xSOI0FqU2rfwpuUqtU9+mE5QJBqyqD5viG23AKcMH3xuP2K1BSIchmho6JrYkLnJYitTH+fefSryyfmsXKBVEZE81nsTyqC1mU1SGTrNglvZMogqRwUWYQsF9QSpdNmkz2mKX/pnoO6WclBVE2Mq3jQtBx1EJq9FsLj90mgpVWCHSvsEXehdRpIl1wIEKPRqBpdVKIf1nxoFK6nx1WOafjso5u22K9ITWMEFUQXIkveUNByN3XAfUVIqUDkveGooyV26mkVd6Al7oWzKCGLBafAiFxMTqiYSu3bK+mDBzRqhXQQbLjxvtY6zCGqno5HXfJQk+VGIFDSe/fYr+bA49FInx9RrGrVYR0BNqc5I6bdlO4BcetxYcS17sD9FApJYEWnhFevEX9TsyNd2AhZFuY6Rw/Kluc+XxqOPc4Rh3Ok/uFVRshc4ITXbKARiVJRNdAvqf37JGXEAOqHkPo3Y9rfUjCTvq+hUfyxJnvAXaBmYSENfa0eTY1WY88quAnOhNaYDA25qiYL4LtwbP8ZMieInKP2M9jZKcGubvGj/YFD7qd6A+tEcudO+xWpFjDrgcBqesazJLCyS+cvUmZwKJ0vuMrk5nAosgg5HDttxjKqmFQ3qHRfr/axUFE1MaHvlwOcrGERcKPpBSgkkvo5z4XWYUUbtCeW004iIcbzk1NVcWurFt4IzC+67FfE8SD6CDfOeJMEO4y46lih9xNP9ctNUdcWp1HE4aCLou8g0NoqrS94ocROOFEC7R2OOqyrR7AuZkfgnrzI1ix1AmdW4m70lCWvRhQqqg4VgPfrpJAbG5Wiea8kkar58HjFFwy6M1/cfL6IFiLVclbMQugJhVWEOiVN8HA0mmWuH1xPbkF7uvE02NngvkH019w3geYWFVb+tjY90KlW3RWuGzX3Mc9uoJAxc4PT7Nsx56ZT6izpJjyBoEQ2bZHm550jwRWdEjRCC/eGx+vONH1SXiiyiPuAsDIbYjhoYYE5ZGM8aPWpUitjRKsqIawOQyNZjY3ia3KfYxtELurb5sKya49p/YgTQdqo23r/aC2P2aQQBwJxZYQMHCBRixIwwsrf3KTiphpNuw9H72XUfqEG1QXg8Chj1henMW3r7zbQV7HlOc+TpjPPtup7W1rFZ9YWHhiRUkORRdwBTu2yGXX7g0EFXACzw8NPWqrDrKLa6RzY9yCdx4Unamjimx8fs189HdSPqNEFTt8dmtph9cEZNf8YF0WyECGJsybLiSBa5DP3S6ClxTqp98PMwiH3DuY5FzkYFhExmucQqTpYaYxuMuxRzBoS7Fop7RddJNFjj9PMCH9T3GpqH6i8mQ/Wv0xvryR2PC6Jx7bX1+Px7ZLas0dLLdyI58bV7Vd7xHup/ZqUmejWbbLpY/8h8bPOtkdcgBE4iFL0X/09fVQMCCuzeBSSCcknkoJmv4gyaB56haNUCwET/IrLXiXr/u4fxOsydy9cHwevvEIOfOnz9shhmI2Ypjq1tWu0z6n4W1ul46JLZMUrX6V/XzeQ2r1Ldv/7v8rQL35ujziP8IaNsv7vPiyt557nqpNqpDoP/PTH0vOVK+0R5xBev17WvOu9EjvpFFcIrcSjj8iuf/lHdaF1Emji3nT2M2T1O9/lyog0UtQn7r5T9n/6E5Lu6bFKB5JJyaJRtvZxq8w+AfOSv9k6DBFvndWHmc8QzZb1QDsxZQ+6ADOveQPBexnJInUHJsrcxMSThhVwfTM3N1IAF2+rXkG0diLgOoEFtJ7JbApnYjqdw+nF+VicMwcOWqmmbgFGJOGo/YKQBWA2kdpwHbWnLhBYAJv5zNCg/cpJmA2wGyNZNlhbGk88SVa+7nLxt7ZZxkpG6ATbWq2awQqBzx/lCqk9uyW1a1d9PXbv1sMF1wgsZBBEzTW0YqUEu7qYLkjqAJyU2PUwmb4+Se/fJ9mBfiOsEpoK4VhR9TTq7ARrMeA7nKGWCTUlgeZm8dZC7QYCpNVOOa0wvmhUgmvW2K8ImR9vIGg2sR3ii7hDnGNziYivE2s1MV/lpyYkOzxkj7gPXIexU06X9pe+TOczHHZ6wxE1xdDIkkPT04nDQOQqHJZgR7u5duDaGjGXjrmW7LcJqS3s07c8QvvDw5LuOagpZzCzqEl3N9yM5qaEvawbwUYkvWe3/cpC633QD8sseLWx0OFU2E5HJYTMCA5O/B0dZr5zh8g6ZHrhxHkBh1vpjKbTuxaztgTa26XtJS+V9oteroYsGIM5C1LU/fG4K+ukyQJRcYXa11ZLmDfGnhKhp8gitYMd7VBhNT5mmVf09lo260jRquXNLURWMKSiwo2gWSEcBg+BiUt7hhmRVSMpRZryODrqKndBQhYL5jk0QEZKjRsoTCUkjUhW0YFRbrNmwk037zIb9yPBGhPsXCltL32ZtJ7/YvE320JLDTGaxQdDDBfVc5IFgD1bOKyZNsEVHZZpygzXCEUWcT5mIYD7Tg59rIaH1R0QPUdgaFF04sJFFo1GJadztjF5hcKWm2ANLWxW0XTCmZspQpwA7m3UvHR1uyOSBREzNSmpAwcceQao6YJm3kV/SLeDeqxQd7e0X3ixtL3ofLP+WAeeKrTicTWmQBQW1zBxMRDfiMYb8R1obdNny7l1ZiiyiHOBuEqhWeKoZAcGJDc8JPnJCVGXQCeuWMsAubs42XVrzyE0xcz0WhbHMP7AAsdO/ITUF6jHCnWulNCKTlf0yFLDi94e7b/oTJVl1thkUtdW/F3djiW0Vkn7xS+XtpdeaK1B9rg63BqhpX0auS65E1wHZm+i4gq14jDvmedaoMgizsMWV5nBQRVXeSOyCqmkVWtVZ+LqEPbpCNLjXEm+IHkjtLQhcySip9y1kiboasx35LM3IoTMhzcSlvCGDRI0G1k3APMl9AhCXZZTsaJZCauROrFSB1d2ScfLL5XOV/2FFb3CuNlgY13SyIU9RlyC2Z+pqUVbm9bNo//gQvcn3MVUEnsjDTVMng4MA1Bvle7vk0xfr0at0ECYKYHuANE8j5nIfPGmmj3l1iL3ASdaNZcHOHOFVq22XxEyB16PFoWH163TOgY3kE9CZO1+ar2pwyhmc5IdGjSPAXuEqNBasUJWvPIyWfvu96m9+/S4Oqq2d4jXJe6Ybsfj94m/pUUC6jbZaPYmft3LLxSKrAqiJyFQwAEWUD4FRK7M5hRRKxhZFKam6jtqNRu4b12YhYA0FdTaIa9Z0zFquE+Y1mW5pR8IgDDmoRFZADC8QGPohqOPNS/qf+th9T4alNS+vY7unQdH1PzklHlM2iNEMXObPxaX5uedI6vf/tcSXrdeDwowjpTBQFsbhVY9Y+YorR/tXGntS1AfvghxNQ1FVqWwb0xfKGx+5MeuFApmg53WfPXpyJVro1bmhsaEjhvabRSNyMpNjGmus+Y4E0LqC7P++WIxaTjqaI1kuQFEsZI7d6pJk5NRMWjW4NywQ+vGqgxqsZqf9RzpfvPbpPH4E8UTtNKj0awY6WPaZmQJm2/iUMx3iVo8PyzZEbE0e/blwN1+hdAoltlAoveC60HkChvr8XEjrvolaxYhTPSux+c1N7QLc71xAGEWLjg4EULqD6x7kQ0bJX7mWXM6cdUNSH2fmJDE49tVwDga1GSNj0l2sJ/mF7OADKT46WdI9xvfLM3Pfa4eGABc13Ad9MXQS4vb6VpHnSSNaA62tkkA/dFKkKXBq6ISQBkHg0Zk1UpT1TJRNP+fz2uBLTrMZ0eGLadA4m6QgWEEpqvvDULqGKTbND3r2RLZtMkeqW80OtTfL5mD+zVS73SKmaxkzN83PzFuj5AjQSZSw7HHS9drXi/tF1ykvd70gNAILZ/ZkKPekE2LaxR8j0ZIQzCj/g4/l2o/QpFVAaCGfeGwhpddCwSWEVRoHAxxBdtYpiYQgAWeqSqE1CfYsDSedLK0POf5Zi10Rz0yDJySO3dIat9+e8TZIG0/0wOrefbLmgvs5cJr10rnq14tXa97o4qupwqt2mmeTyw0GtnUZNmyx4xQLnGNsefG1e1Xm0vkUvs1KTW4AaeLJENhCa/fIGvf+35pPPEk+xdcgNk8p80E3vPVK+XglV9Sy1jyVHCNtLzgXNn8X590XdpcdnBA+r77HRn44fdr/toItLdL23kv1gL/ZWPuG0R+cRLu1M8FBf2TD9wnPV//qj3iPPBdrP+7D0vruedpOohbwIHWwE9/LD1fudIeqTz4vBuOO0HWvOs9EtnokihWIS/pffuk7zv/J8PXX1sbc5oRBpENm2TV2/9a4qedbg+SuYBZV2L7ozJ07S9k9I9/0ChgIZeV/NiY5CYmeGjodLA3D0dUWKkhXYnFlVIs3kuRVW5gaNDQqJsvfKmuFVkHD8iBq66Qnqu+bA+Sw0G9XtuLXypbP/15vU7cRD2JLHUkQtS6BJv5Qi6ndYsFs2CjvYEjgRA0QivvYEdFiqwqiSzduG+UVW95h8RPNxt3l5zww6594u67pOdrV0ni8cfsUecDy3L0hcI6hH5QZH5wCJYZ6JPRP9wggz/9iaQP7Nf5MAehNT5m/xZxHGYugqEJep6pm3G59lxGZDGuWWagjr0NZsJy2caZLAVzjfA6qW2MSEQDUoij5Tyyo6PquJk5eEDTa+HA6ciH2cg7WWCRKgGBtX6DdL/hzRI79VTXCCwcOiAVPrHz8ZoSWAApjqm9e3k/LwLs70Iru6XjklfI2r/9gLnWT7dre5p1A0+cB9ID0VA4AOdAlPCUec9FkVVmVGQt0wKSkPqHqRWHQHQonVZ3MrpukloDm5jolq2y8jWvldhpp7sqeoj7NbFzhwz/8ueSHehXkyeM1UKEHodDySd2SG50TOcgsnDgjtt40imy7oMfkpV/8RoJrlwpgZYWrfXhwalD8Ho1QhvsWCH+eJP5WirzvVBklREVWNGG8uR6ElInFLM5FRTEApsy9IxD2hEhNYPZtPjMJgap8J1//hppesaztNbUTeSnJmXy7jtl7I47tC4n09+nD6SP5c39rIcmDhUwSH3LDg1ZzZN5uLNoYHgR7OzSa3/t+z8ksTPOlNDqNdr/kmYYVcTMS2puYYQVBFale3Hymy8nRlz5YAVJyDzgtNfX2GC/cheFbMbqlcZo1qEWB3gQUjNgg9neIW3nv0S6L3+jND/7ORXfzFSdYkENLwZ//jN10rXGinpYkhsZlmxfr7YuyU1OqmmCE6NbONxJPPao1hWRpYHrPn76mbL2vR+Qzlf/pTSeepr4W1sptKoBDn7M96FRxebmqgQ8+K2XC/PloqAO/bEImQ+c+OKUhbiY6Q3Z+FjtG4CQ6oJrKZPVFLCyYtY5bF6an/Uc6XrTW6Tzr16vttZuzN5Amt3ojX+QyQcfsEeeih6gGIGVHRq0xNboqBWtdlBkC3+/xKOPSI79spYFrv9Qd7esuPQyWfPOd0n7RZdIsKtL7xdSIRDkiMVU4PoaqmetT5FVJvCFeszGuVJ5n6TG8Zhb0c+0UtdiNlr5dFqyY6NM1SklXtTEmnk4ELAH3AHcKItmA5+fmLRHSgxOiONxbTC8+h3vklVvfbu0nvsiPTF2I7hnpx5+UHq++Y3571+Y4ySTepiSGRyUjBFd+WRCv7Nqo255fb3m3/KQPUKWDO6RhgaJnXyqdL/xLXqfNJ5wIstHKoCaWzQ3axN09USo4j6cIqtcGJHlc1k+OiFkaegpN4wujNAiy8TMvd5IVHsThlCAjh6FgfK7SDmNYrEg6NlUSjxGtAZXdqmb2oYP/5OsffffSvPzz5HQqtX6nlvJ9PZI/w9/IOn9++yRBWDEVjFjGdxkBwYsowwjvqottlCXNXb7bfYrslxQChA290fHK14pmz72H2qTj/5MpDwguAHnQB9q4RxgukORVSZwWuHBwk4IIXNg1WFNSgHWyQ5KHaopcKgF5yizuGJDA3GFQmfUR3h8ZqFlRsHSMZ8tNi2t550vGz76MTnqyq/K6re/U+tO0P9R+8y4mHwiIeP33CUjN/zWHlkkiDrmYHYzqSYZEFuFdPXSCJHCmNq5Q1K7nrBHyLJBVAumMCecKOv/3z/K1k991jXNuSsG1oBYzMz9XeqF4JQaOIqscmC+XK3FcsiX7AjMJONBShw3O+RIsJdwaw2S2UihCB7F8BBbZAFgDsF8ArMYNHrvWKEuXoiwIIVNUwPt33EzSFXXwz7zOT3tYdYnnKZPP3zRBvE1xiwHrhWd0nD8iXryvu5DH5ajr/q6HPvdH8j6v/9Hrb1S+2N8xlzfdN5K7d4lfd/5tuSGh+3BZWDXbaV7e600wioZZGQGB2T0pht56FNqzD0JIdB63otl25euko5L/8wyZOC9tCwwp+FzDLS1Oy4d03d5PHqZmYqPsV+TEoAvGacWWgtwxELvb26RprOfqX0U3AQKsBOPPipTjzxsXpjNJCfvp4BNTuzkU6TpzLPtEfeA09uha3+uheCuAgIrm5H82Djt2ucDB1dmXkXUBHMrGn0GWtvEbzYsOs/OsUmBKIifdrqE1651zWZGV518wQj3ggRaWiW69agnH9uOlvipp0rrC841881ZRjg9W9ovuFA6Ln65dP7Zq6XrdZdL+0su0LkoumWLNu502sbFEZj7F3PXwI9/KMO//ZUUSukIav5spA4XkgkVctPR2ErVeGM+KmSz0nTWWXq/kdKCeQhpzJiXIqtWa/N5NHanq+MiMfcDaq5QfwXx6sD5vZciqwyoyGpsnLEOwK0iC13kE9sfleTOHbopUnBC59YIxhFg04jNTuykU+wR94B6hJHf/lpPcN2EVYc1aTZn5t/NQ4enoaIKEZdIROdTiCXcJzq3mvGFLqhuFFm6+TCfW2TTZrPePOOpj7POltgppxrBtU0f+B04oUG0olCfLISipviO33Kz9H37W5Leu8ceLzFmfVS792kXQggtXMMVEFsqBCDQtx1lj5BSAsGM+y161NHSeNLJZr8YkrwRWtmREkRE3QD22WaOw5qAJsMOndt7XbLiVBZsDlgHMDO4Eay+Ba3Woo7TB3/1ixOrDWpH0MiQuAOkAOG0GP2waNduY+YGpKF5zcYDC6ffzA+o+UE9UADiCnn2jKgQB4AoT2LH4zLw859KYucOe7RMIOKdSevmG6YUOTQqz2TKfjCDyMrEfX9Sy3lSPjDnNRihtfod75S1H/p/0vbiC8Qfj9vvkpnAOuDHwVtLi6Pqr2aCIqvU6EmT2Qg4+EuvOviMjLDCKY6KrbZ2ywlmupaCkHoGqUBmk5YbH3+yaalbMfMkDhh8TU2aPhPsMILKzAfaPFJTAcOOXkCJ+8ChSLavT4avv07Gbrqpco6gEFuppDZuR3NjRNLKeUCDCFry8cdk4u677BFSNsy+BzVFree8UNb//T/Imne9VyNc5Ol4/AErowERrGDI8XtGrl6lBl84+h1RK8zPtNiKRjXvHwXsfrPZYmSL1DNWmuC45SDmRpAGiGgVRNXKLm3CjX4m/kYjqmDEgPufwoo4FNRejd1yiwz84GqN9lQcdSOd0obGSLVGz62yADE5OCAT996jvbNI+cHeB2nNK179l7L+w/8s7RderOnRxGD2iziQC7S1qsGRrhM1AFeyEqOOTl6feeZHu2DwmSG/FjeQ2WwFu7o1VUgjW4TUETh5RuPR3MSEnky7AiyOwaCe1KIWFRbrKqziTXrP4z7XNEDze4Q4GnPPIk1w/xc/J+m+HnuwOhRzVuuHzEC/pvQVc6U3TVDDqkcelqkHHrBHSNkx8yCi+KjRht372ve8X8IbNrp7T4k1JBKxSkyiDTWV3UAlUGpUMJiPlRuGpYH0IbPpglsMGlwGV6zQ023r8+RnSmoYpPuk01pXUdcCC/cq7mNEqNvbJbx6jVqsH1og/X5rkeQcSWoJc89OPbZd9vzHxyW54zHH3MPosYXU40xfn+QnJ0qaQog/C3buqM1Cw2VSOXDwFOpeJV2vf4Ns+8wXpOWF51qtgdw2b5q1QktLzPqBSFat/fspssqAFcniBmK5qElGY0yCXV0a3fLFY0+6ivHzJbWE2ZAVM7BrH9U0nLrB3Ic63wWCKqpQiIwUwPDaddoU8lBPJUJqGIiN1L490vetb8jYzTfaow7CPsDJDA1pVAupyKUSW0hNnHzwfpl69FEVdKSyYP6E++Dm//qErHv/32kTYxVbLsDj94k/FtfMJuz9ahGKrFKDzT9FQElRq9NwWIIoiO9cqTccTsQXY+NMSDXR02a4gpWrfqJSQFQhEhUKqajywVa9vV3TAEPm3oSRjdPdnghZDBrN6emRvu9/zzy+a486FLuZMWq18uNj2odv2RE3/Pt7e2T05j9Kuvfg8v88siRgCISoFsRW+0tfJqGubt0b1SsQl7q+NDfXTP3VTHAlLDUUV+XDfLZIJYS9aaCjQ/xwJYSF53TfHH72xIFgkwZxlZ9KmP1JjW1QbFGlDoANjZa1uu0IGlzRKcG2NrXSxX3JuY/UHeZ+RWRo4Kc/loHvfac2DkkQ1cpkrAa3w3AhnFKzneWAf3fioYdk6v77LPt4UhXQYzR26umy/v/9g6z+m/dI7PQztFaprsA+z/w70VNWMyFQr1vDUGSVEmxIvF6e4lYAfMY4MUfxvFo+m4e/tVVzd+lOSByD2fDA4jkHu+V8baTaYFFTURWLax683l/ar+pJa3U1rOA8R+oZCCwjVEZ+82vpv/o7kobDXi0dkhQKtgvhsOTMvwN9+Zb89zf/u0x/n4z87reS3rfXHiTVAPNucMVKWfHyV8ja939I2l92kR581cUhFwRWOGIJrMbGulhjuEqWGlzo9XCx1woQttgUGsGF3N3pE3bYwbPRsfPRE9fBQSlk6zDX32xM0LQU6TvF5Wxwyo1ZyPT+gfvfihUS7DT3DxoAt7Zq1BgHF+hHQgdA4hrMvQoziZHf/Vp6vnaVpHbvdu79Ow9wHcxNjFtiyzwvNaqF3n5TjzwiQ9f9smY/i7oBYiTaIPHTTteeWuve9wGJbtlqv1mj4N8UiepBHtr61MtaQ5FF6gezWZxObcIpCE7hUYQPweXFqYiDBRc2suH16+xXLqKQt/pFFevIDMIGqYH5VNKKYjlpU+JFpMoWVdOW6kZc4fQQKYHaqwrptxRVxKXkE1My+sffy/7PfloS2+vA8AEpy3YjY/TXWmrKHyzjx2+/VUZuvMEeIdUEjXnDa9bKij97tWz+xGek45JLtYF7zWH2bjA5w8EeUgXrad2hyCL1iblJNcJlNotIbwqt6FQbaTgVaoTL5zDBhb8vXdjqByOq4PaVHxvTDU5VQaQKzX/NAhbsXqXNLkPd3XoIoZbq5rrD/aCpGRRVxOUUMmkVErv/9V8kuXNHyVz6HIE2Qp/Q1D/YvS8aM6+l9u6Vvm/+rxXdI9XHzNk4WI6dcKJs+KePyNoP/r0EVqyw36wBbIGlBhdwEKyzNYgii7gGq44rqo1Qw2vW6EYTltOYoGAVyk0mKRVIrYFdO54rAkS6uX4RrfUEQ1Y9VXu7hFatksi69ZbzHyJVrKUiZFYKyYSM/PbXsvPvPijpgwft0foD7SQyg4OSGRiwolqLjLSn9uyWnq9fpSmIi/3fkjJh1oBAW5t0/eVfyZb/+pQ0nf1MO6rl3D2NWrTDyAz7sDo9ZOZqS9yJ2WgiLQqW07BCDXZ2HTLOQLhaN6sUXGQJoOYBdu35RMIeKTEQVDgUMIsSDgg0StXcrKeXODiAsArCfTPeZC2yvI4JmRsjFFCDNfTLX8juj33ECKwD9ht1DIwxzDyldu+oG0Wt1gIFE4TZxJ/ulb7v/p9kR4zQIo4B9bXNz36ObPjnj2gaIVLCnbiXwR7L1xhXx1pNTa9TKLIIMROQWoaaTSmiXAEYZ7S1ic9sXNUeHqf/dTwJkNKB1CLULSAlpyRgcYTgN9en9qWKWWkV6BWHazXYuVJTYbU/FVL//AFHLqiEOBYIrLFRGb7ul7L/C5/VdDjXYP7tqImFUMqNjGiK84LSm83/Lm9E6fitN8vwr6/XWi/iHHAA13D0sbL23e+VNe98tzQcf6L9jjPwBoJaA4xMonrfW1FklRo9CWL4vGaB4DITFAwAkF5l2cPDxrpNJwT25CKzohuWtOSMwFqag5e5pnx+FfwanWpqVvE0baMebO+wGnKbMX9j7Enxz2uRkCWhjYb7+2Twmp/Jwa98WWuwrDXcXWizdDgQQmxNR7XmAb+TPnBAhq67VsZu+qPaxRMHYdYFmH51XHqZrPvg30v7yy7Wg7qqgv2VWbf8Lc1WbbwL1i6KrFJiJmdM2sV8/TmluRIzAah5RihsOd9g04sNb0eHRrvQmwKWo+payI2uu8G9n81IfnxM6x0WBK6tSMSKThkBr/bp5gH7dIgpjPmbmtQpU2upcJ2xnoqQkqACq69PBn70AzlwxRcl8dj2JR6O1Ak4JEomJTs6omIL7SfmQ4XWvr0y9ItrZPyO26xIGHEUsENvesYztafWqre8TcsjqsK0wGpuUft5txxUc8UuNS48BXMNtrGAiq6GBiO6kF7YIaGVXbYFdrOeFDG10H1YaYJTMzf8hFjHdWMEOUQTrhUsdFoLiPRUI9wRtUKUFA22D9UEQlBRvBNSeiCwenuk79vflINXfVlSe3fXvk17qTCfA9KdswP9WrM1X/sJmPskHn9M67PG77xd50LiLLCehNetk67XXi5rP/B30nD8CfY7FQICCyUZWOfMGucm8yWKrFKDCamw8AJSUsPYossTDFrphTDRQI2MWsV3Wyc2ZkLhRrm+waYCrmQ5I7KwIcFpHQST1k0ZAY7rAb1MQitXWrbpSPWDmELaKa4fI8rp+EdI5cB9mhsdkamHH5bs2CjX6yMxnwcOjDJDQ9pXq5ifW4BCoCa2b9eUy/E7brdHiZPAGoO08/YLXibr//4fpelZz6nMgTAEllnvrJYh9dNkeKFwZS8DmjLISdt9YPIwD0xcOK1BYz1EK8Lr1luiC432EOmCOQE21XhQgNU8SHuAsILAVrv07lUShBkFjFPM963WtPa1we+bkOqDORrGAFv+55Oy+d/+SxqPP0HvYd6fR5DPq8GFOhAmk3NHqcyeJ/XEE7Lvk/8tQ7+8RvuNEecBV2WkD2766L9JxyWv0APBsoG10RZYen+5EIqsUmMmGs3rLjJkTiwgqFR0NbdoamF49WptiqwOhrG4Tnpw2/F4eDvWJGYhUeE8LaYIIc7H3KvINuh4+aWy7QtXyqq3vkOiW7ZqnzlyGGZPA4GVGxq00gfnSavM9PVKzze+LgM/+qHkJ8btUeIksCeJbN4s6z70/6Tr9W9Ul9qSMy2wULuOJsMuhbu6EoMIFkRWscBIFpkFM8GhrstvBFYQDWNtwcVaLkIIqSyYd8Pr18vqt79TNuJ0/6KLq2cO4FTMvga9sWDzjjRLjVKZsRkx46jnGrzmpzLws5/ozzx0diYQV6ve/DZZ+74PSMOxx5VuD4JsHpRQIIIVcvehBUVWqYHIwkkPJxWyUDQSQodCQgipFjh1bzrrbFn/of8nq9/1HomfeZb2pyNPggNktKjIDg1ps/XZ0gfVdfDgARn86U+k/0c/kHRvj+6NiPOAYVf7RZfIuvd/SOLPeOayr3k0yocjLtxx3RzBmoYiq9TYIquYo/kFIYQQUjN4vdqeY8XLX6mpVCtf/ReMah2J2dfAFCM3Miz5sbHZrd6NAMsM9MvwdddK3/99S1K7di2s0TGpOChnaDr7mbL2b94jbS968ZL7aUFgIYLlizdZtciEIqssTAstiixCCCGkpkBUK3bSKbLqbe+U1e98lzQcdQwdQA8HQiuTkez4mORGR2fvj2VEFdwJh3/7Gzn4tStlavuj9hvEUaB+ygirxlNOlVVvfbt0XHixljMsCp9PvBRYT4OzRhlQS+eFNiQlhBBCiKNACjfqZTtecZms/4d/ltgZZ7Fu9kjgPjg5ITkjpAqJxKzZO4XElIzdcrM6D9Li3bl4gyFpOO44Wf2Od6ohDKJSCwLmXg0N2geLAuupUGSVAyOyiigMZWicEEIIqU08Hm3D0PSsZ8mmj/27tF1woVU/S57ECCu4D2bgPjg1NavQ0l5aj21XoTX4859atevEcXi8MILZKKve9g7puPiS+Wu0ILCiDeqe7OW98TQossoECj8ZzSKEEEJqG2w8o1u3yYYP/5N0v+HNahZAnkoxm5WsEVrZ0RGrjc1MGAGW7j2oFu893/iaZAYHZzXPINUltGq1rP7rd0vnZa+e/XqfFlitrTx8mAWKrHIBkZVK2i8IIYQQUsuo5fVb3qY9tbAJZW/Dp6Lug2Njkh0Znv2QuWBbvP/sx9L7ja9KcueO2c0zSFUJrV4ta9/3fnPNv0MCHSvsURsIrEbYtFNgzQVniDKhdVnp9OwnOoQQQgipHTwe8be1y4pX/pmsevtfS/Soo2iIcSRm75OfnFT3wUIyOXPZRLGohhnDv/mV9Hz9KzJx5x3qWEicB3pddbz8FdL5qj83136bNYg+WLG4NvOmwJobzg5lBOHzQjJhvyKEEEJILQNRFexYIe0vvVC6Ln+TRLcaocUeh08FQiuR0NRB1GvNlhIIs4zx22+Xnq99RYZ+eY0aZBCHYa5tRHBXvOKV+giu6LT6YMXjrMFaABRZZQRRrPzklNDKnRBCCKkTzMYTaVKtLzpfut74Jglv3KRj5DDMvkf7acHifcrsg2YRWsVsRhI7HpPeb39LDlx5haT377ffIU4Brprhdetl5V/8lXS++i8kvGYtXQQXCEVWOcEkYyYQRrMIIYSQOgJCq6VFWl94nqz889csvq+QG8AeKJ2yIloTE/p6RowAyw4MyPC1v5B9n/mkTNxzj/0GcQpICwyvWyftF14ssdPOEA9F1oKgyCoz6jKYoAEGIYQQUldAaLW1Scelr5TuN7+V0axZQOlEzgit7OioPTIzSC2cuOsO2ffp/5bBa37KOi2H4fH5JbJ5i3T++V9IZMNGXu8LgCKr3BRggJHiZEEIIYTUITAHWHHpZbLy1X8hnuA8fYVcipZPjFvOg3PZtuP3Unv2SM/Xvyq93/yGZHoO0ubdQaAmMbJpi3S97g1PdxwkT4MiqwIUszlt0seJghBCCKk/YOkOa/e2c8+dv4GrS4GAUov3oaG5bduLRckODsjAj3+gdVpTDz9Em3cH4Q0GpeH4E6TzlX+mNu5kdiiyKkCxWNCeWeybRQghhNQnQSO0Vr7uDRI75TRtYExmANk9iSnJwxBjHuGEw+nRP/xe9n/mkzLym18Z4TVov0OqDdwFm5/3fGl94YvUGIPMDEVWJVADjKzmG6NJMSGEEELqCziuNRx1jHS+4pUSXr/eHiVHoqmDEFpj8wutYi4nice2y8GrrpDe73xLEtu36/+eVJ9AW7u0nv9iiR59jD1CjoQiq1IUClI0IiufTGhkixBCCCF1hMcjvnhc4mc9Q1rPPU/8sZj9BjkSFVpTEFpj86cCIn1waEjdBw9+5QoZvfGPrHN3AGrtvnqttJ13vjYmJk+HIquCYCLRfhHZnD1CCCGEkHoBxgChVd3S/rILJX7mM5hKNQdaozU1qb205o1OGaEFUTZx913Sc9WXpO9732b6oAPwRqPScPxJEj/jTHuEAHgw5FIpiqyKYqcNSp6RLEIIIaQe8fgDEt6wUVrOfZEEu1bZo2RGjLhCjVZufNwemBukD6b27ZP+731H9n/+05La9YTurUh1wCFCsLNTRVZo9Rp71MVgn2/EFQ4Asr29FFnVgRMCIYrXJ95I1DxzKiKE1A/+eJO0PPd5+vBGIvYomQlNHYS9+/CwebGwQ2hEtUZu+L3s+ug/y+hNN0oBNe8UW1XBGw5L9KijpfH4EzSS60ogrnJZyZnrONPfJ/lJNN8uUGQRQqoHrGADra3i9fvtEUIIqQ/QR6jtpRdIeM1ardcis6NCy2xMEdFacLsb83vJnTtk739+XA586fOS2rt7/vouUnIgrGCCgWhWeP0G113ruF7ht5AbGtKDAkRbp6HIIoQQQuoM3bROTEhmYEAf2psIp/2kYmg/oaOPlfYLLjQ/s3fWfGBzimsW6YMQUAsFwmzo+mtl32c/I2M33SjZkRGNIpDK4YtEJLrtaI1oecx17woQvcpkrN5vg4MaXT0ymuq7PB69zCMe+i9WCLW8fMG5rstdxcWHhoJ4kKfjb26W+OmnS9CFHdQxOY3e8DvJT07aI4SUDqRtxU87XcJr17omlQUnq+rG9uvrpP+73zYbzz/K2C03yfjdd8nE3XfK2K23POUBM4Hkzp2S2P6IJJ94QnJmk5obHdFNrzcQFA8jzUvGFwlrT6Gphx6U9MED9iiZDVy7OCCAHb5edwuMiuBazfb3SXLH41JMJcXf0qafu2vT1yqN+Z5Qn1VIpyXx6KN1v57jGkXvW7hj4mBglkOBXoqsCkORRZE1E+ia3njc8WYjuM4ecQ8UWaScuFFkYcFHXcDgz34i/d//rjX3PviAiqnx2255+uP2W2Xizjtk9OYbZezmm1R4jf7xBhm98QYj0P4gE/fcLak9uyU3OaH1Rb6GBvs/ROYFtu7RBiMYfDLyxz+o0QOZG00XLBTFMy20For53+XMhje1a5dk9u/X6EqoexWFVoWAMEb0Nr1vr6TN57+YaGTNoLVXOSkgtRXtB4yonKMWkCKr0lBkUWTNBE7cYqecKuF17mtgSZFFyokrRZZZ9GGLPXHXnSqu5sVshpBKWEgkJD8xLtmBfsn0HJTU7t2S2P6oTD1gBJr5s0b/cIMMX3+dCjPUHnhDIe0LRZvyudHNZygsyR07tG6IzAM2rQWIUY9u2hd132ITnE5JuueATJlrF6mDEbOu+qJR+xdI2UA0y4jifColk/ffJ8VMxn6jTtBrK23E1ahGrw6vvZqFXsp7QgghhMyMvWnNDg8ZgbBHJu+7Vwau+Yns+sg/yoOvvlQefs2rpe87/2c5w5GZMZvP0JrV0nHJy1WYkvnRmsKpSX0s2AjjMLABTu/fJwNXf1d2/fOHZfzO2+13SDlBlLvhmGMltKq+WhcUzTyYTyZ1HkTQYKHXJEUWIYQQQhZODr2NEpIdGNBarx0ffJ/86UXPlz3/8XFJ7nhMinB4QzSCHALiKrJ5szQcf4I9QuYDQgnpf0WkZC0FO/Iw+dCDsu9T/6Ops7DYrss0Nqfg8UhwxQppetZz9Od6wDIRGpdsf7/2wFrM3EaRRQghhJClYzYdmb5etdF+5PLXyt5P/bcaPRSSiUVtSOoZj9cn4bXrpfWF52mtEVkYEOyofcFGd8kYUZU+cEB6v/l12f+ZT8nkgw+wr1YZ8cXiWmMOQ6+aBiI9k5Hs6IgaCRU1hXVxUGQRQgghZNkg8pDc9YQRW1+QHR94r/R97zuS2r/PftflqAFGVKJbt0pk0yZ7kMwLNrqppOV2uZwIlPlzYPU+csPvZN9nPikDP/2RpA7st98kpQQ1dMHOLomfero9UntoemAqJbmRYcmb62apgpwiixBCCCElAwXviBbs+/QnZN8n/1vGb7/NCDA2iUX/oPCGjRI78RQ63i0CiKt8ImFFRpcJImPJxx+T3v/9hvRc9WUZv/UWKaC/ESkpgZYWiZ9+pnhqsAZR0wMnJyULgWWuu6UKLMC7nBBCSN2hC6W65Y1JITOnzS4pB+bzhnMobORRqzV07bVWrZaLgQtjsL1dosccI/7WNnuULITp+qxCtjSOdTDUGL3xD7L/i5+Vvu9+m66PJQatHlCDGFm/wR6pDXCdwTlQI6dz27MvCIosQkhVQX2Cr7lF02kIWQ564q0OUMOS6e+X7NCg5MbGzeZ+XqtdUiZgPDDxp3tk/xc+I/0/vNqqhXExsHKPrN/oyp6Iy8JsdhEhzU9Olcy4Ahvq1N690v/jH8jBK74oozfdaBkbkJKA9hmNxx5vv3I+lpAfV4v2Upn3UGQRQqoKRJY/Fjc/2AOELAazEGIjj9SOTE+PZPv7dJFEahEWSuTWm1+yfpdUBXwPice2S++3viHDv/2VbmbcijdsRNamTXrK7/EtotEu0ei09nNbqtvgTJj5AZGLsdtulQNf+Iz0fudbatNNlg966EWPOqomjF4wR8HcIj9qBNZyTFaOgCKLEAeAwt5MX5/9yoUwikUWA4SVWRThOpY6eFDSBw9IbmRE+znpAlmCE0hSWhCFgOPgwSu/pLbvrgUGGLGYRLdsk0AbUwYXhbmvi9mM5M16WWobdgh/OBD2f/c7su9Tn5DUrl2cR5aJx++TYGenRDY62OgFa4kR7ZnBAasnW4m/c4osQhxAMV9gmkKtYzZPKPLFBsofj7vjYf6tyL0vO2ZDpafYGrEasYTV/n2aDlg0woqbodoAG9nEY49J39XfM8+PlnyjXCv4og1GZG2VQEeHPUIWClKCsVbCWrsc4MBz9A+/l8f/9t3S971vW7U5JYxsuAqvT/zNLRJe59DUWPtayhqBVa40Zs+Nq9uv9oj3Uvs1KTPRrdtk08f+Q+JnnW2PuACzAcr090m/WVjxIE/H39IqK17xSln5mtfaI+4htXeP7P/cZ2T8ztvMpFe7m2V0uo+derrEzzxTG4+6Ad00b98uAz/+oT1SQlRY5aSAxrdGXFlpQkZQLXJjDje39X/3YWk99zzx+N2RnoVNYXL3Lu1b1f/db9ujzgHious1r5Ou17+x9nvpLAWzJiJ9cvfHPqIb+mVZk7sQGIig3sfX1FRWl0YcIGFOX/HySyV61NE6x5PFgdTtwV9cIz1fudJRacJ6aJdMSBY92CDYy3NQdy9FVoWhyKLImgmKrNoXWf7WVum46BJZ8cpXuWYxxmny2E1/lF3/8o/2yDIw8wQ2m1iIkQpYzBhhZcQVFkDdhC5xEaTIcp7Iwia54ZhjZZ35Xpqf+Wyzm3VfUk2mt0cOXHmF9H3nW1oTRBaBx+xaw2EJmHUTz+UEtvsRM4e0vuh8aX72cyTYscKV1+tSgcPr2M03ysGvfFlrZp2ACizz98qOG4FVyvq+p3MvrxRCCCFVYzr9B41CUXCujoDmOTcK84qkLohlOmUkVUJF4K5dMvTza6zopAvxNjRIdPNmbVBMFgkOZLJZvXbKHQXEIU/i8cek77v/J73f+l9Nc3VSRMbp4GAr0NYuoc6V9kh1wXenPbDgIFhegaVQZBFCqoq6CzY3i4f2gjWHByfKkagEFtvzR4VVUuursgP9mhOvnfXRB8cILm5i6h8UmY/fdYe6urkRXySiNu7ecAVqGusQjUakzCa5zCJLMf+N7MCADP/6Vxp9hHELUzwXhoqs9nYJruyyR6oHrhkILLVoL1NN35FQZBFCqooXIises1+RWgMOUgvZKGJToj2shoYk3dOjKcSwy81PJTTtkJsWl1Esaqpw/9XfV2HtNg5tPru7y1pXVLeY60fTiit4IIMansl779GeWn3f+l+ryTmZE1zbSJ9HNAvGUNXCElh2k+EKXjO8swlxAIXElKT27bFfuRFORfWICqtEQu1x0wf2ax1KbnzMSvPJ5c0+CcKKqYBuBeIK6VeT9/3JHnETHvE2NFpNiSmylkY+Z9m5VzCdGJv11P596jy47xP/LdnBQfsdMhuardLaKv7G6hymTvfAQpP6Sh/m8c4mxCnUsOkDcTvm2sVGxyxgmvM+NaWRKtisQ1jlx8d1odPfqeCGiDgfbH7Gb7/NldeFLxKV8Jq1agRCFg82zEWkDFbh2kHa2cgNv5d9n/6EJB97jJH4OfD4AxKAyGqK2yOVQwWWZkxMVuU6ocgihBCydApWM8esEVLp/n4rYtXXq5sQ1laR+UB9xPg9d+pGyG14oxEJIZJFkbU0zKYZc0yhSvMM0gfH77hdDn7tSpm4915Xpr0uBG8wKMEVneqiXDHMtYE0dDSsL1RJYAGKLEJIdfF6xRMKCmx5Se2BuoTs0IDkhgY17RXpNIQsmIJlKjD10AP2gHvwhsISWrlSPF6KrKWCCFK5GhMvBBj4jN91p/R+7SoZu/1WCq0ZQKQWPc3QqL8i6zwEVjarGRR62FfFKCNFFiGkqngDQQk0t1Bk1SBF/B9Ok/NMlSFLAxug3MiIJB5/3B5xD5YpQKMaYJAlUixIMVs9kQXgVDe1/REZuPp7mvrKCP4RwIU2GJJAU7P2HSsrWI+eIrCqe+hHkUWIA8BGVZ3XzGbDdfjgTlfehpKEEIdi5r7cxLik9+01m9OsPegevLBy715lvyKLReuyHCBqVGg9+oj20xq96UZ7lEzjCfjF19wivlB513pkUqDnIpwEqy2wAEUWIU7APn1B81VCCHETlvvXoLp/uQ30ywquWm2/IosGa2fOGSnKuI4Tj22Xvm99Q0Z++xt7lAC0LPDH41ZpQJmA2MZBdX5iXMW3E6DIIoQQQkjV0NPn0VHJ9vfbIy7C61VjALIMjNByCtjoJ3fukN5vfZ1C6zC0LKCtrWzNtw8JLESwHHQ9eG5c3X61R7yX2q9JmYlu3SabPvYfEj/rbHvEBZgLHnbO/Vd/Tx/k6aCPROyUU2XNu98nIZeljuD0DwXDu/7pw45I+1gq6APScdElsuKVr9Lmi26gkM3I2K23yBN//0FJ7dltjzqL8IaNsv7vPiyt556np6luAKIluXuXHPjS56X/u9+2R52LNxSS2GlnyNr3vl/iZ5xpj7oDpEoO/PBqeeIf/t4eKS8Nx50gWz/zeYlu2WqP1BcwwZi87145eOUVktj+qD1aeTDXRDZvka7Xvt7s957h+obTcKCdvOduOXDFFyS56wl7tDRoJBw27UZgOUlwG+5lJIsQJ2DmBU0XTCTsAfegjQpjcfMDjS8IcSPFfE5yw0OS6Tloj5Cy4TXzLOfasoMDw9TuXTL485+p2HNK+lq1QLTW39YmnlJGsoygcoJN+1xQZBHiBIoFrcdyY68YQojLwSETDAxcuBH1+gPiwyFTBdCmsOa/5XVJRLfawM598v77ZOiXP5dMT48jRUDFMMIeB6regLn2SiHyIbCyzrBpnwuKLEJI9aHDICGuBRukfDKhrmBuA+6ClUoR16yB5mbXpM06AQiAsVtvluHf/VpTQ90MrjsfzC+W23zbCCxk/qjAmqq+TfuswLre/pEQQqoGajKC7R32K0KIq8CmKZXSZtaE1BXm2s4ND8voDb+XyXvu0eiLW1GR1dBoFvzlSQ89lJmasiJYDm1+j/RI9P+kyCLEAWifrERCckOD9oi7QFGwxwgtQggh5cGLSFZLq3gCdDOsJBAC6AM39JvrJTswYI+SpYDPEuIKUUFHRrAQvQqHxY+eYE1NFFmEOAUUysKBhxBCCCk1GkmIxZguWAWwtk+hPuuan9oj7kNt3FuNyF/i9WcJrAnJjQw704kYAisUkUBLqzoMe5guSAhxAlqXsKq2ret9Yfwb1oiHPW8IIYsANSq+aNR+VWZgOkBzwaoAF7zRm/4o43fcZo+4C73OI9El2dlriiAiWMNGYDnR5AKCKhiSQHOT7mf0PjNQZJHKACeYTFbzkTWH1rwmh4GaBBRyutDCHWDypfFFDYLbuGCuXYc6OxFSC0BghdautV+Reibd2yOD1/xM3YTJwlCBhXKK8TEtrXAcEFiaItgs3iMOSyiySEXQMO/EmPZByQ4Naj4tJhkIC27QDKjJMp9HbnTEHnAXHq9PfKHydIInZQSHJ3CFGx6yBwhZIh6zHcGDkDqmmMlI4rHtMvz739gjZC6wPyxMTZm90ajuFx0HBJYRVoG2dk0RPBLOaKRi4PwBebQI+WYHByU90CcZCC5z8+TMGHpKoCklo1zuwxsOSbCz035VgyASmc+bJ/cdGGgE1iyChCwZr9dsVCLij1emX5TTwOl8MVeBIn47LXHZFtpkWeTGRmXyT/dK1qWHqgtFBRYOn8fHjTh1Xr067iN/LKY1WHATnAmKLFI9zKJSQAjYTDSIblmPIZ14VHRlMrr4uAazQUdIHCLUdeAEOxCwX9QA2BTZ6Z3Is88OD5trdkKt6D1eFjwQshhwz6CmcaaTYDdQSKck29drvyof3mBAAq0t2i+rXoHZgMfnV+HuVBDNSu7YaYTWn+wR8jSwxqbTKrAKThRYdhNxuAjOJrAARRZxBnkjuMwNpYWNiGwNG7E1OCDZ/j4VXdjMqptMPYuuQkEnFaRfuQ3kMwdXrrRfORBz3RWyGW18mB0ZlsxAv2T6+63UV/Nac8WN6PI3xsyGkafEhCwOj0ZZPAF3ut4VsznJTUzYr8qILUA8dZyWaUUX4ka0O7fGF1kP2aEBSTz8ILMAZgHrqQqsVNJx+z5thRA3AguNledxSqTIIs4DJxiwM0+ldALKjYwYwdWvBaPpadGF1ELWctUNVpNC55xiI4IK0Q/xhL4m6Z6DkunttUTV6KgeBuD0GQuBXodYBOAm5DNTKp5dAu7RTF+f/YqQpYGDCWxYAq3t9gghSwQ9F4MBFe1OBmlwyT27JbV3jz1CpsG6ah2uGwHqJIGF+qtQSHzogbUAgQUosojzUdGV1xC7FkAOD6uBRmrfXrPx7dGNsPaXqnHRpadbiJIMurUhsU8nsGqgxixm0csaAaVi3ix+6YMHNH1VTVog6iGoUDcx06SPmhKkCiJNxUUUczhtHLNfEbJEvNbm5UhnLkLqFTgtZw6afQxF1lPAWoyorpZNOE1gBYOaHuhvbDT7lYXJJ4osUpvg5sPGOJGwTDQO7Jfk/n1mg9z7ZKTLvK9RhulIQy2Av6ZLI3Re9JnqKmOvLFwD5rPFdYF6P9T9ISUV1w668UO4I00VdYKHolMLvG4w+QY7VogP/THchH5EC/uMCJkNTfEym5fAihX2iMvgPeQ+zBqDOl5kSLixRGAmVGCNj6sxiKOwI1iHHAQXka1CkUXqB6QYJuxI18EDkjKiC6lM2RHbSMMILzXTML+Hm9lpC5s66aRTRiC6s3+Gx+cVT7hEkSyIKXzPiH6a7x1pp7gOUEuFCBWEFer9NOc7nV5+6qnH/N2ROuAyC2pE9/KMZJFlgiLyQGurBM0mxm0UsxmzqaTLXEkxm2B1UFzEZrgaYH1CNg6Mk9wO1mA1/poYNy8ctDcz15GvsVGCKzqX1MuTIovUL4hYoIfP2Khksbk2k1nGbKzVNt6MaUja3NS6ycaGfLkb7eUCkZVIutNd0IBIVrCr2361CMyErDV8MA3BJD05IVl858NDRlQNGKHdqw+4WP7/9u4Dzq6rOhv+ur1M70XVkiX3BjYugMENXCDU0EMSOgRSyAspb77kTQgtJKGYYmMDCSGA7QDuGDeKKaHZxmCrF0vTNL3eXr79rHOurDIzmnLrOc//l4lmzshgZu49ez9n770WwhaCQbFv4jiwj0aEntDCVYacCA8F8J4iWjE8Ja6rk2B3r6Or3i0Euy7Kdq4R90p9wOjs3RII7f5Gcz82f1YzPXs0ivmIux9U6QPmQql2vD6rAYK6Frho0hWspZy/mg9DFrmHeSMfPtc1aSbho2YCjipxqGKI4DU+rmdyrFWvuO6ZLmfwKhRbyJtB141wWDnQ0mJ/tRAzScjZlSjN7xGrKFihQqDC71B/lyZYoVjK4eIUZbhp4ywWyrl6A+4KWfjZ4sEA0UrhbEOgqUnCGzfaV1wmZz0kKgdM6jH25dLl+e+rFOyK8EbC+mc1w+8dZ1pRtda1EPzNeK4BC6Xai/wAdEXw4AfbA3H+ytyblnr+aj4MWeRuZpKIN7hWMTQ3Oy3HjRWQ0VGdrOsHih9M4UY4Z203LFXwMv+52bhL+2QZ3lBYzzUdBU+4zI0XPxPtRzVqwhRKp9vBWPtTYYVKg7EJVFiRrMBNGiVdERDRVNlNEHbxoIJoxcyExt/SKtEtW+0L7qIVOocG7a9KC4V78BBRm/47GSbJWHlYxeS4HPCQSucVcXc+WEWgQmsUnE3LV0updvOaQcNu3JOwwr6agAUMWURHwlMVTNT1LE9cnzAVwpeulGDr2eCAVWADE3zt44DVkiINWrjpxuMa5twGT478rW3Wzxznp0yYSg4OShrn6kzw1QA8M11dWzxtWoLejStZOeshBdFK4X0fWrdeQus32FfcBWNHdpa9kooJ92GdJNfC9lPsBijlw9sqpjshEDLNRzUUUEKgQuVAzEPQZ221AQsYsohOBMHL3AB1Up9O6wRfC2zg3I8JXlryu69PQ8Fqb5T6ZGt2xpXVhnBD8wb85uebsipEmrCF7X66bbMQqKrhSdc8PHZ1Qa/Lqgtichjfu8f+imj5cJax8dnPro0JcQngLAoK8VAR2edp8Ge105WciTFrJcfhECbT46NmHmWN59o2ZWqqKgImHpT6W1okYAKW3ouK9NphyCJaKUz48WFuEHpAEoUPVvnkw9o+MKs3H9cx9zSElEBryzM/2xqA332gvV1//7UwqBeN+f3oSpZ5zRKtVKCjW5ovvcz+yn3wEKmsveZq5L66GnjohXuyN1gD27fx68C5POf/WnS8yMYT+id2AGF3CuZPFYVAbpdn9zeZMbwIq1dHYsgiWiXc0FGBphhPYvUmhPNFbuyb4fFqqdRQbwl7ZZUAmij7onWuO4+FbZuJ/fvtr4iWz1dXL/VnnC6hNbX1ni8aM7NG8Z7Yrp32hdLSrYlzs7ozwMlQvh2NrbWMe7XDgzm/ryhb02qCCZPYDYQjARV/HaI8OyqbtndY/a9KgCGLaBX0LI6ZKOCGXpRVDN0uOOfOim3m5+eL1Eng2OIXVc4bCuokMdDqrh4/eBKJXmNEK2Le76H166X9Za+0L7hPPpO2yneX6Wl+LmX++8bG9Myxk6E5fKClVSvWVjs8nPU3m3/XkAse0mXM/AZn3FHhMlnBYh9YvcK5vcYm6+xeCX/2DFlEK4UzRJGorr4U6ykUnuygmEY25r6D0B6ELJRy3lBbpZx1a4oJhv7mJvuKO2C1FQ2/iVYCD6can3W+NJx7rn3FfbB1KjkwUBVnUhzFjCXYeo5eWeKt8i3cmPC7ZCUrm4hL4uDTlW1gj9dGKGxCeLOWZy/1WVCGLKKVsN+oqESjpWKLxN1nskzIikZ1uyCCa02wXwe63aC+wb7oDlp62kwQiZbNvG/C69ZJ23Uv0fePW6GCbXKwv2whS1fO0I8o4/xzlN6wuS/39Oh27qplAiB2QriiKi3O8KZSZn4Tq9xDBRNkMbcItLbqFv9yBFuGLKIVwNMPvFl1mdlMGIpJG/ONjuok1m2whx4HlkNr19pXqpv++7a1SbDXDOZFDNu1AP1d4vv32V8RLR2KxDQ//1KpO+NMnfi4lVYWPHhAt4mXA6q6YXsiwpbTYWwOdnZV9evL48VxgwYTCJ1flRZVFFNjo4JeoJWgBapaWvUDAbxcrwuGLKJlwmTaG62zDkqW4I2KalNawtwFJV2PY0IL9kgHu3vsC9UN+7qD3d0SWlMbobCY8BS+XE1UyTkw2Ymecqq0XftSE7Za7KvuhOIxyacPlLFCp92OxAWl7DCRDmElq4qLX3gCKBveLL6GGtm5sRqooGjmNpIt8yoWdpuYEBts6xB/Q0PZH4YyZBEth24PC4m/sbFkS804l5XFlg43NiQ2E7BQb69ET95iX6lu6OuFQOi2kIUKmLFdu8r2BJ4cwuOVsHmvdL78VVJ32ull2a5TrVBhLdnfL6nxMd1KVS65uVlJ7N2jlQadDNvBQhtPMiGrencYIABimzm2yTsdduYkDx6U7My0faUMzP3FZ+Zqgc5O8UYj+nW5MWQRLQP6bqCXQimfhmC7YGpwQCeyrmNCrJ7LWrtOAu0d9sUqhX/XxiaJbNqsWxDcBBPE1MhwWSeHVOPM+yXQ3iatL75aWq640qrI6mJ6prG/r+xV1rCKlUPpbBe8df0mwES3nmJ/VX08/oA2v/U3NNpXHCyf022qZVlFxcNwM1fDz1a3B1ZwKz9DFtESaT+s5mZrP28J5cyNKD09rYOwGyexWNqPbj3VhJdN9pXqZJ0f65BIjay6FRPOkqQG+t0wT6NiMJMerP43X/I86Xj5q2pmO3ApYbttov+g5Mtc5EjD3eCgKyoaYhteZOtW+6sqg4d0dVEJ9vbqaovT6crtAB4ez9hXSgSrg9GoBNpare2BFV4tZ8giWgKsXOGpWFmW9c3gl52Z0W7oaE7sNgizKHwROWmzfl6t8O8W3rhR6k8/w77iHhgoy9VAlWofKgg2POt86f6jt0rdmWfZV10sn5eMucfH9+4teyXZfDqlY0u5enNVErbi1W09tezncJYCZxNR/TC8br19xdkKxyBypToGYULr4d5Xbe3aXgfXKo0hi+hEvF7x1tVpNcFyvWmxUpDo65N80n3nsvDkCcv89eedJ8Gubvtq9Qm0tEjj+RfUXPPk1cIh/fTkpKQOHXLlSistDx5MNT/vebLmne+WhvOeZV91Ny1uNHxI0kNDOvksp5wZU9Jjo64IWTg/HVq3TrefVxs9f9zda/79nB+ysGqKarRpPDguRcjC2StdvWqTAHpfVVGoZsgiWgyW9NHU0ASsclYpsrZ09GvZUzdCoK0/5zyJbt5cndWhzOsCW55ar7jKvuAeOEOCM4PY7kS0GF9Dg7Re8xLZ+Ld/L40XX1Kd7+UKQCPv+J7dkhobsa+UTy4Rk2TfQdfsksDEu/HCi+yvqoQJBf7WVomeepo2xHU89P+cmZacCVrFhhVBbEVGVWLM1SpR3GIxDFlEi9B+WHX1eoiynEvPmMgmhw5ZJU9dCJOx8IYNWua5GgtgoJlh8/NfoI2T3Ub7Y+3drXvsieZlJjqouLnm7e+SDR/4K4ls2SpV3RS2zLBTIb5vn6THx+0r5YNGxFiJTk9M2FecDSEGK6jV1Cwe41uwq0fqzzrbFRU2sUUwOTRkVdIsFjMfw/l4LRzS3GLmaMGyztGWiiGLaAHaDwsBC+ewyvzmRbhKjwxLeswMwi7dkoWKS43PuVDqzz6nqp6A49+l7vQzZc073lV1T83KQbeyHjhYur31VNMw2Wk47zzZ8Ld/J73mPeLGHnKLwfZAVOZM7N8ruVhlGrPqavTwIfsrZ0MJ91DvWmk4/wL7SuVhhbfhnHMlvGGjfcXZcA4wPTws2SIFewRTzA+wVR/9Sqs5qDJkEc3HvGm9kYhuW6vUGxhbSpIDfa4NWRBev0F6/uitOkhWBRO2MTB2vf4NZqB0QdndY5nXIoqyJPbu1lYDRAV6xmTdOvPeeKOc/IlPScfvvUJ3AdDR9Kl+f7+5t1eukXd2alpiTz5pf+Vw5p4daG/XB3aYkFca5hPhteul5fIr9d/NDXKptD5YSE+uPmThIQ5+n/62Nr3nVDuGLKJjmRsflqGxz7eSb2L0ycK+fTeXFsB+6/pzzpGet79DqwZVGvb3t11znRkg3XcWC1AJLbF/n2Smy9hQkqoX7pXRqEQ2nywdr/x92fJvn5GN//AhiW6p0rLZlZbP67mU2I7tknh6n32x/LJoDDs4YH/lfBjP6049TRovfm5lKw2a90twzRppf+nLtIKuGxwuejE6qmfNVwq/NzzYDHR26dZPT40EVIYsomPoQUrzZkbZ4UrKxmKS2LfXteeyCtD8ud0Em87Xvr5yDUzNDR17+1teeLl0vfYN5SnlX4X0wL55TWamp+wr5EaY8AS7u6X5uc+T3j9+m2z68Mdk00c+Lk0XX1ITT5crBRPO9NiYPjyrZLP57Nysvo/dQs9A9a6R5uddKuH1G83MtzITdIxlrZdfJc2XXW5fcT5sj0U1y+ShIfvKMnm9WtAi0NyiZ6H17FUNYcgiOoLH79MGdtUwiUa4Sg0PS2qlNycHwdOr7jf9gbRf+1Lzuyn3lg8TsBpMwLrsSun5o7foliiELtfBVkGsru7dw5UsF9Jg1dOrBV963/YO2fh//0FO+qcPy7r3f8CErefX3OSnElC+OnHwaZnbVtmtevj3QIXQ9Gj5qxtWii8UkvozzpSWy6/QYgnlhq2zTc99nrRd9xJXPYjIZ9KSNnOYVN8B+8rSHa4caH5faCxdTWezl4ohi6gA57DMjVDP2lTJJDozMy2xbdvsr9xL97Gv3yhr3v0n0vXGPzChq0y9qczrINCOLYLXSI+ZWEZPP7Oy200qCL190BtLyz+z6IWz4elxfb1ETt4irS+6Wta8609k04c+Kif/6yflpP/3IVn3Z38pHS9/pUS3nMJwtVTYKoiqgnv3amXBSkMz5Lkd2+2vXMC8pnGOp/nSF5iPF5a12iDeS03Pe755z7zKfX0V0xl9UIy+n0tmxl1dvWpp1dU/9DszkwD7m7XF95bG6Gs84jnd/ppKLNDWrr11qrE5XinhsPzMo7+WWfNRlcybGh3C0WC2mhrZofErtsjhSbHbaUWh5haJbt2qK0tJc9POTk3q5KUkzGsCldGwHarnD98ikU2bXb0VCvvqp3/5C5l4+CHJFOEAc7n4zXu6+fmX6rmhaq5CVWx5FM4xgTg7OyPBrq55P3AupP7Ms6XxgudIw3nPluYXXCadv/9a6X7Dm6Tnj98qna98lbRdfa00mftP/XnPkqh5D2AMY7Bavry5T+H3MXL7tyS27Sn7auXgXhbZsEEann2+fcX58P5HZb9QT4/2+Yvv329ubKXtF4ZiG42XPE+6XvNa6x5Ug6sxK6XbY0dHZOL7D8mMGTuWAj8fbM3H9kCcpavxe/aQ55G17beZ6eWr7QtUYtGtp8jmD39cGi+62L7iAhhcBvql/+YbZfDmL9oXq4vHTBqC7WbyYN7U5ivrYpWoO+ts2fyRj1dF4YeqgG1r8bhWxxr86ldk9N67JZ8qbqU7PHlsuexy6X3LO6Tu7HOscFUlq5uVgupQQ//5FRm46QY9L1grwidtko1/83fSetWLXbUKiWazWHE84ZlOr++ZiYz5UyeB+LO2JzdVB7+HyR8/Irve/z4tAlBpGOvarr5Otl7/efuKi5jJf2pkREbvukOGb/vmqgoyLAZjdvMLL9OKm2he77b3FM5jzf3ut/L0v31cJn/wffvqAvRBd0QChZUrJ/ys8vnHeBcl1yvs+/Wg4XCVBSzITE6aG9Xv7K9ItxJEo9JwwQVy8r/8m5z+n1+Tthdfq08M8YR9RQOZmVjixh7s6NItHad95Wtm8nGD9lbRp/YuD1h6eNlMSmJ79tRUwHIzNP/1hiO6/XnRD7xvzORGP8x7AEGUAav40Hh46iePVEXAAoS+5NCgJPqXsY3LKczrGyu53W/+I9n0oY9IdOup+qC1KAUxzFiBOQVaffS87e2y9k//XJvWu/E9hZ04KRR62b3bvjI/3HOwehVs79D7kCMClo3bBcuM2wWra7sgCl3gQCqKXVTrMr7H3PiDHR3avNDtk/1j6WC2foOWVW+/9iX6vsLEEpNFnTyGwhrIMIDi94vv4XftbzQfzc0S7OySiPnnmy66WLcErv/AX0nna15n/jPXc6J5BJwlmXns1zJ29+06Wawlbt0uSFUknzcTzV3S/8UvaKW1qoCHVWbsqz/tdImctMm+6C4YE1DMBQUpQt3dkk8mNHxim9tytxF6/HhY2ySRjRul9eprZM0736O9uap1XlEO2dicTP/0xzJ65+32lWOY+7FPj2m0ih9l2Z33s+J2wXLjdsEq2i5ov8Ex2dbl6SqFpzyN518g6//qbytSFanW4OkZCoakBgYkefCAbgVBE8SMCQfYIoNGhjj0jA+cuUKAxT59WoB5/+Jp5PA3vy4HP/1vJdtaUypu3S5I1QPVOEe+davs/fv/a1+pAiZkBTs7tdn72vf+mX3RvRCsMlOTug199sknzNhxUDITZtyYnpJcMmU+jtmSjpCKh3mofocHdl09UnfmmdL47PPNGNOh33e7xNP75elPfExG7/iOfcVmfjbeoP0gFB/Yju9E+fxjDFllxpBVJSHLfpPjKTeq2FTzDRFP3yObN2t1u6aLnmtfJSoPhNbYzh1y8DOfkrG777Cv1g6GLKooM/7NbXvKBKy/lemf/699sTqgqFLbi67RUvwo+kQ28zvD6n1q+JBWVEVfMRT+OQoe0tbX6xZzhFVfU5OrCyPNZ/Y3j8vO9737qJ5suAdjdwl+dtqL1MlhlGeyyK2wLO2rr9OVjWp/k6MqFRpYxp56Sie8ROWE81h4SDL7xOP2FSJaKkzOMdmcfeIJ+0r10Pf2YL/EdrBNyFHwENYEgfDGk6Txwouk5fIrpf2lLzv647qXSssLLpO600/X3REMWEfD637uqSclcdDuj4VQan6m2I3jb2nVrfuODlg2hixyH/Nm90br9NB3TZzRMCELxQbQXyXpxkPKVFF4iosn8SkTtIhoedAjaOy+eyWfiNtXqgdCFhren6gwAdFyoXT75CM/1NcYAmigqclqKlxX56pzagxZ5C54QhUOi7+luaYOwWslqP6DEtvpouaRVHlYRR0Zkemf/FgHSyJaOhR8mv7lz2Xud0/ojoSqg3NIk5MS37tHzx4RFQN23KAn3NRPfqKhKtDZaTUVdmGlXoYschVUo9OGw77aOpuBmxa2DOKJY3Z62r5KVFoIVomn98nkj39kXyGipcKZnrH776vqipy5mLWtCx9ExYDgPvPooyI+jwQ6Oq2zVzX0ULuYGLLINbQfFrqIaz+s2qMNeHfusA6RVuNTUXIc9NEZu/ce+ysiWipUFJz+xc8ltn17Va8C51IprcKK7eg880urht0PE+Myt+1J8dfKkYwSYsgiV9CKNnX1VV9JcDHWlsE+ie3eKbkq3N9PzoLXG3r7jD94v32FiJYin83odqnJH/1AUoMD9tUqZSbF2Co499Tvqv/flape1sxNsOMmecAueOFyDFnkfCh0EY5oydCaPnCJwXBqSmaf+I2WlSUqpdToiEw8/KC+5ohoicx9OmveM9M/+4nM/PpXNXGWUSvB/e53kti/z2rES7QSWMUaHZXp//2pZOMx+6K7MWSRs6HQBZreNdQ7osRqLpnQbR2xXbt0mwdRKeC1Fd+5Q5/EE9HS5dJpie3ZIxM//IFWFqwFukui76DM/PYJyc7O2leJlgcNmxHUUUiFW08tDFnkaB5/wFlN73Ko9jYsUz/7iWSnJu2LRMWFg8tTP/9fSQ7VxiSRqCpgt8HkhN6fcR6rllaF8O89/bOfajVRopXIzEzL7OOPS8rMUfBeIIYscjAcuPRF7W2CDjp8mUsktADGzG9/y6dFVHRaUfDA07qKlYvz7B/RUukq1o4dMnr7t7S/XC3BKkR8zx6ZeezX3CVBy6arWHv3yuxTT3LcOAJDFjmTxyOecFh8jU3Oq26Tz0tqaFAmvv+gbvMgKqb02KiM33+fJPbt49NIomXAWdmR73xLYjXa3Dc5NCBj996lZ7SIliM7OyMzjz9mgpZ57XPcOIwhixzJEwhKAOXaHXAOaz4IV7GnnpLRu+/kDY2KBquk6Jcz9ZMfszkp0TIgmKDYxehdd9TsPTmfSsnc9u0y8dAD9hWiE9NVUKxi/fY3OobQMxiyyHG0H1Zjo3jDYfuKM6XHx2TiBw9Lor/PvkK0CrmcpEdHZPInj0h83x77IhGdCB56oZJg32c/XfPtNbBLYvSu21lVlJYmb7UAmP3NY3qMgY7GkEWOov2w6uvF39BgX3EwMylO7Nsrw7fdItnpafsi0cpkEwmZ/d1vZerHj0h2Zsa+SkSLwbnY2O5dMvS1r1qN4muc7pLYtk1G7/iOfYVoYVqJ1rz+J824kU8m7atUwJBFzoF+WNGoCVkmYDmhkuASYIvKzC9/IZOP/IhFMGjF8NpJDfTL5MMP8Wkk0VLlrWqvY3ffae7Bzml3kBoZkbF779Zy3EQLwut/fFymfvZTSR542r5IR2LIImdAP6xQWPx19eL1++2LLmBuciiXOv7wAxLb9qR9kWh5crGYzDz6qG4/ZTEVoqVByeqJH3xfRu+9S3IOKhaRz6RlbucOGbnjO7wf0IKwNXbuicdl8off50PeBTBkkSOgwIUfDYdxDsslq1gFGASxXD/+8EOSGj5kXyVaGvTyie/fJ4du+ZqexyCiE0OZ6plf/1qGv3WbJPbvl3yNFrtYSGZqUiZ//CMt6U40n+TgoAzf/m3tq0jzY8iimufx+cRbVyfeaJ3rApbSg6fTMv2/P9PzNFiVIFoqlJ3Gub6ZX/3KcRNFolJAL7n4nt3mffNNmfnlz/Vrp0Glwdi2p2TETKL58I6OhSJJ2FIa377NvkLzYcii2oZzWBE0HG5wXj+s5cjlzGR5SMYfuF9mfveE5LPOG/Sp+PA0fvrn/yvD3/y6rmgR0eLyuawk+w7IoVu+IWP3fdfR26Sys7My/Yv/1Yd3vD9Qga7iPvprGbvnLr4uToAhi2qXnsMKWeXaHdoPazn06eq+PTKOA8tPP63Bi2gh2GY6/etfycFP/5tk41z9JDohHPQfG5PR794rI3fivFLK/oYzIUAmDx7UFYu53/6GE2rScWNux3YZuet29sRaAoYsqlko1271w4rYV0hXJszEGU2KUfWHaD4I5HM7tsnQV/+DFcSIlgjnlFDavP+Gz0nGJffXbCwm07/6pQla92olRQRNcicN3QP92qw6vns3Q/cSMGRRTcI5LF9Dg/hwDouOgp5Zk99/WEbvvVvPahEdCQNloq9PRm//jkz99BFHnichKjY05x29604ZuPmLrglYBQiXEz94SKZ+8mPJsReSKyFQpcfHtB8WSrbz7PfSMGRR7cE5rLo68Tc0urPQxRLgZjh86ze0QWaOJXipAEVSJidk4uEHGMKJlgjvmZE7vm0C1g2S7O+zr7oECktFItqTcfzB+2X2yd/a3yD3yJtQNSezjz8mE+Y1kB4bsa/TiTBkUW3BOaxwWPyNTbqaRfMwE+lsIiGxnTtl+Jtfk5HbbmHQIoWJEg6xo9AFmg9z6w/R4jRg3XmHDH75Zknsc9fWWo/fJ/76evE3t2hhqdiunWY8uVWSfS4Lmi6XS6Ultn2bVppMoOlwjuPGUjFkUU3xoB+WCVgsdLEwbP/KTk1qo8DEwYMy8OWbZOR/bmVTSZfDNp/pR38tA1+5WWI7tju6KhpRMegWwXvukcEv3SSJvXvFTS0OrDPPzeJvabXGW49Hy7rPPPor6b/xc5Ie4WqGG2CbYOLp/XLom9/Qkv7cXr48DFlUM/Sm39DgyobDS4WJc3Z2xqr6YyYEWnFw9y4ZMJOEkTtv54qWS+F1MPvbJ+TgJz4mM7/+FQ8sEy3G3DtTw8My9LX/lKc/9s8S37vbXHLPe8YTCEqgo1P8zc3HtUbBw5qZxx6TQ7d+g9XlXCA1OCCHvv5fMo1+cHwwt2wMWVQbcA4rGtWGw67uh7UITJxz8ZhkZueOuhni8/geE7RuvlHLu+PvkHtowPrdE3LgEx+Vmccfta8S0Xxwv0w8vU8Gv/RF6f/iF3S7oGvY42ywq0t8kYWr9uJBHirMDf3Xf5ifz6SGUnIWzCeSfQdNmP6mTDz8kH2VlouzVap+eg4rIv76Bm4TXAhWrRJJyUzPmEn18atVmGhjT3X/jZ+XsfvvM39vyv4OOZnVbPjn0v/Z62Xqpz+xrxLRfLAyM/P4Y3LQvF/6b77RVVUEdaeIGWMDbe3iDQbtqwsw4016YkLGH/ieDH/nNkmPjTJoOQjmC7pFEA23777TvkorwZBFVQ/BCodv0XiY5mEGN2wDzMyZgJW0tgnOBzfOuW1PSd9nPiXDt97CynIOl43NycQjP5QD//ZxGb//u/ZVIjqWlqceGdYJ5dMf+ScZvuXrev7IFfAQU5v6N+n2wCU/yDQ/s9TIiIx/73syes+dkh5l0HICK2Dtk5HvfEurSeJrWj6siGcSCYYsqm6obuTDClY0qoMBHQ9v5tzcnPmImTFu8UFOV7R27ZSBm27Qfi94WkUOY14DCNCTP/y+DN50o24RdNOBfaLlQEGg+M4d0m/eK09/8hMy/ctf2N9xATOm+rBLpLlFfI2Nupq1LAhah4Zk7Lv3mqB1l6SxdZBqVj6dkriZHwx/6zaZfPhB9sJaCTPW5szPEb3l8OCBIYuqF/aHR+q06TDPYc0PT2Cz8bhkZqbN50s8lGpuAsnBARn8jy/Jwc98Uuae/J39Dap55nebnpqQ8e/eI33Xf1qmH/0Vq0oSzQfvlfExXYXZ96H/J4f++78kefCgXncFM6biAaa/rVV80ejKx1gNWodkzISs4dtukfTwsP0NqiUIBnPbt8vQ1/9LJr//sJlTzNjfoSUz7wVs0cc24yx2CpmfKWeuVJ10C0NY/C3N7Ie1EDwxSaX04PGyl/TNP4sD3WP33C1Pf/RDeoiZ2wJqnPmdYvvO8De+IU//68c1PLtmyxPRMuDBw9xTv5MD//JR2f/hD8nUT39snVN1ScBCK5RAa5sE2trEGwytfpeIbh0cltE7vi19N3zO2jpINQPziLknnpCBGz4vUz/7qWS5grVs2FGEgjCpsVH9+RUq+DJkUVXSQaClRbx+FrpYCApcZE1QwhL/ipgJRXZuViYf+ZHs+8e/l6H/+k8+vaphyf4+nTQ+/fEPS2po8PBNnoiekR4d0SDw1B++SQ59/b+t94pbHjDh4WU4IsH2Dm2HUtQdIhhPZs148oPvy96//78y+5vH7W9QNcPKy+SPfij7PvxPMvvkb7nzYQVw/0ibuVhqbMz6+R3xsIYhi6qO1XC48cQVjlwMAQvnbrBVcLUwGY/v2ysHPvmvcvDf/0U7unNVq0bkc1Y55R88LDve8w45hAP7WfYyITrMTHjQ2wnnT1Fd9YlXvFQOfOJjepbIVb2vfD4TrBol0NEhXpRnL9EZ53w2I7Ed2+Tg9Z+Usfvu0fvTkZNOqg4YJ1ID/TL0ta9qcaQMK0Qum3VcI6b3kuzU/Cvhvrc0Rl/jEc/p9tdUYiiP2nrFVRJau86+4g7ZmRmZefTXMms+FmMVuqjXwYDbBOeHs1fZuTlrz28RVytyibhuMZt9/DHxNTaZ12qrNn72lGgwptWwJo7x3bv1LMmBf/24xPfusb9HR/K3tEjz8y+VyOaTebbTRXT7zvSUxHbt0KIMBz/5CRm5/duSGR+z/4ZL6Nb7kPibms1Hk3iXW9xiJcy4hG3s8R07dHUr0N5e/JUzWhkTBDB/QHP6oW98Tca+913Js6n08uDBTSYtudkZyUxgN9GCq39DDFllxpC1SMjCQdxw1FrFWmoZWZfBk5NcPKHnB0qxrI+JSbK/X6b/96c6SPrq6iTQasJWgKuK1QK/I5x5wOoVqkSO3HG7TiZpfgxZ7qKrVvv3aZXAkW//jzYVHr3jO5IaHCzqQ6ma4PNpUYsAqgeae3lZX//2ZD6+d7ek+vt0m2KgxYwlbMVSMZgzpAb7ZeLBB7TJ8NxvfsPtgcukczBzj8HKFea1J9g5wpBVbgxZC4Ssw0/bGk3QCpdsK0NNM4MWChlkZ6a1aWYpoXRrbNtTEnvqKfP5nAZf9FDhJLWysH9+9onH5dDXvipDX/svmTOfr/hMnkswZDmcfV9MDvTL9C9+LmN336XbZkf+51aZ/NEP9AyW68JVYTw1923sStBgU6ExVSf2AwMS27Fd0lOT4quv07DF92J5oRgD5mDD3/6WNpFODfQhMdjfpaXAMQrMZTMmYOkczNx7ToAhq9wYsuYPWR5/QLcIlv1pW63ARAKFLmZnJDc7u5Q396rhhpIaPmQm9U9o4MrOxSTY2aWNoRmCywu/i8TevTL031+VwS/dLJOP2JPHMrwOah1DljPlkgmJ7d4lk99/SEPV8C3flFETsLDCG9+zW8ccVzKvcd2BgNWrqBlPy7E98ETMfQrb2+Pm94XfDSap/tZWbYBMpYUzcsn9+2T4m1+X0Ttvl7nf/kYfnNIymNcvVq/Q+wpzMMzFlmjI88ja9ts84n21fYFKLLr1FNn84Y9L40UX21dcwLxA8ZSx/+YbZfDmL9oXn4GJj57DwtMtnsOal54vMOEKZddPsDxdEnpo2vx+Gs45Vzpf8zppufxKPa9FpYVwlTx4QEbu+I6M3XuPJPoOuHfyuELhkzbJxr/5O2m96sXVMeGk5cMkPR6XpHn9o2rdzGOPSmzXLkkPH9ICQLp9mu0KdJs9xlIvPlCZtxofhpnx3l9XL5EtW6T5hZdL86Uv1ErCVFyYJ6By5sRDD8rEDx4y750+DQq0PIfnXuhFiq2Vy3uw+RhDVpkxZB0TsrCtwUzWA+0dPIe1EEwwEglJjwzrpLuiELbq6iR66ukmbL1e2q+9TptFU3Fh33dqaEhG775TDn3ja1bFx+Xf4MlgyKoteO3jiXFs5w4tnJA4+LRM/+qXknj6aS3Og3sg3gv6sInvB4tuDzTjqAkr+vCrFnYamLCFf9fIppOl/WWvkJYXXsaKwsVg3hMIBNM/+6kM/8+tWjlY5w18ryxbztxnspP26tXKfn4MWeXGkHV0yPKYmyq2UPpQUpbmhadPqdFRySerqwIQ9vnXnXGmdL729dLygsut0sAIytxKuDI4UIuzJUMDumo18p1vSWz7NvubtFIMWSVk7u0IRUdN4I69pl/bq+8563u4p2FMwIMjNLHFVlhsf43t2mmu95nPXVYBcBWwy8BX36CVA2v19Y22LdFTTpXO171eGp99gRZa0v8tHEuWBu8xE6SwDXP65whXt7Ha7CrgAQ7OP+MMYX51q38MWeUWXr9B1v7J+6TuzLPtKy5gbgAYSFE+F1WeCvQcVnOzHs6l+eGJLZrcVfMWMQyQeBrZds21Jmy9UM8bolyw9mKhRemEEzfzsVFJ7Nsj4w8+KGP33avbPKg4Qr1rpOeP3yqNF17M7chFpg+AhoYkM2P3iDEfOBBe2MYH2GqDCZ+1QjWlf38ZZxpoIfZKUOEssxNgLAlv2CitV1wpDc8+X4Kd3eIz8wO+b+eHYIW5QdKMF7OPPSoTP/qhxLY9aX+Xlg33r3RK71n4KMLOIYYsqgx9+tbQYEJWCw+jLwBPU/S8gQlZOoGpdub3GGhtl8bzz5fG51wk9eeeK6E1a62toNwG8gzcyPEk3wyMaJA6+/jjMvWzn8jcb5/QbR418bsmosrA1sBAUM9e4cOJq7OYH6DIUv2550mDGU/C6zdaRZeam+2/4WJmfNAGuP39uhVw5vFHZfqXv9RVYY4dK1dYvcqY0IptyUX6WTJkUQWYyTievCFg8RzW/HSFY25W0mh0t/qnKeWFSUA4LOG163Q7YfS00yV6ymkS3bJFQj29+rTSdXRgxMH9gxLbuVNiO7bJ3FNPalnj5MCAsAw7EZ2QCVTYWu+rq9d7rOMfUJqxBH2+whs3mvHjFN1SiN1Awd417mopgvEjNieJvj5JHTygRV/mnvqdrhBjxYVWDmet8NAza+Zbubm5Ys+3GLKozHQCHpGAuUHWzAHdcsObHlvIJif0zV+kJyqVYQeuUE+PPo0MrVsn0VNPk/qzzpbIps26rdCpdKvn+KjEdu+WuSd/q+EqeeCAFrFIHcKWqRoLz0RUGbiPou9VQ4Nuw8ZWe9cxgQrtQ4I9vTqehEzYim7ZKpHNWyTU2+u4uQQetKLhbXzfHj2riNL3qBCItiqZ8XGr8AutnJlX4WeI/mHaGqc0cy2GLCovbBvDAV08icNNk46BgGUm55mJCX1yVdMBax66TdQEq2Bbm/hb2yW8Yb212rX1FImevEWC3T3236w9KFqRGhzQp4xYoZr73ROS6DtoBspJE7asc3WHCwAQES1BYWu9lmbHLgAPx83CwzvMJdBrC1vSEbiw4hXetMmEsDVWA+YaoqHKTPaxhXxu2zbtKYbxJG0CVWZyUnKxWfN3uB2wKDDPSiasrYFxq2JpiTBkUfkcPodlJtn4nI5XOIeFiTluuo5mBkqcJ0CFSYRvLUHc0SENZ51twtdJEj39dA1f2ItfbecOsCc+sW+vJA8etJo1o8nm7p0ajnFwFoELVYn4tJGIVgRBIhLRbXHeYIhnlxfjNT8rVCQ0IdRj/kSbEQSuyJZTdPdEZONJEuzq0iqMVcFM8rHNL2HGD+xsiG1/SuJ7d0sSRWESSTN+mLGDbQpKQlev5uas3nrmZ1ziny9DFpWJDhhRCbS18RzWAvRJ1tysTtS5lewZ3mhUtxYGOzutLYdr1kpo7VoJmK9DXT0S7Om2JyD2dpGVbhvRm611w8UTLqxGISyh8h/69WCLX+LAAT1Xhep/jg/BRFQReKjka8QqTSPDVZHgwS4Ca3jdegmaMQShK9Tdqw/2cO4r2N39TAhb6RhSYMYSVNBMjYxIanDQqqo5OKBb/bBlHNWW0cKAykvH84lxPXtVJgxZVB5Yug+0tmrQonngyRZKH4+PrbYvgzuZQdEaKHv03MJy4YmWDohmECQiqgSEK129MuEKq1ernuzTsmE1DNsPNeAuc2umbhkfOWQVo+AKVHUwv4dcNis58ztB2M1ny/oAmyGLSo/9sE4AT71QJAH9sFgpiIjIXbw+8YXDVln2aJTnlYlWC/MqhCtUDjTzqgqdcX+M72QqKesclhk4VrC64BaHz2GVbwmbiIgqzYQpFHBAtV1/W5uGLAYsolXC6pUJVzh3he3+OIZRgYCl+G6m0sEAEo1qR3oPtz3MC9XmsjF0F5+p2E2AiIjKyIyHhUq7Gq7MnzyrTLR6+tB6ZlqPXqAEfqXPtzNkUWlgEEFfD+xrrrLKcNUChRO0w/jUNIsoEBG5AMZDnBtFuEKlXV8ozIeQRKuF1Sszn0qNjlhVfhMJc6nyD64ZsqgkcHj08OFdOp558+dTKStgsZIgEZGz4cGjVthtF39Lq/jCEVYOJFotzKXSVtVABKxcLKarWdWC73AqOo/fp53ZtZIgn9DNC8EqO2MCVjKhNwkiInImrVjX1iYhlAmvq7P6RHJsJFqVQtub5PCwVTmw9H2vlo0hi4oL57BMuPLW1fMp3QIKzfCysXhVLGcTEVGRmRClOzpaWiTY2yv+xiYGK6JiwFGLZEIyY6PaekXb3lTpXIqzYCoebIcIhcVf38BDvAs4fA5rbtaELW4TJCJylEK4amiQYEenBJpbxOvjueSSwFaxKtoaRiVmft/oRYaqgSmsXs1Uf8EwhiwqmsLAgpK0NA8MCLhBmBsDGw4TETlLoagFtgb6W9ussZCrVyWhW8VisZqYaNMqIVyl0/q7To+OSnpiwtoaWAMYsqgotB9WXZ2WbOegMj+cw8rMzkguEbevEBFRzTPhyldfCFet4ovWcbt8CemZZjOWolS3SVv2VXIiPV4Rm5PMxLhdNdDMn2ooVPMuQKtnn8PSflgcWOZVOIeVm61cUzwiIioiPFysr7cqBiJc6Vlkn/1NKrrCisbUlGQmJyWfSovHz6MJjoTfdSIh6fFx/cD8qRaPWHBGTKuj57BCeriX/bAWUDiHNWUGBfM5ERHVMIx74bAEWq1tgf5oVLwc/0oLk+5UStJjY1ZlXrQ+8ZrfQ9CELO6ecRT8btOTE1qSHSuW1Vg1cKkYsmhVEKwCTc0sdLGILAaG8XEe0CUiqnGeYFAC7e0S7Oq2WpUgXHGSX1pmgo3zV6nhQ5KLx6yHleZn7kFBEa4cOoaes5uZkeTgoL1SmarZcFXAkEUrpv2wsEWQhS4WpJVwsILFSoJERLUJE3qEq44OCfWuscY99roqC13VMGMoAtZRKxr4nZiAyyMKDmDv9kmNDOvqFZoL13q4KuCrk1bGDDDeaJ346nnAdyGFw7l5c/Nwyg2DiMg1cN4Y2wLbWiXY08Nzx+VkxsxcKqnbxlDw4Ngx1GOHLAbdGoZwhXNXE+MasHJzc46bK/FuQctnbmo+ux8WD53Or1ARJzs7y3NYRES1BOEqEpFAS4uuXvkbmtjrqoys8TNmFTxYqEQ7fkeBgIYtqjGFAI1+V2Ojkpm2z9g5EEMWLY+5oXmDQa2ohD9pHiZU5RMJHRyceuMgInIc3aERlUCrCVeoGNhowlXAjHOcyJeN7gBBP6SJccmZoLXgyobHy5WsWqPhCkcopiQ9OqYrlNoz1GGrV0diyKJlwT50b6EfFrdNHA83EZSYRT8sHNokIqLqhlURhKuWVqtiIFau8BCRE/jysSfguj1wesoqerAQ83vhmbgagt+tCc/aTHjchCvzO661flcrxVkyLZ29hQJNF7kvfX66zWF2Vrc6uOEGQkRUs8wkXbcFtrVZK1cNDQxXlZDPSTYek9TIyNJ2gCBk+U3I4jyk6hV6hKZHR7WhMApcuOkIBV+htGQYfPwo144lejqOlh814crqQs+ARURUlRCuwiZctXdIsLNLzxdrGxKGq7LDJDwzie1jo5JPJpY0dmrRCx8rC1Y1rF5pxcAR87sdsUrvm9+12+ZGfIXSkngCJmC1tPIc1kJwQ0kmdRkcZ7KIiKjK2OEKPa5Cvb26csVtZxVij5mYgGOL4LLOL2vIMtNX/t6qD36vqZSkTGhODg5ILjZnrVy5LFwVMGTRCeFwqc8MRr5IxL5CR7FvKnqIk4UuiIiqBybkGMOiUQl2dEqwu1s/p8opbCFDZbkVba23f6dcyaoiJkjlknY59qFByWJHDzFk0eJwE8OAhCd+ND8EKxzUxQ2GiIiqACbigYD46+v1vFWgs0ur4nJiXkGFB5JmvEQBBFThXckKh/4OPfw9VgX8TrEiOTUlqeFhrRzIh83P4KuUFmZuZN5IVHyF7vZ0nEKhi9wcC10QEVUcwlUwJP7GRquYRVub+OrYNL/S9MxyPKbFDzKTkyufiGOLoJmP8PdZWXkz38kWwtWYVTEwn05zHnQMvkppfuZGpoUuCtWW6DgYNNDHI6MNh7P2VSIiKjs8FAyHxd/SIsH2di3Hjl0YHi8fEFYUVjpSKcnq6tW4bhNc7URcGxB7eR6rIvD7TCQ0VKXRSNiE5rxLyrGvBEMWzQuVe3x19eIxg5Y+OaKjmRsKmuihH1Y+k7YvEhFRWSFcoccVyrCbcKUNhDFucaWj8vI5a0I+MWGtXi3W+2qpDq9kMTyXlR2W0+Z3iXCVnZxa8XZPN+FdiI5nD1rcYrEABKx0WrJzszqA8CZDRFRmZmzCGBVEGfaOTqsMezDEMatK5LNW81mruIVdYa4I8MhXV7L48LdssLUTFSBTw4ckMzWpZ7DyJkDTifFuREczNy5vKKz72VG9h46Hm0sGe8vNAMKARURURghXDQ0S6u7RUuxazIJl2KsKHkKmx7HiMWatXhVznDS/Z+2RxXPiJYcz51i5Svb3W9WTi/27dAGGLDqK9sMyAYvnsBZgbjBosJednOTNhoioHEyw8uCMcGOThHp6dfVKtwRSVSk05E8OH7JKeJdijNSlLOtTKgHMcTJpXbGywtW4rkrSyjBk0WF4MuSvr9MtGDQP3HySOPA5qU94iIiohMyYhObBgaZmCXZ26bkrbyikqxlURXRsTOqEPHVoSM8rl4zHZ2auXMUqBasCZFzSwyNapITnzVePIYssXq946+vF19hkX6CjYBBJ4+nOtA4mRERUAtgOFgjoNkBUCAx0dGjFQN1dwXBVXcy4qH0iZ2esSnPTJVq9OgJeAh5WFiwN/D7NPCef5rbAYmHIIg1YKHUbMAGLh4bnh4EEJWhxgJeIiIoMWwJDIfE1NVmVAtHjClvXTeCiKoQHj6mU7uzAeZ2yFIGyEpb1QVQD+Ep1O3PTwvYLLXQRYKGL+WjD4bk53WvOpztEREVUeMjX0qpnrQLNLebrOhY2qGLYVob+kFrKe2ZaH0KWjdfDh8FUM/hKdTlUEESlJt3nztOkx9GGw+jzMTdb3oGEiMjB9AywGXtQITBgwpU2vjfjECfQVQyrV8mktTVwfEzHxjwfPDoHpoD6wblgsfBu5mIY5NBw2BeJmi/4UjiOGTywN1kbDhejiSIRkcvhvJW/uUWCPb3ib2s340/EahfCcFXVsKMjMzOlvZKys7OVK/6EuQpfKyWCVUIUFuHPt1j4k3Qr8ybymsHtcI8ROo6ewzKDSY7bBImIVg7jTSgkgfZ2CfX2SqC1VQtZcNWqBmD1KpHQnleZsXEtjFCx8dBjbRXk64ZqBV+pboRzWIGgCVjokM9+WPPJ57KSjcf0LBYDFhHRMnnMZNgf0JYgQROudOUKxZV8PPtbExCu0C9pZlpSoyOSxY4OjoXOp8VFuF2wWBiyXMg6h4VtghH7Ch0F57DiCTO4mEGF57CIiJZOV63CesYKZ60CHZ36QI+rD7VDiz3F45IZH9cPbpd3B09hpZDHR4qGP0mXsc5h1emgx6cV89Ond9NTpW2oSETkJGZs8ZqxJdDSotsCsSXQF40wXNUSrF6hqfD0tKTHx6yzV7mc/U1yBQ1anBsWC+9+bmLePDiHpeXaOfDNCytXGGC05wcRES0MEzIUsmhsssqvt7bp51qtlmNMTdGxb2bGhKtxyU5OcvXKjeyVLPP/7Au0WvxJugb6YYXF39ys++TpeFo9aXZGsmag4TksIqIF4IGdGU+0t1VHp/hbWnSHhDYONt+jGoLVq0Rcw1VmEk2F4+ZSFa9eYZWFAb50zM8WO56wdZBWj69Ul0CjYX9Tkxa8oONhSwSaDWenpxmwiIjm40FV2qgGq2B3tzWmhMOsUFuj8lns3JiS1MiIZAu9IKt8/CucG6ISwc8X72f+jIuCP0UX0HNYqCSIQhd8OnG8w/vQp1jogojoWDqG1GuwCvX06Oc6EeN4Upt09SohqUPDWpq9omXZqbogZKFvHd/bRcGQ5XRer3ijUWtQ5JOJ45mBBQMMVrC4B52IyGZClCcU0sbBod41EuzsYkXaWofKuamkFrVIDg3q1kCiI+k2wYAJWXiIQqvGWbeTmTeLVUq30dorT8exzmHNSi5uBhs+ySMiN8NTbDNWWFUCWzVYaeNgjh+1DStX6bQZ66YlPTKixZ0QuGoSxulqPjNW6zBv9PnFy9WsomDIciq8UYJoOFwvHjYcnpf2AsE5LOxFz2Xtq0RELoPD7uGwVp4NtLVJsKNDP2e4qn06zs3NWYUtxid1a3wtP1DM5/LmfxNDVklhB5SZN7L4xeoxZDkU9st7o3Va8YnbBOeBbYKppFYS1P3oRERu4/dbq1atrRJsa9fVK58ZNzxebhWqeVi9SiYkMzEuafORi83xYSItDeaMobD1J60Kf4JOhKcQ4TDPYS0CwSozPaP704mI3AMH24/obWXClW4pZ28rZ8ADRDO+pacmdWvg4QeJNbx6ReWFFSxvwM9dUEXAO6oDYZnX39TMrR4LKDRdzMbmOPAQkTvoFvKQCVWtEuzpsXpbRSI8e+Eg2opkbs4qyT45KblUygxxHONo+bCarQ9eeG9YFYYsh9Hu+whYeHPQcXQQisclMzXJgEVEzuf16rbxEMqvr+k9/ACOJdgdxIxlOGuVHh3V1SttKFyrhS2oKmAXlDcc4er2KvGn5yDobYB+WBhQaR4YiBLYoz5hXyAiciAzMcJWH2wJRLhC82A0ETYzJ/svkCNgTEun9KFh6tCQZGdnzCWGKyoCrHxjTomgRSvGO65T4KlDJCK+hgb7Ah3FftKHwQhd7omIHMVMivRBmwlTWsiiq1sC7e18Gu1EGq5Qkn1WUsPDWjnQPY30sQOFu1DKQe8nZk7Js/0rx5+cE+CJgxlI9fAyG8gdzwxI2nAYT/kSCf2aiMgRsGoVCpvJkFV+PdDZqStYPJPrQBjLTJiySrKPSXpsVPIoye4W+N+PEu7mg8oAc8tgkLujVoEhq9bZbwJ/oR+W+ZqOpuew0A/LfPAQMBE5gT5lrqvXVSusWOFPfK1nrchxtN9VPK7l2LFylTPjWc02FF4NbIfkebOy0XZAaAVk7je0fAxZNQ5vAAys3miUS7rzQMDKodAFVrFcs52CiBwJWwJDIfE3N0ugA+XXW3UHg89c4/3fofL2VvfJCV29ys7OmrGMJdmpTPAgPxAUn5lj8iH+8vGuXMvMoIrDzL56NhyeF7YWpMzghICFPiFERLXI3N8xyQm0d0iws8uELJRfjwr6XXHi41y5TEb7XaWGD0lmetqMZymGKyo7rGJ50aQcu6VoWTgzr1V4uhAMi7+x0Rpo6Ti6d312VleyODARUa3x+H16jw9191jhqr7eKr/Oh2qOhq2BmekpSQ0OaDVcNhO24Wdgfjb4+VAZYb6JFXRsR+a9Z1n406pReLLgb2pgP6wFFM5hoekwByciqhnYoWDu6zhnFVqzTlevvOGwXueqlbMVxi2tGDg2xnC1IP5Myg3hyhuNaBVr3oeWjiGrBuk5LO2HVW9foSMdDliTExygiKj6mXs6zlr5Ght1xSrY06sVAlnEwh10zMLZYRS1GB2RXDzGsWsB+lPhz6b8TLDCrinMPfXhPoPWkjBk1Ro8TTDhyt/UZF+go5ib7zP9sLilgIiqFCYtgaBW7go0t2jD4GBbu5694pYcd3gmXE1IemTYjFtTLNB0IuZnls+yumAl6GpWOGyCFquYLhXv5LXEDMpYqtVzWByEj4eAhX5YhQPCRERVBuesUA1WKwSaUIVghYdmaMXBp8MugbEqkbDC1diY9VCQ4WqJsIrFlaxK0Z1U0TprJxXvVyfEmXqtQMDCPn0TsNhkcn5a6GJmhlstiKi6YNUK/QxNmAq0oqdVm1UhMBrR87XkEghXqaSkUY7dhKvs9JRWwKVlMEM7VgDxQZWhQauxQfwNDfYVWghDVo3QxpPmBY3O/nx6cLx8Do0aY5Kdm+XNl4iqg9drNQw+svR6XZ2uWnl4H3eVXCZthauREclOTUkumTCZiw8Dlw0/M4zx/NlVDh76+wN6bpS1ARbHkFUD9KmBGZi5V38B+ZzkEwldxeKWCyKqKExATIgKtLRIqKdXmwZr6XUEK5xjYLhyFasc+7Skhg5JZnJSzwzzQeDKIVohnPJnWGHmPuYJmKBl7nMMWgvjjL3a4YWMg4bmRezxcVvJcbD9Ip2RzOycDl5ERBXhtc4qBLu6Jdi7xkw+WnWLtz4YY7ByHYQr9GlMDg1JemzU2hbI1Zfi4EpWdcADJQ1azboQQMdjyKpmeAFjH3+hZCYdpzCQYZsgEVHZ4AEYiliEwxJoa5PQmjUS7O7mjgM3wwqL3QQfva5SI8OSTyYYCIoJP2P8PPNcyaoKGrTMPBVboXFGi/e+o/CnUcWwtcRbX6+DNh0P2wX0HNYsGw4TURlosPKbYIUqr00S6OgywapH/E3NLEjkZoVwFYtJmr2uSg/tWXL82VaNwoKAuQ9ia7RuiybFkFWl8CQUy69YxcILmI5hBq9cIs6+IkRUenjgZYKVD8GqrU2CnR0SaG0VXyTCVSs3Oxyu5qxwNTZqnQ3meaHSwc/c/Hz5M64yuqIVsIIWGqnzoZPi6FCN8GKNRHVA5xOBeSBgpVKSmUT5W/bDIqISMOEJ1VwxYUAvq0B7mxaz0POxfjOB4MMvFzMT/awJV3OzVrgaH9ctgnzgVyYIWLmszgWoiph7IsKVr7HR3CtbdR7r9vskQ1bVwbJryGpOyScB89Inh1Oo0pSwrxARFQO2A2KS0GSVXUdlQAQrrQ5oF7EgV9Nt6nNzkhodeyZcpdOc8JdZPpszP3L+zKtRoSK2rvaj9ZCL75scMaoM9vtrwGKhi3lpoYu5WcnG4xzUiKgorO3Z9VpuPdjToytW/kI/K+4mIEPDVcyEq+FD2usqZz7XlSuOQ+VnfuaYC+iKFlUn7MgKWa0ssMUazdjdiCGrimj6b6gXbzSiL1A6Gga5nAlXmekZ6wZLRLRSJlh5o1ETrDoluG69BLu6xN/QoDsINFjxHkxgJvQYdxCuUocOmXAVs84DMVxVjNUnK6t/UjXzmHupX3z1DRI091nsCHBbE3aGrGqBAT8SsV6EXj45PQ5uqsmkZGamdS88EdGymMFdKwOa+2ygvV1CvWsk1NVtBSuuVtFRrEk8dkykRkdMuBrScMVgVSUwH8jgTBZXsmqCrmqF9L6LD13VcknYYsiqBngBmhcd0r4XB6rpaOaGmkunJYO97wn2HCGiJfJ6xRMI6ooVzlYF0CgYJdcbm/Se65aBnpYIk3dsSY/F9bxVevgQqwVWI/v3xDLutQULCEetarng4RZDVhXA01U9WB0Oc9CfB26mubk5a5sGAxYRLQbBKhTSe6oGK5yz6uySAJplmutu265CS1B4kGfGmfT4mPa5yk5j1wS3pVetfM7a1cI5QW3BogJWtVrbxN/aqg/AnFwYgyGrwjx+qwoLPli56nh6Dgv9sLhNkIgW4kUfq7BVOtgM3gEtud4hgaZm8ZnrvLfSvArhyowvCFeZQp8rlmKvfghZ5nfHB6+1CatY6AOL+7WvqUkfjDlxkYEjTyVpojcTg4ZGPRxIxzA3T/TBykyZgMVBj4iOZIITgpW/uUVLrWuoamkVvwlaDFZ0IhhTMiZQpUdHJTMxIbm5GFeuakg+ZwIyqzvWNsyBg0FtYKxhC71h/c6aC3MUqiCP9sNqZj+sBeggiH5YqaR9hYhcDcHK7r8S6u6WYGenCVnNuhOA5dZpKTAxT09OaKXAzPiYVg60whUn6zUF4YohyxG0hUY4LAFzL8d5LdzjnbKqxZBVIeiKjcmBnsOi42jAmp6SLCs6EbkbDktHTbAyg29o7ToJdXZZD6fCEUHjYK5Y0VJY4WpSUoMD1spVMmEXtOD4UpOw0yWTtX+HVPNMqMJDMlR/RdBCgSKc16r1sMXRqQLwQkLjSz9eQHQc3DSz8ZjujWfAInIRDKgmNOEhlK+hQXtXhdetMwOuXWodW0nwdxzylJNKDGd6seXchCorXI3rOR6OK86Qx7msjPl9kqPoyhbCVmeXGQO69SGbtjaqwfs+Q1a5YbsL+mGZCQMnCvMwg58Wupia4hMqIhfAQyf0TdEy69guYgbV0Jq1VpnfOneU+aViMgEql5Uc+iqacQQ9rtIMV86EEG1+z/y9OpOGLTMuBDo7JdDVZVXhDgTN1Ll2ogtDVjmZUIVCF/6GRuuJLB0NAcvcMLPTM9aASETOg5UqhKpIVA86+1vbrO0hKLPe0qpPMLkFkJbNjB+oQIsGwmmsXI0MPxOuyJHwIJa/X+c7vLKF4kYmcPlw1Aal31HPoMoXKzyPrG2/zUz9X21/TaWiAStkNcHEi4OTiKNhgNRzWNOSRbl2rmIROYO59+lqFZ5ABvxWgQo0CDYDpK5ScUWfVgMP59BLMZHQXRBayIIFEVwD59rxgMZpVeloEfZ7Pp9MWu/7VMqEbfOB9311eYwhqxwQsMIR8TeZgMXSwvNCdafs7KxWE6zCNwoRLYe5xx0OU/qnCVRmEqQfvP9RMehEKyO5WFxXr/IoZIEqgQxXroJ7S6CtTc/tkAthNRP3ARO0cqm0tv3RojbVMY9kyCoHlGoPtLTo3lI+tT0eDq/i6WN6fFzfIERUY7BaZSY7eIjkNfc7q5y6CVNenxWqeN+jYkG4yqS18mxubk63i+nOB4YrV9JCYo1NOscil0Pg0tCV1SbjCFs4goIVrwrdHxiySs3jNzcANFozNwFONOaHPljpMatfCRHVBqxKaajCRyhsbddB2MJ9jvc6KjYzSdIt5TMzkp2b5ZZAOgznO0M9PfZXRDbcM3CPQOiyV7gQvhC6yrTSxZBVUl6v+OvrJdDeYV+gY+mgOTmpPbGIqArZgcmqAhjSFXkNVjVw6JgcIJfTHlc4q4st5VbjYKJnYOUcBRGwik50QgheuK+kTfBC6Cp8ZK1CKvncKu8xZlzU4nY+L0NWyZgfMsoPB9rbeQZhARgs8VQSvUv4RJKoCpj71uHtfT6rSAUK9uhZUpyrYqiicsATaJRhNxMe9EvUbYHYEkg0D6yio/0DCosRFQXuQRkEriXOTb1m7ERz/CPHyHyeIaskzA8ZvbACrW06SaHjYcDMmoFTm0OWZ9mWiI6F1akjPzBIIFgFA/ZKFR8QURnZq1bayiM2J7lYjA/g6MSwa8h+qK0PiIiqgQlZHEGLDQHLTFL8jY3WJIWOhycEyYRVqp1bP4jKw0xECk1/0Qzd39yifakCbe0S7OzUXlWB1lbd4qzbbhiwqFxQ/MiMCenpaT2fmxkd0dUrBixaksLWLz6wpSrDUbTIsA8TExiUbOcTlXmYQRNbQLBNkJ3aiUoEgQrV/iIR8TU2anjCU14EKpQ7xio7qnHhYZA2//VZRSuIygkP2VAlMDU2LunRUclOjEsuHjPDAscFWh49T8PqxFRluF2wiLSUaEOj9mdW8ZoAADNySURBVMPC53Q8LXSBhsPTU9xjT1QMJhxp/ymcmUKwCqJ8uvnca0KTz4QtBC6sSuGsFVGlYScDwpUJU9gyrgfNsQLBYEWrgPucPlBqaeUDI6oOPJNVRHiDR6PiN29wbhOcH89hEa0SAlUhSGHrnwYr8zkCFCYW+D8EKk4yqNogXJn7Ps5aaZVAhCsEK4YrKgZzz0Mpd6zUcw5GVYEhq0jw5g6FrEIX4bB9kY5iBtJcIiFpbAcxfxLR4tBjzxMImXsLApX5M+DXflREtUZ3MExNPdPfiqjYMA/DefjmFvHV1dkXiSqIIas48GRZy4c2NNpX6Ch4gplOS3pyUrKzM/ZFIhfSFSY07LU/xwe28xVWp/womx6yK/359R8hqjm456MYAaoEmns+djDgGlEpWUc2rKI+bJ1DFceQtXr6pm5stN7UOnOiY2k/rKkp8zHJgZacD6EJ56Hs6nw62OOaz2+tTqHIhPnTi3LpOEvF85vkFFrlLX24BHs+Hje3fN7zqUzMHMw6ttGiD6uIKooha5XMxEkbDre2cqK0AOsc1qxkxsZY6IIcwQpNVoiyPjfBqfA1VqBwL7D/PPw1Qhb+LpHTYNUqm7WClfnIIVilWDmWKgO7AlA5FXMza8sAUYUwZK3C4ScmrbrNh46n20XMgItzWCytSrWgsOpkrTyZcGTe57jmMUGqEJSe+TsIUPbfLVznoE5uYUKUrlolEoc/8llWCaTKwn1btwxqlWduuaYKYshaOavQhQlY7Ic1PwzAyaQJWBPa94SoYhCUjlxNwp94z5prXg1S5mv7+/p38T186Nf41L5uf5/IzQ6ftUI/KwQrVAlkU3mqFuYezUJkVBUYslZGC100NYmvvsGaeNFxMPBm7EIX3JNPRYOAZALR4fcdvkaBCDsYoRn44TCEM1CFv2e+Pnxm0v671qf4XD87fI2IjldoHJzDRxKrViZY8d5OVQhjgr+pWVe0OEejimHIWj5rKZoNhxejg/HMjGTQcJjlet3JBBYNQ/P2KzFhxufVQHQU/DP+gLl+xPsKq0zmP+O4ojKLBSKGJaKiyaG31cy01dsK93MGK6p2Zgzw1tVZu43MmEJUEQhZv7jwPBOyhCFrqeyJIJ+OLMIMwhiM87l5tpBgGyG+5+bwhQEAKy7Hhoxqxtc9kTsgRGmVwJQGK5Rf53ZAqjV4OBdsaxdvpAqOdJj/fgS+1hdfIw3Perb03/B5Sezdw2JgToeQ9avnX3Sbx+NhyCIiInIlO1hl7CqBJlzlEnErcBHVIq9d/bmtrbIPB81/d7C9Q1qverF0vOr3tadqbOd26fv89RJ76inu9nEyE7L4WJqIiMiNdMUqLdm5mKQnJiU1PCzpkWGrWBEDFtUyLdCSqGxlYwSszk4TsF4k7S97uRX4fD6JbN4ivW99h9Sfc94CW+rJKRiyiIiIXETPzaK9xtSUpEdHzceINovX/lZEDoFVIvTprMgDg8IK1uVXSftLXy7Brm77G+ZbwaDUnXq6dL3+jdJw3rPEwzZAjsWQRURE5HQ4D5tOaUGi9NiYZMZGJTtptdjgmStypFxOsvGEboEtt0Bzs7RcYQLWy18pwZ4e++ozUF6+/qyzpPP3Xyf155zLFS2HYsgiIiJyKByux6pVanxM0sPDkhkf16f7uVTK5C5uCSRny2fSkpkpbysZlI9vfdE10vna10uwq8u+ejz0Wa0/+xzpeu0bpO6Ms1ix2oEYsoiIiBwGW6Uy09OSGhqS9KEhyZrP8URfK5oxXJFb2GezcvG4faG00N6n/bqXSs8fv1UCLS321YVhRavh3HPN33+LRLZurXwlRCoqhiwiIiInwIQSZ61GRyTZ16d/okoggxW5mZ7Nis2VvGS634Sq9pf8nnT/4R9reFoqTyCoK1rr3vtnEt64iUHLQRiyiIiIapEJTjhPhRWqzNSUJIeGzMegrmDN26eQyI3wPjHvEW1LUAooctHRKe3XvkQ6fv91ywpYBR6vT6KnnyEb/uqvpe60M2qrjyYtiCGLiIiolugWKBOsZme1iEXq0JCkx8fY24poPuY9oa0KYrHi96Wyqwi2XPViaX/ZK5e0RXAhGrRO3ipr3vluqTvrbBbDcADfOzasfY3H4znd/pqIiIiqDZ7GZ9IapLKzM5Kdwce0VXa9xNugiGqeef948OEPiBfhpRhb8jRgtUvLlS+S9t97uYS6j68iuFwofuFvbtGS74X2CsLqn7VqiCGLiIioGiFYYTtg3ApWmZlZ8+esfl30J/JEDqcVBk248gRDq6/kZ/5zAq1t2mi44+WvlFBPr/2N1cNWwUBrq66QpcdGJD1ighYfpNQihiwiIqKqYiaDhe2AOF91OFil05xsEa0UQhZWs3x+3Ypn5r72N5YPZdrbXny19rkKdi5cpn2l8O8XaG83Hx2SOjRsrWjxvV9rhngmi4iIqNKwamWXXU8ODkpqeEiyk5P2qpUJV5ggEtGq6HtsdtZ6YLFCKNPeds110v0Hf6RBqFSs8u7nmf+eN0tk6ynmAqsO1hqGLCIiogrRZsGxmAlVhyTZd/CZsuuZrMlVeHLNcEVUNHiYkUpaDYpXsDLkjUal6XmXSs9b3y6++nr7aul4gyETtJ4la9/zXglvOMm+SrWCIYuIiKhczMRO+/bE45IaG5PkQL+khgYlO1f6Pj5EZJj3WS4e01XipfOIr65emi95nnS/6c0m/JSv8h/Oj9WdcaZs+OBfS/SUU1d/nozKhiGLiIiolBCsUELaTOrSU1O6aqXBampS8qmU/ZeIqFysrblTWtr9hDwmYDU2SNNznyddb/wDu4pgebfuaXn3rafImvf+qdSdeRb7aNUIFr4gIiIqNvuMVS6Z0O2AmZlpyU5PSy42p9eJqLJ05dh84OyTx7vAmoMJWP6GRmm66LnS+ZrXSmTT5oX/bokhaAWamiXY0yPpERTDGDX//izvXsVYXZCIiKgoTLDKIVjF47r9D+c+tDIgmqDiibmesSKiqoBiMiakeLwe8QaDGqiO5atvkMaLLpKu175OIpu3VCxgFWh595ZWCXagvPsoy7tXN4YsIiKi1Sj0stLVKgQrE7Bw5oMl14mqHIKWef96An7xBkzQOoI3EpUmE7C63/SHFV3BOpaWd29r10bIuqLFoFWtGLKIiIiWC1uNcvGEnutAqfXs3KzkEgkGK6Iao02Kc3mrd5Z91skbCknDBRfKmne9R8Jr11VNwCrQoNXRqT26UJU0g62D+N9B1YR9soiIiJYE2wGTSUkXqgKilxXOWZlrKLnOSQ5RDcIDkwS2+M7qqjQCVuMlz5X1/+eDEurtNYmrOqfKGgTPe5b0vuNdEj5pk32VqglDFhER0XxMaMKkK5tIaLn1RH+fhqtMoSogVqwYrIhqnr7PtY1C3gSs58nad79XAs0t5jvV3QAYK2/1Z50t69//gao4M0ZH42+DiIgIEJjMZAsBChUB05MTWmo9ZYLV4XLrDFVEzoMy7XV10nThhdLzpjfrNrxaoeXdTz1N1v3FX0r09DNZ3r2K8EwWERG5F1arcjkNUDhThS1Des4KPXTicX3CTUQOhjLtzc3ScsVV0vv2d2o/qlpbEcK/r7+lWUJr10p6dEQyE+NsFVF5LHxBREQug2ClPaySWl4dZdazqAxYKF7BYEXkDghYjU3ScvkV0vu2d0gdVoJqdMudx+eXQGubFurA1sf08CGrEA9VCkMWERG5gAlWOROeUFpdQ9XsjOTsHla5VNIKVtwKSOQq6IPVctnlegarlgNWgfbRMkEr2NOt97jk4ABXtCqHIYuIiBwKwcpMMHQL4NSkbgHEWSvdBphO6zZB85esv0tEruKNRKTl0hfIxg/+jURP3lrzAavA4/Npw+JQd49kJicl2d/HthKVwRLuRETkIAhWKLM+MSHJwSFJDQ5IenzcCleplPVUlytWRK7mDUek9fIrZfNHPmaVP3dIwCrAilZk6ynS/eY/lKaLLravUrkxZBERUe1CYNI+NwkTrMa1xDqe3OLgdy4Rs0IVS60Tkc0bjUrrlVfJSf/vnyTQ0aXnspwIK3ORTSdL7zvfI02XPM987cz/ndWM2wWJiKh2oBIgyqxjG2A8LpnpaQ1XqAjIaoBEtCAUuWhqMgHrRbL+L/6PhNdtcGzAOhL+N9edcqqkxkYlOTiobSqoLHgmi4iIqljeagiMM1TYBpiNzUkGlQCnpiQ7MyP5VJLnDYhocRqwmqXl8iul913vrsky7avhq6+XyPr1kjH3zdShIVYdLA+GLCIiqjI4V4VQhb5VhRLrszMaqgpFKxisiGhJ7BWslstQpv2dUndG7VcRXC787/U3NEqwp1dy5l6aGmLQKgOGLCIiqrDCapWuVJlQZfesQrhCiXWsVrHEOhGthK+hQVpeeLmsedd7TMA6y3UBq0CrDjY3SbCrS++tyaFBBq3SYsgiIqIKwGpVKqWhSrf/mY8cmgGjCqAJW4cLVhARrZA3EpWWS18o69//AYmecpprA1aBFbRaJNjdI9kplHcf4Bmt0mHIIiKiMkCoOqJYBfq3aLBCqLJLq2vfKq5WEVERoEw7Gg2f9A//JJGNG10fsAo0aLW2SmjtOsmMjkri4AH7O1RkDFlERFQaCE04V6UVAMfHTbCa0NUqbAvMZ1lanYhKwxsOW32wPvwxXbVxQxXB5UDgDLS1SWTLVu0lmOw7aH+HiojNiImIaJVMUEKgKpRVT5swhVLByQMHdADHthStAshARURlEOjolOYrr9LzWLSw8Lr1sva9fybNl75APIGAfZWKhStZRES0PHagwkfOhCctq44tgCZMZc2fWgEwk2aoIqKKQDXSxN59EuzslPCGjeLx++3v0LF8dfUS2XiS3r+16qC5r1NRcLsgERGdgIaqtK5GZbWs+pxW/0OwYll1Iqo6+bw2KY9t3yb+lhYNWt5g0P4mHckq794gwd5evZ+nWd69WBiyiIjoCIWtf2aQzSUTktNANScZ82H1q5rVc1YMVURU1cy9DE3L47t3Wc14N21i0FoAimGgl1iws1tXAdlHqygYsoiI3K5QoCIXtxv/zsxYf5qAdbikOkMVEdUaE7Qy01OSePpprTYY2byZQWsBWnWwpcXqozU9LamBfqs/Ia0UQxYRkauYSYeWUse2PwQpnKNCOfW5owOVDq4MVURU68x9DC0jUKpczx+dxBWthVhBq1VCa9ZIemzcqjpoxgxaEYYsIiJHQ6hC01/0p5pBKfUxnXDkEKqS1rY/7U+FDw6mRORECFoT45LYv9cqXW6CFothzO9wefdNm3TbIMu7rxhDFhFRzUM4Mh8allDxD4FqdkbSJkylx8YkOz2lZ6vQn4qrU0TkSuYemZ6YkPju3bolLrx+A4PWQjweLRgSPeVUSQ0fktTAAMeO5WPIIiKqGQhSCFTYyocS6um0nqXSEuoz07pCpWXU0fDXXMff0QBGRETPBK2dOyXU3S3hDQxai0Gfscjmk7WZfGpokOXdl4chi4ioKiFQ4clh1g5TyeQz1f5m8TGjK1Ss9kdEtAwatMZlbvs2CbS1SwQrWmzEOy+TD7S8e3jNGsmgvPshVh1cBoYsIqKKQ6DSMIXmvimryh+KUODPw6XTTajCOSoNVCmrMAVXqYiIls/cOzOTExLbuUN8jY0shrEInNHyobx7V7fVR4tBa6kYsoiIygqBygxQeYSpRFwLUFghyvw5d0TZ9Lj53pGV/hioiIiKx9xTUao8sX+/eKMRiWxiefeFaB+t5marj9bMtKQGB7h18MQYsoiISgJhyoQj3eZnwpQGKDOgZ6amrM/NB4JUFkErZcJU5oiy6QxURESlZ+63OMeaPHhQfNEoV7QWoeXdW1sk1NOrZ7SS/X3cor44hiwiolU5MkzZzXwRpFAuGKEqh1UqrEphm18KQSrDMEVEVC0QtCbGJHngafG3NJugtZnFMBbg8frEj/LuGzZo1UGEU1oQQxYR0YKODEEIUyiPjuITc3OSQZiamLA+Jif0zNThZr4ZuwgF/vnCBxERVadcXnsIJvbstqsObmTQWoDJDBJobZPo1lMlOTQgqYF+jnHzY8giIpeyw49W8Mubj1xWS6MjIOlZKW3eO2N9mBCFalS61c+EK3wPPad4VoqIyCHMvRzl3WNa3r2HfbROwN/YaILWKZIeHTVha9BqLUIWM6fI5/MMWUTkQEcGKBOe8hkrPKGIRA6FJArnpHR734y1xW96WrLY5oc/UcUPQSqVsqoo4T+HiIicTYPWuMR2bJdgR6cJWutZ3n0hHo/46uslvG6djp3YPui6qoOFeYY+oLXbraCoFXa1zM0yZBFRjdEAlTvixmaHJwQihCds50OAwk3OfGTn8DFrV/FDoEIpdGs1qtBfSqsk6YoWV6WIiFytELS2bxN/c4tuHWQxjPmhvLu/qVGC3T2SnZ6RlIPLu+ucozDf0Ae11lzDhKnD8wyUuC/sdsklUwxZRFQljngipOEpnXomOOFmFk+YmxjKm6PUuV3mXEOU9blV+tx8D9f1Bmf+OXslSp8w4T+XIYqIiE7EjBUoXBTft098dXWsOriIw+Xdu7rs8u4maNVqeXczB9H5gvnQqr9m3lEoaKVzDYSpwhzEfGhRq8I84/g5xpDnV8+/6DYTsl5tXyAiKg6Epqy1QpTXz7H6hJuQ+R6u4fOc+QKfo+IeruNslH2Twj+jnx/xcfgaERFRiWGrIM4d9fzRW6X9pS/TwEXzQ9CI7dohh77xDZn62Y/16+pj5g+YcyAUFQIV5iaYg+BYQWFeUtgtU5h74PPle4whi4iegZsJbj4IO0cqXD/yRmNuRHqDKoQe/J1CefKCwvcAnx/x9eF/Do78nIiIqEp4/AhaW6X37e+S9uteKt5IxP4OHQvjf3zPbhn8ypdk6qc/tq+Wnj7IRaizH9RqYMJ8xJ6nHF6h0ge99nwDf+LvFj4/8s/ieMzz0y3rbhPxlj1keXx+rUziDYftK0RlgjeVBoYjwsAi9GnHsQFjufDfiS1weLNXCm4ehf8txb2REBEROZfXK9HNW2T9+z8gLS96MbcOnkB831458PGPyORCQcvjNT/DgJaDzyH8nGBuVJiHHQ5BR86pqnc+85jnkbXtt3nKHLLQzMzX2CD+llb9AdMi8EI6YgvVM8zPrdQ/u8P/nUt4AeOvLPJC1zcIegct8HespxBYFVkgyOCfwxsKQWeh/x78Z+DNeuRKChEREdFqIWhtOUXW/+UHpeXyK8QbCtnfoPlgRWv/R/5ZJn7wsORTSfuqq1QgZJkXqa+hUQItLVqVhBZhQgMO72fQ5NT8eST87HDYsKQQjLBX9UQhSwPSwgGKiIiIqOZp0Noq697/AWm9/EruxloEHnrPbd8mfdd/2gSth7RAlcs85ntLY/Q1HilTdUEErLo68Tc1i5cN3haHgJVKSWZqUquYCJZEsUJjf+iKDSqalPID28pQuOCI/94FP4iIiIiczMzNCuXdA61tEt6wQbwBbh2cj5Z3Rwn89eu1oX+yv9/MK1P2d11hqHwhCwErEhF/Y5O1l5XbBBeFPaqHAxZXiIiIiIgqz8zJstOTuh3O19AgkY0s774Q7LhCGA31rtE5bbLvoLXzyR3KFLJMoMLeVaxg+bC0yoC1KKxS4cWYm51lwCIiIiKqJrm8madNSfLAAfFF2UdrMR6/XwId7SZorZX0+JgkDjztlh1Q5QlZHvPCwwqWPxrVFS1amAas6SnJzcyYfMWARURERFR1cjlrG9zBg2aOa61ooa8WHQ8VxYMdnRLecJKkhwa1+qALlD5kIcH6Gxp1SZWFLhaHqnjZuVntMr6qcuFEREREVFoIWuNjJjTsl2Bnh4Q3nqTzXjoetg6Gurqk7rTTdTUrsX+f/R3HKnHI0kIX9eJvbmbAOgGEKlRewfIzVrOIiIiIqMqhGAaC1q7dEurtlfC69QxaC/F4JNDeLg3nnCvJvj5r66BzFxVKGLLMDxKVBHHgreSlxmucBqx4XM9hoaofEREREdUIBC1UHdyxg0FrCfxNTRLdeqqkR4Yl2d/n1MWFEoUsFLqIRCTQ0ipe7k9dnHlj5tELC4UujumFRUREREQ1oBC0tm+TYHuHli7nGa35WeXdm83PaINkJlDe3QQt51UdLEHIQsAKI2C1sBv2iZg3ZC5t9cLCSha+JiIiIqIaZOZxmclJie3aKf5GEyI2bmTVwQUcVd7d/MywfdBhQav4IQsvJn9zk/bEYqn2xWklwckJqws2AxYRERFRbUPQmpqSxIH94quvYx+tRWh593aUd++V9Pi4JA8ecNLWweKGLE8AAatZewaw0MXiNGCZN2GWvbCIiIiInANVB7E6Y0KD325YzK2D89Og1dkp4XUbJHVoSBJP73fKvLh4IQs/JF9DvfjrG1jo4gRQqj0zPa39sBiwiIiIiBwmZ+Z64+MaGgJtbSzvvgjkhmBnl0S2niKJgwedUt69SCFLS7XXSaCpmS+gE9BeWLPohWUClnPLVhIRERG5m5nnpcfGJL4b5d3XaKEHLkTMDzvggp2d0nD2OSaYPi1JlHev7YWIIoQsBKxoVPzNLawkeAIIWLk4emFNshcWERERkdPhjBYq6JnQUG8CRLC72/4Gzcff1CiRjRtl7snfSerQIftqTRpa3cEpVBIMhsTf0MiAdQLaCysRlzSaDTuvTCURERERHQt9Y3Eua8sW8TU22hdpXiaQYuVv6qc/lsTBA/bF2rXykKUBK6gNxdATixZhXjTaC2t6RvIp9sIiIiIicjwzV0ZBuNarr5Xed7xbwhs22t+g45i5cmpoUIa++hXp/+INuvpX61YcsnD2yt/YpFsFaRHmRZNLpSQ9PaUrWcI6F0RERETOVghYV10tvW95m0S3bGHl7YXkc5Ic6JPB//iyDH71P7UyoxOs6LetAaupWbx1dfoiooUVSrWzFxYRERGRO+AoTevlV0rv298h0a2niMfHwnDzMnPjZP+ACVf/IYdu/ab2j3WKZYcsVEXx1TdoNUEm8sUd7oU1x15YRERERG6AOXLz818ga9/3FyZgncrK2wtBwBockENf/6oMm4CVHht11Hx5eSnJhCpvNKoH+FiCcnHaC2tmhr2wiIiIiFzCEwxK43Mulo1//48S2byZCxILMXPj1MghDVfYIpgedVbAgqX/5lEdJRxhJcEl0F5Yc7OSnXLGnlIiIiIiWhwWIlqvfJFs/tgnJNTba1+l4+Rykho2Aeu2W2TgyzdpayMnWlrIsisJ+hrqxRsK2RdpPijVno2hF9aUfk5ERERETuYRf0OTtF99nWz8m/+PAWsxWMEaHZHh/7lF+m90RhXBhSwpZGEvKWr7+yJRDVw0P+2FFY/rFkH2wiIiIiJyOLuKYNs118qa97xXQuvX29+g4yBgHRqSQ//9X9J/wxdMwBq3v+FMJwxZHr9PfA0mYNXVm7/NfaULMi8cqxeWCViplH2RiIiIiBzJDlitL7paet76domczDLtCzLz5OTAgJZpH/jyzY6qIriQRV8JeKEgXPlR6IIvmoWZFw56YWWmpyWXSOjXRERERORc/sZGab3iKuk1Acsq086icPPSgNWvjYYP3fINVwQsWDg5mVDlRcBqbuGL5gTy2YyuYGVjcwxYRERERA6HRYjmS18oa979XomewjLtC7JXsLBFEH2wtEy7S8wfslDoIhw2AauJAesEtFT79IxkZ9kLi4iIiMjpUASu8eJLZMPf/J1Et2zlXHkRKAQ3/uD3ZPhbtzmuD9aJzBOyPOIJhiTQ3CLeQNC+RvPJ57ImXM1Yy54MWERERESOhkWI5hdcJps//DEJr1uvCxM0DzMv1oD1wPdk8Ms36XZBt82Vjw5Z5oXiCQUl0NSoJdtpYdoLa2bWBCz2wiIiIiJyOn99g7Rdfa2c9A8fklDvGvsqzQc7vMYfvF/6PvcZie/da191l6NCFvaT+uvqxYtS7Sx0sSDthRWPWZUETdgiIiIiIodCFcGmZmk1AWvt+/5cwuvW2d+g+WRmpmXsvnul7zOfkvie3fZV9zmcpLQXVrROfPX13Fu6CO2FFYtJFs2GMxn7KhERERE5TiFgvehq6X3bOySy+WS9RvPDDq/R278tBz/97xLf696ABVbIQiXBcFgbDrM6yiLydi8sk9BRsp3nsIiIiIicC2XaW668SvtgaRVBLkQsKDMxISMmYPXfdKMknt5vX3UvE7JMwAoGxd/SKt5AwL5MxzGBKpeymg2zFxYRERGRs/nqG6T5BZfL2ne+R+pOPY0LEYvQgHXn7TL4lZsluZ8BC7y+SEQCbe0MWCeArYGZmRnJxmIMWEREREQOplUEL3murP8/H5QIGw0vClUEx757twx86YsS37fXTJNz9nfczetratZ6/7Qw7YU1My3Z6WkGLCIiIiIHQyujpoueKyd96CMSOWmTeFgMbkGYG4/ff5/03fB5SZiAxXnyM7y+SNj+lOZjrWBNa0onIiIiIufyhiPSesVVsumj/8Iy7SeQRRXBB1Cm/XorYNFRTDRnhZSFaC+sObsXFpM5ERERkWNhi2DjRRdJ7zvfJeE1DFiLyc7MyNj935O+61GmfZd9lY7E9c8FaKn2uTnJYIug+ZyIiIiInAk9YpsuukTWvP3dUn/2uSzTvgjs7hq963arTDsD1oIYsuZR6IWVnplmLywiIiIiB9OAdeFF0vO2d0jjcy5kMbhFZCatMu2Hz2DRghiyjpXPSz6BUu0mYLEXFhEREZFjYYtgw7OfLT1vf5cJWhfr1zQ/LdN+R6FM+z77Ki2EIetIJlChybA2G06yFxYRERGRU3kCAak782xZ+94/l6aLL2HAWkRmalJG771bBr98s65g5TlHPiGGrCNga2B2ekqLXTBgERERETmUxyPRLVtl49/+nTQ/93ncIrgIFLkYf+B70n/D5yS+d7ceq6ETY8iyFZoNZ2ZNwCIiIiIiR/L4A9L47Atk0z9/VBovuNC+SsfJ57UPllYR/Oz1kuAWwWVhyDKsZsMmYE2xVDsRERGRU3lDaDR8kaz/4F8zYJ1AdnZWxh683wQslmlfCdeHLO2FZQIWtgkyYBERERE5kzcSkcaLL5E1736fNJz/HPsqzQcF4HAGqw9l2nczYK2Eq0NWoVR7xgQshC0iIiIich6rTPvF0vtWlmk/kczkpIze8R3p//xnJL53j32Vlsu1IetwLyyUamfAIiIiInIkq0z7+doHCw2HWUVwYdoH687bZeDLX5T4Pp7BWg13hqx8XvLJpJ7DyqeS3CZIRERE5ECeQFDqzzpH1r7nvdJ08XMZsBahK1h336V9sBJ793J+vEruC1nmBaO9sKamJBeP8QVERERE5ERer0S3nqJFLpqe+3zxBoP2N+hY6BGLMu0DN90g8T0s014M7gpZWMHKpCVrXkhZBCwiIiIichyPzyf1Z58jm/7xn3WLoMcELpqHmRujTPv4A/dL3+fsM1hcgCgKV73i8jm7VLv54AuIiIiIyHk8waBWD9z4t/+fNF54kX2V5pOdm5Pxhx6Qfi3Tvtu+SsXgmpClpdqnUap9mgGLiIiIyKH8DQ1aQRArWbQwtDAa+969cvDTn5TYLpZpLzZXhCwNWLNWs2HuMSUiIiJyLpy7n3jwARm/717Jp9P2VToS5sQjd9wufSZgsdFwaTg+ZGmp9rk5barGgEVERETkbPlMRmK7tkvf5z8rw7fdIjkGraOgiuDInXfIwJdulPh+lmkvFUeHLA1Y8bikZ0zA4huMiIiIyBXymayeMeq/6UYZvuXrDFo2LdN+z50y+JWbJMEiFyXl3JBlXjTaC2tqyvyZsi8SERERkRvguEhi/x7t+zR82zdd/8Adu7rGv/ddGTDBM7GbZdpLzZkhywQs7YVlXky5ZAIXrOtERERE5BrWipYJWl++WUbu+LY9L3QfFLmYeOgB3UKpfbC4glVyzgtZCFhpuxdWbE6/JiIiIiJ3wooWgsXAzV+UsXvu1rP6bpKdndUy7X3Xf0rie1mmvVwcF7IKlQTxgmLAIiIiIiIthrFju/TfdIOMP/A9ycVj9necTQOW+d/b95l/l9iunfZVKgdHhSwNWDNWLyzuMyUiIiKiAg1a27dJ3w2fk7H7vuv4M1qoSzB61x1y8FP/xj5YFeCYkGUFrGnJoJIgAxYRERERHaOwotX3uc/I8Ldvc2zVQa0iaAJW/41fkDiqCFLZOSJkIVRlYzGrF5Z58xARERERzQdzxfjuXSaAfF6Gb/2m44KWBqy775TBL98kiX0MWJVS8yFLe2EhYE1NMmARERER0Qlpefd9+zSIOKm8e2Z6Ssbuu1cGvvxFq4ogd3dVTG2HrLzdCwtbBFPshUVERERES6MrWiaIDH7pJhm5/ds1v6KFIhcTDz0o/V/4rMR37WLAqrDaDVko1W4CVnpqSnIJd/Y8ICIiIqKV0/Lue/fIwJdulLG779DdUbUIlbWfKdPOLYLVoDZDVqEXlnlB5VGCk6XaiYiIiGgFrGIYO2Tgphut8u41FrSsPlgPSt+nP8ky7VWkJkNWPpuxmg3PmJDFgEVEREREq4CgNbftKelHeXcErRrZOoiib2P33iMHP4ky7Tvsq1QNai5kYVk3MzNrUvscAxYRERERFYUGre3bpP9z18vYnd+u+mIYKPqGMu19X7he4nvYB6va1FTI0lLtc3OSnZrS1SwiIiIiomLRrYM7t8vBz31Whv/nlqpd0bLKtN+lRTsSe3bbV6ma1EzIsgLWrHlRTZjPs/ZVIiIiIqLiscq775WBm63y7tUWtDJTKNN+jwYsrGBxZ1d1qo2QhUIXiYS+qPCEgYiIiIioVDDfjO/dJYNfvllGv/Otqtk6WKgiiEbKsd07Waa9ilV/yDIBKxuPS3pinL2wiIiIiKgs8pms9tEa+NIXZfTuOyveMkirCD78sPR/9tMS371b58hUvao7ZGEFywQrpHZhwCIiIiKiMrLOaO2Q/ptukPH7v1ux8u6oSTD+/Yek79OoIsgy7bWgekMWAlY6LZnpKcmZFxb3mxIRERFRuWnQ0vLun5fxB++XXDJpf6c80LJo/Hvflb5PfkIDH9WGqg1ZeEHjRYUnBgxYRERERFQpmJeij1bf56+XsXvvKtsZLdQjwFbFg9d/SmK7WKa9llRlyEJVFy3VPjOtnxMRERERVZKuaO3YLn2fu16Gv31byasOWmXa75SBm2/Us2FUW6ouZGnAmp3VBmusmEJERERE1QJBS4th3HSjjNxWuj5aVpn2e2XwKzezyEWNqqqQhW2BWZRqN8mdK1hEREREVG0OBy0TgEa/8z9F3zqI4zITD3xPBr74BYnv3MH+sDWqakKW1Wx4TjJjoyZgsRcWEREREVUnDVq7dz1T3r1IxTCwm2vi+w9L3+c+o1UEWZegdlVHyDIvoLx5cfIMFhERERHVAj2jtXPnM+Xd46sr747FhokfPCwHP/3vEjMBjmpb5UOWCVhI/1qqHU3emNiJiIiIqAZo0Nq2Tfq/gPLuD6y4YbE2Gn7wfjn47/9qgtt2+yrVssqGLASsVEoyM9Mm/ccZsIiIiIiopuQzaZnb9qT0o7z797677DNamelpGb3nLjn4STQaZh8sp6hoyLJKtc9azYZZSZCIiIiIahBWtOa2b9OzVCO3f3vJQQvVtEfvudMqcrGXZdqdwBMISKCjs3IhCwErMzOjFVQYsIiIiIiolmkxjF07pf/Gz8vwt249YXl3bTR87z0y+GWWaXeSQFubtF/7ksqELK0kGI9LdnqKhS6IiIiIyBE0aKG8+5dQ3v22BVe0sEVw/P77ZPDmL7JMu5N4vRLs6ZW2l1QgZBVKtadHhhmwiIiIiMhRNGjt3iEDN98kI3ffcdyKFubBkz/8vvR9/notcsEdXc4RaG2V5ktfKNEtp5Q5ZKHQRSKpy6NcEiUiIiIiJ8pnstrnagDl3e+7x8x/43o9G7PLtH/q37XPFjkIVrE6OqXpgueIr6m5jCFLA1ZCMpPjkk+n7ItERERERM5jlXffLv03WOXd02Nj2mj44CdZpt2J/I1N0njRJRLZcop4fD7xvWPD2td4PJ7T7e+XBgKW9sKatpI8V7GIiIiIyOlyOROuxrVyYGqwX4a//jVd4SJn8fj9Et20Wbp+/7VSf9bZWNUaKv1KFgJWoRdWbI4Bi4iIiIhcQ/toPfWkDP7HlyXGLYKO5Kurl/pnPVvqzj5HAxeUNmSZQIWlUnSx1l5YDFhERERE5Db2nJicB6EqtHadNF14sQS7uu2rJQ5ZhUqC2elpVk4hIiIiIiJH8YYjUn/mmdJ08SV6FqugZCHrcKn2iXET3hmwiIiIiIjIORCqQmvWSPPzXyCB9g77qqU0IQvnsOJxyYyP6+dERERERERO4o1EpfGCC6X16mtM4vLYVy1eOWJZqxiwaoUeAOnxMWH3aiIiIiIichyvV8IbNkj7y14h3lDYvvgMr7+pyf60CHCoL45mw9M83EdERERERI4UaGmR1hdfI00XXWxfOZq3/syzTDYqwpY+bBFEL6yZKfNngtsEiYiIiIjIcbzBoDSc+yzpeu0b7CvH87ZefqVEt2y1v1whBKxCL6w4mw0TEREREZEDebwS2nCSdJqAFerttS8ez1t//gXS8cpXm7+/8hoY+WzW6oVlPliqnYiIiIiInMjf3CQtL7xMGi+8yL4yP6+/oVEan32+tF59rX1peRCwMiZcYRWLzYaJiIiIiMiJPMGg1J1+pnS+8tV6JmsxunwVaGuXliuu0goZy4FQlY3HJTs5KcIVLCIiIiIiciKPR0LdPdLx8ldI5OQtx5VsP5aGLI/fr+ey2l/+SllqtcFCs+HM2ChLtRMRERERkTOZQBVobZOWK6+SpuddKt7w8SXbj2UdxDL/oK++XhrPf460XHaF+QcjenkhCFjabHhqUrcLEhEREREROZE3EpH6c8+Tjt97hYTXrrOvLu5wtQuPzyfBrm5puvSFUnfGGeZrv/2dox0OWJMmYCVT9lUiIiIiIiJnwY6/yIaN2nS47qyz7asndlRJQW8oJHWnnCItl18hwe5uXeE60pErWLlUElesbxARERERETkMtgm2XfsSab3iSu2PtVRHhSzwRuuk4fwLpfmFl4kvGrWvHhOwkiZgsZIgERERERE5lDcSlcaLLpbuN71Z/I1Lq1tRcFzIQr+sYGentL34GvMfeonVPwvNhhMJSTNgERERERGR03l9UnfmWbL+Lz8ogfYO++LSHReyAMEqvGGjdL/hTRI++WTJmmCVnhiXvAlaDFhERERERORk0a1bZeNf/a1ENm22ryzPvCGrIHzSJlnzzj8Rf1Oz5FMsckFERERERA7m9Wqw6n3L27Wi4EotGrJQcbDutNNk7XveJ+GNJ9lXiYiIiIiIHMYErFBPr3S8/JXS+uKrtSjgSi0assAXrZPm51+qaS60xLrwRERERERENcPjkWB7u7RdfY10vPo1WlVwNU4YsvBf6G9pkdarXiTdr3+ThHrX2N8gIiIiIiKqccg7zc3ScvmV0vXGN0tozVr7Gyt34pBlaMXB7h5pe8lLpe3a6/RfgoiIiIiIqNZ5IxFpOP8C6f6DP5LI5pOt6uqrtOT/BJzPQsXBrje8Wdqu+z3x1dXZ3yEiIiIiIqo9nkBAGs59lqz/iw9I3elnFCVgwbL+UxC0oiefLGvf/SfSdu1LxeP3298hIiIiIiKqHcg2Dc86X07+2Cek/syzipptlh/VPB5d0Vr3F38p7a94lXhWUXWDiIiIiIio3JBhmp7/Atn80X/RtlXIOMW04vWw8Lr1uqzW+cpXi6+hwb5KRERERERUvbx1ddJy6WWy4QN/rWewSmFVmw5Da9bImve8Tzpf8SoWwyAiIiIioqrmq2+Q5ue/wGSYP5G6008v2hmsY63qPxX/UuG166T7j98uXa97ozbvIiIiIiIiqiralqpVWq96sax957ul/pzzxOMP2N8svlVHNxwQi5x0kpY87P6DP9TVLSIiIiIioqpg98FCo+G17/1TqT/3WeINlC5gQVHWx1CZI7R2rXS+9vWy5t1/KqENG/V/DBERERERUSUF2tqk+/VvkrXv+3OJnLylLBXSi7YJURsWd3RKx6teJRs/+DcSXr/B/g4REREREVH5BXt6Zd2fvV/Wvf8DesypVGewjlXc/xYsxdU3SNt1L5Wtn/mC1p1nLy0iIiIiIionNBmuO/NsOenv/1G63/zH4kXbqTLutCtJlNPGXuedJ1s//VnpfNVr9JAZtw8SEREREVFJYdGnqUlaLr9CTvqHf5S2F19TttWrI3lyudxtHo/n1fbXRZXP5SQ1NCQjd35Hhm+9RRL79kg+k7G/S0REREREVBxY6An29EjbNddJ52teL9Gtp1QkYOXz+cdKGrJUPi+ZyUmZ+smPZeiW/5bpX/xccrGY/U0iIiIiIqLV8QSDUnfqadL52jfo6lWwq8v+TvmVJ2TZcsmEzG3bJiPf+baMfPs2E7wm7O8QERERERGtjK+hQZpfeJl0v+EPpPHZF4g3ErG/UxllDVmQz2YlPTYqE99/WAZuvkFi27fb3yEiIiIiIloGr1fC69Zrv972614iwd41FdkeeKyyhyxLXvLptMT27Jahr/6HHLrlm5JPJe3vERERERERLQ6rVU0XXyJr3vUn0nDueebrqP2dyqtQyLLhrNbsrEw+8gPp//xnZe6J3+BfyP4mERERERHR0VDcIrR+vXS9/k3S9bo3SqClxf5O9ahsyLLpqtaunXLo1m/I+Pfuk9TQICsQEhERERHRYdgG6G9tlaaLLpGet7xN6s99lngDAfu71aUqQlZBFqtaP3lEhr91q8w++mtJHTpkf4eIiIiIiFzJ7ntVf/Y50nbNS6Tj5a8QX32D/c3qVFUhC9BXKz0yLBMPPyBj931XZh57TDIT4/Z3iYiIiIjIFUy48tXVSd0ZZ0rLFVdJ+3UvlfD6DfY3q1vVhawCbCFMHDwg4w89KBMP3i+zv3lcsnOz9neJiIiIiMipvOGwRE7eIq1XvsgErCul7rQzxBsK2d+tflUbslQ+L9l4TBL798vUT38iY/feLTMmbLESIRERERGR83j8fgmt3ygdL3u5tFx2uUQ2bRZ/Q6OWaq8l1R2yCkzYyiUSkhwcNGHrxzJ61+0auoiIiIiIqPZ5AgENVB2v/H1pvepFEurpFV9dFNUu7L9RW2ojZB0pl5NsbM6ErJ9K/42fk5nHubJFRERERFSLEK6iW7ZK1+vfKO0vf6X4G5uqopnwatVeyCrAVkITtmYe/bUM3/pNmf7FzyU9Ma4rXvgeERERERFVGY9HvMGQVgusO+MM6XzVa6Tp+ZdKoLXN/gvOULsh6wi5ZFLie3bJ+IMPyOQPv6/bCtOjI5KLx+2/QUREREREleIJBjVIhdevl4ZnXyCtV71Y6s851wSuoP03nMURIasA5d8z4+My89ijMv3zn8nck7+V+P79kjo0pNUKiYiIiIioPFDEwt/SIuGNm6Tu1FOl6cKLpOH8CyXU26srWk6mIcv8v1vNR82HrCNhdSvZ3yexbU9JbOcOmduxXT9P9vVJLp2y/xYRERERERULzlgFO7skumWL1J15tkRP3iLRU07RoIWeV+4hj///cV/edkC5cxgAAAAASUVORK5CYII=;" parent="1" vertex="1">
          <mxGeometry x="185.37" y="950" width="49.27" height="49.67" as="geometry" />
        </mxCell>
        <mxCell id="AzmfuMKhb9_MXkvoqs_1-10" value="" style="shape=image;verticalLabelPosition=bottom;labelBackgroundColor=default;verticalAlign=top;aspect=fixed;imageAspect=0;image=data:image/jpeg,/9j/4AAQSkZJRgABAQAAAQABAAD/2wCEAAkGBxAQEg8QEBAPDQ8QEA8PDxAPDw8NDxAQFREWFhUSFRYYHSggGBolGxUVITEhJSktLi8uFx8zODQvNygtLi0BCgoKDg0OFxAQGCseHx8tLS0rKystLSsrLS0tLS0tLSstKysrLS0rLS0tLS0rLSsrKy8rLS0tLSsuMCstLy0tLf/AABEIAKEBOgMBEQACEQEDEQH/xAAbAAADAQEBAQEAAAAAAAAAAAAAAQIDBgUEB//EAEkQAAEDAgQBCAMMCAUEAwAAAAEAAgMEEQUSITFBBhMiMlFhcYEUkbEHFSMzNVJicqGztMElQnOCkqKy0SQ0dOHwQ6PCxFWDk//EABsBAQEBAQEBAQEAAAAAAAAAAAABAgMEBQcG/8QAQBEAAgEBBAQMAgkEAQUAAAAAAAECAwQRITESQVFxBRMyM2GBkaGxwdHwFCIjNDVCUmKywuEVJHLxQ1NUgpLi/9oADAMBAAIRAxEAPwDnF8g/SQQDVICAAgBCDQAgBANUAgGEKgcgYkICAEAIAQCQDCAC2yAAoBvQpCEBAJACFBAJQDQCQAgEVACFBACAEBfBQ1qIVMggNWNv67d6pUizD3oXRIe2yGWriVSDCEEgGFQNACAaFBAUwIVDeEDJQg2s2PC9kBTWdo4a/R3UAnN16vt1VA3sAGx/sgZihC26C6AsG+iFMyLIQHKAlAJACASFBACgBUCUAIBIAUAIUEAIC+ChrUQqZBAaKgeY9pQXsCbqkbEhBhUCQDCAdkA7IAshRgd4QprGzwRlRpJHppw3UTIYFnh6wqQkgoCm8N9NreaXC8bjftGt9tkuF4y7v/30S4XmIahBuVAgoDQa+KFzIeEIQoBIAQCQAgBQoKgSgBACASgBACFBAXwUNajNUyNAaKgFQCEBCDCoEoAVBtER4edrqGkDjpug1EhUgwEKbwjioylg6+KgMpWWWkyGBCEBUgkAlAW420QCBVIIlADXKFNX6oUxKXkFdACASgBAJCjCEJUKCAEAIBKFBACAvgoa1EKmQQGgC0BoBIQEIMKgSAaAaAaoGFCmjQqU32sFgqEVSjYM3RGruAGp9Smsy8FeyX0E2/MzW7eakt7F00XsOXHU/wAS7UfK/omzuiew6H1FQ2sVegQDaOKgJKAfBUhDiBubeKhUrzaGmkfYsjkeDsWMe8H1BW5sxKcIu6TS3sqaGRmr2PYOJexzB9oRpljOMuS09zMrh2oIPhqsm2mJoQhTN7IUtwChojKChLge0W0VBkhkShRIAKAFCiQAhAQpfBQ1qM1TI0BrdUt47qkFdCBdAO6pBIBoAugKCFKCFN4xx7FGU+3CMMlq5RFC3M86knRrG8XOPALUYOTuRwtFpp2em51Hh3voR1ctFheHEMnzYlWaAxNGZjXHZpZew3GjrnsC9GjTp54s+Mq9utvzU/oobdfbn2XI9eHEcTLLw0dHhsPD0l2Sw8BYt82relUuwSS6TxyoWFSuqVZ1Zfl/m+/qZg/GK7/5PBQewyjL67Kac/xRN/CWX/t61240biOLuB+CwzEmdlPLc28XOt9i1pVNiZzdCwJ8qpTf5l6I8atxGiuW4hgr6Mk2L4RzYJ7cwDL+RKxKUfvQuPbSs9peNmtSn0PHu+byOElIubdW5t4cF5j7urEiygOwwPke0xCrxCX0Sl0c1vVlkB236oPAAFxvwXohSV2lLBHx7Twm+M4mzR059y97cl0nr4XisVyzB8J5/L0TUzAM9b3XJ3vYuB7luMl/xxPJWs87r7baNG/7qx7l5JrpPsqMVxVh+HrMFo/ovlcHjus4n2rTlU1tI4ws9ikvo6dWe5ehMWM4m4/A12B1R+aJTm9Tbe1RTnqaZZWWxrl0qser1Ir8QrB/ncEhqmaXkhyzafOAAefXZSUpfeheao0aH/BanB7Hh5o4zlLUUMvNuo6eSleC8Tsebi+mXKMxA/W4Beeo4Pkq4+1Y6dpgmq81NYXNf6XmeGNFzPYdfgzGOwjEXljDIyojDXloLwDzGgO44+td4pcVI+VaJyXCNBJ4OLw/9jfFIGc3ybIYwGV0XOWa0c5eSn63ztzv2lWSV1P3sOdGctO24vC+7owlkeZy/axlfUsY1rGt5kBrGhrReFjth4rFfls9XBUm7JByd7d+e9nNLkfQEoAsgEgCyALKFFZACAvgoa1EWVMggNLLQGgBCAqQEAkA0AICgqC2hAbyG1gsop2vpHvXh0Rj6NZXjnC+3Sjite4+q1zQPpPJXqv4unhmz4Kh8fbZaWNOlhdtf8tdiuMWvZhNPHMWCTEqtpewyDP6PGdSbfON/EkngEX0cb9bNy0uEK8oX3UoYYfefp4LpZtU0FPTtjqMZlmrKuUZ2UocSWDsNiAO/UN3ABtdVxisamL2HOFerVbpWGKhBZy2+Pm9eBg3lNhnV96o8naTHm/p/NZ4yn+A6/AW3P4l39d3j5El2BTEdCqw2S/RkYXEA91i8D1BE6UugjjwnSV18aq2P2vFnrR0OJRMz0FdFi1PreOZzZSR80lxN/4m+C2lPOMtJHklVsc5aNopOlLasPD0Z+aPvc3Fjc3A0AN9l5T+kWSOg5CYO2qq2iQAwQtM8oPVcGkZWnuLiCe0NIXWjDSlifP4UtLoUHo8qWC832d7R6zZTjVY90rzHh9MHSWuWhsI28HPsSTwAI4Bb52WOSPI4rg2zJQV9SeHX6LZreJtS1U2KPfDBJ724VTMu7m7RfB62zHtIBNuqBvc71N1HcsIoxOnCwxU6i4ytPbjj763quPkOLYJT3ZBQOrLac7ORlee0ZrkfwhZ06Uco3nZWfhGt81StodC1dnqxOx3BpejNhbogeMDmi38LmFNOk84j4ThCGMK9+/+Uz7MOw6jeR71YrNRyE9Gnmc5rSfmhpy5vHprUYxfIlcca1evFf3dnU1+JeuPkeTy0GINMLMQbE4jOI54wy8w6Oa5FttN2t3K5VtPDSPZwa7K1J2dvG69PVn7zZy7wuJ9Q6zAz+h8V/bwe2Fd4c1I+PaftGhuf7j7MT+K5L+MX3lMrPKn72HKjzlu6/CR4vuhn9JVn1oPw0S51ucl71Ht4J+p0+v9TOeBXM+gK6gC6AEAroULqALoLwzIW8u+ihq/ATdUIsTbmwobuQC3V4befatmOggtVMishAVICA2DRbt8VDRDxa21+NlTLIQhbQqD6IhbU8FHsNIxnccrjxsfYqI5o7X3TCPS6Rh+JbTRb6DKZXh38rWr0V+UkfD4Ev8Ah6klynJ+Cu72Pl08DFqcyaRt9CJvtzQmJcfDrpV5xX9BOC03wfNRzen23f6PO90lkgxCYvByuZCYSdjGIwDb9/nFmvfpno4HcHZIqOabv33+lxzYK4n0zduo7wss0iKaplifzkT3xSfOjcWHwNtx3FbTayOVSnGotGaTXSZOaTruSbnzUvOiVx2HIYFtJjT2/GCkGW3D4OfUefsXejyZ7j43CavtFli8nLziRyY0wzF8vXysDu3msuvlYyfalPm5C2426z35efu4rBAXYNiLYgTKJ2ulA63M/Alx8MrX+pyQ5qVxLTcuEqLnldhv+a7vu7jiwvOfaG5ASRfvQZG89bK9rGPkkkZHm5tr3F4Ze1w2+w0Gm2irbZiNKEZOUYpN53azJpWToddgrbYRiv7aD+qJd4c1I+RaftGhufmfTifxXJfxi+8plZ5U/ew40ect3X4SPE90D5Rrfrxfh41zrc5L3qPbwV9Tpbn+pngBcz3kqFBACACgBQokAIDQDRQ2lgaABo70NLBEZihm9iWzBo/UZvI+KFZAQyF1SAgKDrbGyADc96txLxWQGkbUBtKbWCi2lewwetER2+LxHEsPp6qMZ6iiaYKpg1cWAC77cdg7wc7iLLvJacE1qPiWaXwdsnSlhGpjF9Ozy3pDZGzGaWNgc1uJUkeUB5AFTCOPs14OvsHXTnY9KJKUuDq7ld9FN6vuv32rpRNHi8FTGMPxZr4JoehDVO6D4zawEhOxtbU3a4AE62JKSktGZalmqUZ/E2N6UZYuOp7vTNajyMd5I1NJ07Cop9xPELty9rxuzx1HesTpSjjmj2WThGjaPl5Mtj8tvj0Hjc5tbYLjcfQbxG8W6QUWwdJjm9a1cLzqOQGKRxVBilI5mrZ6O++jcx6l+43Lf3wutGV0rnkz5nC1CVSipw5UHevP16i8Ne7CKyWnqWl9LM0xSki4kgJOSa3G1yCB2u3IC1H6OTUsjlWS4Qs0alJ3Tjiuh616PcbPp58FnFTB/isPnDQHA5mPiOrWvcNnC/Rdsb95CXOk71ijCnT4SpcVU+WpHuetpbNq1dV5dZyZpq9rqjCnta7eWikIjcwn5vzOOnVPAgKunGeMOwlO31rK1Stiw1TWN+/b47UzjKymkieY5WOikbux7S1w7/Dv2XnaadzPswqRqRUoO9PWjBQ2CAFAdhgRvhGKftoP6ol3jzUj5Np+0aG5+Z9eKj4Lkx9aL72mWp5U/ew40Oct3X4SPC5f/KNb9eL8PGuVbnJe9R7eC/qdLc/1M8ALme8ShRIAQAgBQokICFPpYLC5UOqwRmNdShFjiPOFLi6SJXQ5GkR4cDp5oEQRZCAFSAgGgEgKBVIfTCNLlZewq2kPcFpGTM+KFPT5OY1NQy87F0gbNljJs2Rt9j2Ea2PC/YSDuE3B3o8trslO009CfU9j95o6efBIa3/G4TJzFQwiSSlLhE+N/az5t9R809o1XbQUvmhnsPmRtdSzfQWyOlF4KWaa6dvijKTHIKr/AA2MQOgqGdBtXGwxys7M7bbeRad7DdTTUsKix2mlZKtD6Wwz0ov7rd6e5/6ayvZvFS4jhjRLRytxChPSsy8seTtyA3b9ZhtxPYrdOGMXejMqlktr0K8eLqdOD7de59RnFDhmK/FWwytd+poYJXHXS1g6/dld3FLoVMsGVytlh5X0tNa9a813rpRz2K4RPSP5qoZkv1HDpRvHa13Hw3HYvPUg4PE+rZrVStEdKm7/ABW9e0eTIyyiZ3MyEB22G47TV8LKPEzke3SnrbgOabWs9x2O2p0NtbEAn0RnGa0Z9p8WtZKtlqOvZcU+VD093rVgVbEMFu17G1uHPvfQugLXb9vNE9hu034nVPnpdKM/2vCOMXoVF2//AF47ghwekrHCfCag0VW27vRZHGNw4nm3A3A8MzdhomhGeMHc9hZWmvZ1xdshpwf3lj2/zc9eJc/KE6UmOUhkt1ZwwNmbwzjLo4fSjPdYo6n3aqJGxLnuD6l3Rfhuxy3S7Tz8Y5GHm/ScPl9PpTc2bZ08dtxYde3ZYOHZxWJ0cNKGKO9n4UWnxVpjxc+5+nh0nJLifWBQHXYH8j4r+3g/qiXePNSPkWn7Robn5n3Yn8VyY8YvvKZallT97DnQ5y3dfhI8Hl+P0jW/Xi/DxrlW5yXvUe3gv6nS3P8AUzwAuZ7hKFEgBACAFCiQG0TLalQ3FXYlHXwUNZmcjuAVRmT1Gapg+kxabqmtEzVMlv1Ad5HxQMhoVIWWoCChBhAWxtzZUhvMbWAUW0rMHFaMia6yjKU09/C3YoUunqpInNkje6N7dWuYS1w8/wAlpO7FGJwjOLjJXp6jr6XlbBVMEWKwNlDdGVUTcsrO8huo/d3+auyqqWE11nyJ8G1aDdSxzu/K8n2+fabtwirogavCqn02lcS5zGWkuBvnjGjyNrts4dgWtCUMYO9HN2qhanxNshoT25dj1dd6JEVDjAOQMw/ETrl/6NSRqfE/zD6QCny1ehl0rTwdyr6lLvj77NzHhuNOYXYbi7C+K4YJJDeSF36ri/i3XR+47xsU/uVBWsqkla7E7nncsntw27Vr35+HynwJ9HKYnHO0jNFJbrsvx+kNiP7hcJwdOVx9KxWuNqpaawazWx+mw8FwUPULggPc5P8AKyqoug0iaDY08t3Mt2MO7PLTuXSFWUdx4bXwdRtHzNXS/Es+vb49J7jcNw7EiHUT/e2t6wp39GNzhxjtttuzbctXTRhU5ODPE69rseFdcZD8Sz6/57RzY3NAfQsap/SYT1JSLytG3OMeOva41FnDjc6JptfLUV5FZKdX+4sE9GWzVua1dfyvcfPVUE+GFtfh0/pFFJa7us0C9skzRuL6ZtCDpod8uLp/PB3o3CtTtqdntMNGovd8X5ZPPHVrjVBBidO/EKNnNVMWtbTDUnS5e2250JBHWAP6wsrOKqR0456zNnrVLFVVmrO+L5MvL3luOFXmPuHX4H8j4r+3g/qiXeHNSPkWn7Robn+4+zE/iuS/jF95TLU8qfvYcqPOW7r8JHjcvx+ka368P4eJcq3OP3qPdwV9Tpbn+pnPWXM9xKhRIAQAgEoU2iZxKhuKBxv4IXMbnaaKFbwMCVo5AgNg7vVLeKypC4uw7HRAgy2v2oMhA8FSEuCEG1Uh9cIsLrLNIxe5aMGZKFEgG1AUBdAJ54DYIVn34JjM9G/nIHlt+sw6xyDse3j47jgVqM3F4HmtNlpWiGjUV+x61uftHS4/TQ19McUpW8xPE4emQtNi1wsedBFtRo7Npca7iy7TSnHTjnrPm2WdSy1vhKz0oy5L8vK7b0MdfL75Yeap3+coCI5nCwMsJt0jbxv4tfbdJfSQv1olKPwds4pcipiuh+8NzV+Ro2Y1eEFz+lLQTBgces6I5Rv2ZXj/APNSXz0txYr4bhG5cmqu/HzXecbM3ivOmfbaMSBZUyRZChbbuII7iNigO25P8pGVTW4fiXw0UhDIahx+FikOjbu87B2+utwTbvCppfJM+La7DKg3abL8rWcdTWvDy7LjLBpn4XWyUM9pKWdwila4dB7JBlZMBw0IDu4Ea5QpFunPReTNWiMbdZVaKeE44rams15rq2sMMDsKxYQgnmXyNh1uc0M1ubv2lri3X6Lu1I/R1bhWut3B+m+Ulf1rPtWrpR4XK3DhTVlTC0WY2TNGOAY9oeGjuGa3kudSOjJo91grOtZ4Ted2O9Yd+Z7GB/I+K/t4PbCtw5qR47T9o0Nz/cfXifxXJfxi+8plqeVP3sOVHnLd1+EjxvdCP6SrPrQfholyrc5L3qPbwT9Tp9f6meDuuZ9AzKgEgBACAuNl/BQ0leW430GyhohzuAQN6gGyDUZqmAQGi0BoBtCBG0huL9mhRFZjdDBW6pSo2XKuRDaY20CygzB2v5rRCEAID1Xcn6kQR1bYzJBIHHNHd5jyvLTnbuNib6jvW9CWjpajyq2UXWdFu6S269eHu888mw8fYsZnryMwEIBKA7T3OBZmKOfpAKS0t+rtJa/ln9a9FDKW4+LwvyqCjytLDu/g+fkY0ihxt7uq6kbGDwMnNzaePTb61KXIkdOEWnarLFZ6V/VfH0Z9HJx2TCcUe7Rrntibfi4tYBbzeFYc3Ixa1pcIUIrUr/H0PBwXD5Kt4gjy84Wvc0OOUHKL2v2rzxg5O5H1K9phQp6c8sO8+PEKKSBxjlY6J4/VeLG3aO0d40VaawZadWFRaUGmug+bJxWTrcXlS8txL2EiwuSdABvfgB3peDtPdOhLqmkYNag00THkblxkIb/NmXor8pLWfD4Fd1GpL7qk33Y91xfLdvOYxSsbq4egsdbg7ni4/wArgVauNVdRng16HB1Rv8/hd4nle6TIHYhPb9RsLD48213/AJLnX5bPVwPFqyQv13vvPpwMfobFP9RD7YFqPNSOdp+0aH+L/cfVifxXJfxi+8plZ5U/ew5Uect3X4SPF90T5SrPGD8NEudfnH71Hs4J+p0+v9TOfaVyPog4XUBKASApjboVI0J4BQ0ZuchLyEIaX0UN34GapgEBotAEBoNB3lC5IcR4cChEQ9tihAaqQ+uMWF1HsKYPctGSmP8AL/hUZpCLQf8AlreKAzcFSHack48QiibPQzx1LNTNRl4LoyHEasJ0uLG7SCbjQrvT00r4u/oPjW52SdR07TFx2Tuz6+7FNbjatrcLqXFtdSz4VVHd7GOaCb72y6+Lmea03CXKVzOdOlbaKvs9RVYbH/vwfUYjkTTy/wCVxSllHzX5c47jld+QWeJTykb/AKrVp4VaEl73eYHkLFF0qnEqWFnHLlzHuBc4a+RV4lLORP6tOeFKhJv3sXmXU1bJovevBopJI3OvU1DgWmTbVziBZpsLkgaCwFkbvWhTRIU5U5/F26STXJjs3Ly24tixxrYIYsGoz6TUSSB9W5g60uhDO62VpN+q1gvxSeC4uOL1izN1akrdW+WKV0b9m33m3gHLNzKKkpcLjcHvFp6pw2LiSQPNxJA4Bje1KvyRUEODlK0152uSuWUfe7De2c1gMJkmY1tQykfqWSveY2h4Gjcw6t9rrlFXvO4+naZqFNtw01rSxw3HdVeI1UbOaxWhFdANRPG1ryBbrBw0v39ArtpzWFSN62nxoWez1JadircXL8L8Nv6keP7zYPU60uIGjcf+nVC7QewF5aT/ABFZ0KcspXHpVqt9DCrR0+mP8X+CNRyAduK6kLPnXP8Af80+H/Mif1pf9KV5dLS4XhrhNLUtxGpYbxRQ5ebbJwJsSAR2uPeBeyJU6eLd7MzqW22ri4Q4uDzbzu7u5b3cb4dTPMr8YxMcyxpD4ITo97wLRta06gC2g3JGY2GpsU7+MmYrVI8WrDZPmbzepLXe+nXsWG7LkrCZJqnG6wc3DHzkke5zPtkGX5wa3oDtJHEJTxbqSFukoU4WChjJ3J7s8dl7xexbzhsRrHTyyzP60sj5CL3tmNw3wAsPJeeTvbZ9ulSVKnGnHJK46nA/kbFP9RF7YF2jzUj5lp+0aH+L/cfViZ+C5L+MX3lMrJ4U/ew5Uect3X4SPI90b5Rqv/o/DxrnX5xnr4J+p0+v9TOcAXM+iIFZKNwQEgXQGp00CGjNxUIQhAQpfBQ1qM1TI0BoqCmC5QqV43H7EDZF1TJu7UA+tCsmNlytGT6JHWsOCylrK2fNItGSFAU19u9CjIuQgOqwTDsOljjPp76CtbmDi7oRg5jlLXHLra2z13hGDWdzPl2qva6c5LiVUp9r7Mde1HTDDcXDLNnocWg4NqGh9/s183ldtGptTR8rj7C5XuE6Uvy4e+w8uowiQ6TcnmHvpq3mW+TYyVhxeuHeeqFpiuRbH/5Rv72EGD5T8FydcT2z15c31PNkUdkO8StOkvntvZD0PWdhuKPjyPko8EpAOk2mADw3iC4Gw8Q4LejNrVFHk4+xxnpRjKtP82XvoaZ5BxzD8MY5mHD0yqcLOqpOkwfvaZhxys0NtTdc9OFPCOL2nr+EtVtkpWn5IL7qz99Lx2I4apnfI98kjjJI9xc97tS5x4rzttu9n3IQjCKjFXJZI+vA2UzpQKx744C1wc+MEua63RNgDx7itQ0b/myOVpdZU76KTlsftHdYRhDmfJeLxvbwhkcCB4t1A/gC7qD/AOOZ8StaoS+uWZ7164fqLr8MrySZ8KoK88ZInMp5T4uJBPqV0Z/eimZp17KuatE6fQ72uz+TzPeNl7nk7Nm7BiMxb7VnQX4O89PxctVtV3+CPToKCuab0mD0VA8aCaolbUPA7iOkPUtKM1yYJHmq1rNLCtaZ1Fsirv4Mq/DqeJ/P4zX+mTN1bSx6NHcGN1Iv3NB43UlGKd9SV/Qao2irOPF2GjoRecn6v+XsOY5Wcq31uWNjPR6SO3NwiwvbQOfbTQbNGg791xqVXPDJH0rDwfGzXyk9Kbzfp65voOcXI+idngfyLif+qj/9dd4czLf6Hx7T9pUP8X+4+jE/iuS/jF95TKzyp+9hzo85buvwkeT7pLbYjU94gP8A2WD8livzjPVwO/7OHX4s5oLkfSJUKWwoDUiyFMnFAZqAEAIC+ChrUQqZBAaFUGg0HeUNZIgqmWJDJvTHWx2KMqNmty3PqS+8ZHzuctGSb3QpNlCAgNAbDvP2IaJaFSFRyuYczHOjd2scWO9YRO4zJKSukr9+J6EHKSuZo2sqbfSmfJ/UStKpJazzysVmlnTj2XeBcnKivcLGsqLfRkLD622KrqT2mVYLMsVTXYebU1EkpBlkkmI2Mr3ykebiVhtvM9MIRhhBJbld4GSGgUA7oUrQjXVUl9x6lJitQ0WjqJ47cGTSNHqBsmlKOTOcrPRnyoRe9I1dyoxAaelz/wAQ/st8bPacP6dZf+mj46vGquTr1VS8HdpnkDT+6DZZc5PNnWFloQ5NOK6l4nmgW7lg9AIQEBbZ3hpYHvDHG7mB7gxx01Lb2J0G/YEveRHCLek0r9t2PaN1RIcgMkhEfxYL3kR7dTXo7DbsCXsaEVfgsc8M9+3rImmc85nvfI47ue5z3Hs1OqN35ljGMVdFXLowJCFBQGgGUX4oUgvKEIKAFACFBAXwUNaiFTIIDZjb/mqaSvG4/ZsgbM1TA0BTSqQ1llvYevxRK4NmJKpBKFKKAbO/YIBON0AwqBFCFNb53+zVQoGPy7j7EFxJCASEBCggGqQuN9imZUbytvqFlFZ80ipCLqAEKFkArIAsgFZAMIC2NtqVCmbnXQgkAkAKAEKCAvgoa1EKmQQH0AWHihvJGZVMMSpAQDBQgXVAIAUAwUA3HgEBKoG1AMlUgNNv91CmgcNNxbghTN/9vYhGSgBACAaEEChT6ad/BRoqJqG2VQZ86hAQCQo7oAuoAQptGziUKkZyOuhGZ2QgWQCUAIAQoIC+ChrUQqZBAavddCtiuqQVkAIQAqAQAhAQAgGgBAMKgCgEoAuqBoAsgEoAQAqB5VANqoPqPSHes5Gj5HBaMkqFEgBAMBAbwxX1OyhpIUz+AQM+coZC6ALqFC6AEAWQBZAVbRQ1qIVMggKVAIAQg7oBgoU1IBQpk5tkMtCVAIAQgIBhAMoCUAIAQAgHdUAgGEBWZQpXBCjZJYoQqdl9QhWj5ihBKAYQptDHfwQqRc8ltAhXgfPdUwQVAJQAgBACFBAF0BoDooavwJuhLw0QYCWiDQAhAQDCAqPcIVZhJugZCpAQDQAgGEAFCCQAgBACAEAICgqBBQpoNlCkFUjPpb1VDSPlKpkSAaFPri2UNnyv3KGZZkoQlAIqEBACAEKCAEBXBQpCpBoD/9k=;" parent="1" vertex="1">
          <mxGeometry x="170.82999999999998" y="1030" width="78.35" height="40.18" as="geometry" />
        </mxCell>
        <mxCell id="AzmfuMKhb9_MXkvoqs_1-11" value="" style="rounded=1;whiteSpace=wrap;html=1;" parent="1" vertex="1">
          <mxGeometry x="360" y="800.18" width="110" height="289.82" as="geometry" />
        </mxCell>
        <mxCell id="AzmfuMKhb9_MXkvoqs_1-12" value="Ingestion" style="rounded=0;whiteSpace=wrap;html=1;fillColor=#FFA41C;" parent="1" vertex="1">
          <mxGeometry x="375" y="810" width="80" height="20" as="geometry" />
        </mxCell>
        <mxCell id="AzmfuMKhb9_MXkvoqs_1-14" value="" style="shape=image;verticalLabelPosition=bottom;labelBackgroundColor=default;verticalAlign=top;aspect=fixed;imageAspect=0;image=data:image/png,iVBORw0KGgoAAAANSUhEUgAAAVwAAACRCAMAAAC4yfDAAAAAY1BMVEX///9yjpu5xs1sipe2w8vf5ei+ytFui5mJoKuxwMdpiJbq7vD6+/vQ2NyXqrS6x87Ez9Xx8/XL1Nnk6eynt7+esLljg5J4k5/X3uKOpK6ru8OAmaWbrreEnKfg5unP2NxbfY3fDo1YAAANBElEQVR4nO2diZajKhCG4x7RtFtijEk68/5PORS4SykSszX5z7n39LSJwtdYFEUBm81Xs0p/Xl2Cv6vwmBevLsOfVUS886vL8FcVEsMg6atL8UdVWoZhHMNXF+ORCsOkVvjUigYeZWsQ95nPlFSISvoWSVakrkllM8FPZuTG6eAO9z9IrAODaxhv2HTLHJFcFxE6cQN0oGhQW9O3hfKduyrwSzhbq7zrNlJa2hB8yxDK20p8OUlNIVchXBf5nH0f3GvVcA0SKN7BieO46g+LmOmWja5sNlkc0ReSXUno7xN+HS7HtYYO4R1wwxQn+zS4MWlKfFK9Ba2Gzwt7s8G40f/S4ZUNrSy7sqM/J/Rn+FPubBtMfVOTocuiDjeYRPskuInXFlnRHQtZIXhb3dlmFMfwb2iEod1eobW1U4deAqqJWcM1a7gRlbka3GKG7XPg7rvFV3PHMtuMTfvGfua0QijqhgGlNHfsSmqaMb0SsaY7gkv/FqK+WRXuLNunwHVIt8xEqU+72XYWmdyTq2hR3nbI3vqMYwbe9u+GGYdYDFckRbi/s2yfAvfs9Qqdq/RpFFtIGyh0UDUtsAH03xG7Aj81OAv2gcfCTebZPgOuS5YUWixqWCNovdAu+y2XXSlsVr6E497wdx/gZmES3swarrgOanDjebZPgJt4w1KTePFN6DuYAk3WGXG4ScSgZZ0rNdzqwazczL2vOjQXPDF3+OIowc0kGu4T4J7GZfcWG4YUCkDZuVBcCteMwHcHH6G+AhUJxnC5eq7YKnBlGu7j4cZEUOzFzq5Zm1dgt7P5IN78ZQWmvwvZ/wVw4zSFQX8FFzyxaBW4Mhb38XATYcmXBnCgLpuqlXI/d3crspBfgSqkrLdqzEJjcx/Voc27Yc+Aux1ZXE43mf9qRw60Vd+n5QDTWtEaXIlbuI5v+4+FG8mwfTTcoaegaBhaC2dv+nDTtoghDONqVyx6KFw5q/BguIG43S41DHTIZbKYC8fVgQtX3PaKy8vJB2oPhCvlKzwaLhgFhO+S8FjAx2KsRyt6cKEJJbzc9ZWQUS1EsYVbwDS4uwLcaZPbBncfCbcktIQ/YrreUf4+RU2TN8kOXG4AqPhIAVi7KRjERBi44bHpwd0V4KYIJfYMtwgSFsNIhh3LmnCL3DCO7hYxDNZB+kaxXcUJaU9Fm3AVQ6yuxPUVCDtmVWwfoCa27XdCjm3gf3B3BbgYJaoow+uxItwECPolbnalg4+O4/B3OaQ/hZvAcX5FV9jI19mlOyfs/qr6uNNocPdV4Q7NrNTXFODSoZl1cc8YW0pedVZiXfm5JRS5Yt8IUbijEUpPkXgKTWEOzQeD6x7QhkubxnskiRQYKTQEEqJu7nTUxCkQLfP6eRD3aEc4Wmi6+4U3fROhcO+caZQVGFyvdBFXYbnZfSvhcJ9j6LbM4PqTaA2V+Ng76MVwwcO9RtF1uuG+jdldqNfCvXGDu0ecnK5hkPd230cvhRvkYHCj6DjL9k3Tx2b0Srjh2TO8H9f9mW+4YBl+5+/4Znol3IPFDO5sb1bB/by80hfChYmdoynRm9V0VTOcXqbXwc0gPk4NrkRvVomYKz4+/E3Ly2l7vW63P3uzeEhtXwY3PHqGdXBNqd6sprvWwCaJtx4hXiNCrOPhtrrZeRlcanCNc2nPjc36huE4N7h2UrG6cwvhbptb46daxCon65zddmL1Ji6yjn7R2EKR9TR4UpAFQmWSsQU+k25ZC9qtIWF2y5yIlHe85OhMsL+nRcqJ1ovcm/SjYr2IFsbW7Ee7hjMRd0bFAmRCck5zZheJubYB9+w8+WRyxMsvF8+diI+jWnkO7YxPms3Qnb7/HFw/n3tqjg5WPgXunk2aXZfZBF6TaW93Bu5F4oUh/mfD3TEP13UX9WY1p4sy3PAqZYww0/MZcCGf0dtDT7oYrTET252CG54lPep898FwtyykYJruSc3sTjgkU3DlQhhMQtPzEXAhdelM261sUGFUmQl/bALuXt5BEc/mfwJcSF2yfICLJN/NaiL6iMPd5UueIEoq+AS4FKl1Abal/Gs6rDs6ksLg7jeLPBNP1HQ/AK7LJnboJ6cyFebqjqZhYHBLLI0Se4LA6r4/XJbkzIyCfDRsLHS1BAZgqUctckneH+7Jou8cNNwl0TCBEI8BA7BUonfj7eGm4CnAd6OpFJt5WcgmQ2vBNcjnwQ2PbEYSPnhfwzXIMkd/+f3H9Xh3uJCmcGJG4XIvBXHargRcz/IsQqyZDwrcPTm4cqsgHgA3g0Rc/jkFnIPaC+Mrs3AJuV72vhvbh+Ok/yAYR8jBTeOOUJxu3NMacK/UxWUxhehw/+trifq0GbjkGDffCnfHiQ9747zQ5fm5qtM8KnAhv+bKvujeaXFZnZY4+tVXBvGuqQjkOLT51nBZb+av1XDFcfNJuNYorWTK1x69GG8N16S92Q97XKQ+OJup1BRcb1y0EH+DxnmV7wwXMnF5bxbt7/JxG5HxerEJuMIY+A41DGTUzN8ZLqTnH3jDvd7NlddqnFeKwxX0UJuppjs2Om8MF/ZoPHK26uGwIYCbPFxkAgP1t8evxRvD9euggumqxnHH1Rq1RhxuLi5WhNmF8RDwfeEyi8sbrr0WW0HzQuFiSwWLvwDXJbR+HK7ClC+m0YwPCheb1kSXdH8Q3PDcDHzvDdn0EQzmY3C4yGrQ8c469Rc+B+6u9XFX8sO4hlkMKFzR1AKr/x+AC32YvaofVinvD6RQuGcMLnbjz4Eb5LAElbFVnE9HGURyAND1ueiNPwYuLZfFY+TrhBU6NTsPH7QQAHbjz4F7rCZ31gordCH0HogCQM+eQO/7KXCpM+ldKid33YYLSWeaw6UOAo81mtFlTV+BqddV6QcXnNwrf84dmSAoha4Hqx/c38YqmPYaOPuyunvR6AcXSuU/YARR1e08eJTwQ38W7smrYjZmpJaRO628Y3S1gxvWyQoPcMQYhk5oTDu4DqmS9FcfnnFZnQwG7eBC0mhtctf2coeV0w4uuLbV8GzFUG5XGsM916kga0fEmtq1RdUObtufrRonb2W1z9QNbtIOIczHWIXOJLBucKmzYNXOwmPgdsZousGFkFj5QGehFxjTDe6O8GVnd6fqo+pMm+sGN6Vwq9MWH+SJdcjpBjemZoFfU48sWAQ7/5GprZ2+cJXzmKxDMi1t4d46cNXYinJFEekGl3oLVgVXdYCGrIsSSEe49v1wQ9PvqmQLVIOy+YWpJVynCYqpmwVa0bS/HTthKXhF80ty1hJu0IzQlDs0qOjgSC+e31gMj7LVDe6myXpWdsVk4P7oCffcJDiqDiIk4FajNO3gUqQ8l0l5+CsD19cTLhSKw1UN3EjArTLHtYO7q92FSHXBvgzcXz3hhs0CNNW16hJwq9Wk2sHdbL0681kxbWEebp3crB/c0qvXpSr6YvNw65CufnCbuQjVtPJ5uPVKKP3ghsd68xXFjBsJuIGucCH5ubILakZ3Hm69442GcJtsMTmj6422HL/NwG3mfzWE2yw4ifCTJrsghtvZ36ifFU9FxfK6sDrCtesZYJl98MT74zplX2xrqqD6R5PnqCPckFSL/GQWnCw8X10OwB+Gy7YJ4Zkhs2wZ3DDtb7wle7SJlnATr9rYVaJLA7iDAy/ycrIwEgD+MlzYZIo1XYkuDeAOFqZY2PEC0gD+NFxYHc5Wncyf0IXCdeD0g1aRYE5YT7gsN+TkyjRdFG40OByH77UQ+Oy5dqgxXDgxhhmG2WlKFO5ga+wqWMN9XaLpHFqljB/cN7+2eilc9ttqkaqucNl2g+AxRDOnYajAreFpCxf2K7fA7M4sjVCBW6+u1hcubNZjXdy5Pk0BbrPdq75wITrGwmPu5KbaCnBJvfxXY7hss31v75rulLO7HG57bITOcNnWidbejab2XVgM12r3xdMaLkRw4ETaqFwRrqdvZvlAJViGS+Ti21oshfuvs02j5nDB3TWsrYnTZXA7Jx7DocflBNzu9ky6w92kOS3Q0XextDyA6/70xXqsAdxqbV+i9+5MQxWGBdXFTklEZyIGcBed/KQN3E2yBdNwRgZqKNyoO0fpERGvL9wNzDTgji4Kd3fYdyQ8Eu0LF1Tgx3J/JyjvhbsJTexgJzZBuUtvHaWjQxsQfeFWCn7EtgHg+t8JyvvgbjbZjyfA+52gXAUubb17jwz5fuGuBJe6ZfEp7/PF4QZt+lgq7vUG+Q6tXUFPuRZ/nif/yd2boFt2h6Ytlj8NN8K+thQuVeKeDNICxuHGTfVy5NDqrECEFgv7QjH66wWL770JMCHb09/3NUyhY5/OlLDleVaOwk0r940ckVMfvsIUJr+pX+4Ppzm4ZK/2F/yKqwfXIzlf8M/gkqOC5fmqowauZxHjp+69KFxiINb2K2lBPNei/ZZx8ndtz5Lmnn/H2PgrLv90KKPUSfrG9eZPGdv/S+dP/xC/7B0AAAAASUVORK5CYII=;" parent="1" vertex="1">
          <mxGeometry x="379.11" y="868.13" width="71.78" height="29.91" as="geometry" />
        </mxCell>
        <mxCell id="AzmfuMKhb9_MXkvoqs_1-15" value="Ingestion data by API" style="text;html=1;align=center;verticalAlign=middle;whiteSpace=wrap;rounded=0;" parent="1" vertex="1">
          <mxGeometry x="375" y="900.04" width="71" height="30" as="geometry" />
        </mxCell>
        <mxCell id="AzmfuMKhb9_MXkvoqs_1-16" value="" style="shape=image;verticalLabelPosition=bottom;labelBackgroundColor=default;verticalAlign=top;aspect=fixed;imageAspect=0;image=data:image/png,iVBORw0KGgoAAAANSUhEUgAAASwAAACoCAMAAABt9SM9AAAAyVBMVEX/////00I2c6VkZGQ5cqJfX19aWlo6cqFXV1dTU1P/0TeHh4f/0CwaZ57/5qPp6emzs7P/+/CdnZ3/67f/11zJycnL1+P29vb/23FnZ2d7mbZrkbW0xthsbGwaZZz/4Ih9fX3c4+uqqqri4uK7u7vQ0ND/2WX/9NqNjY3w8PCXl5fCwsL/1En/+Oj/7sP/zyJbh7D/8tD/3n7/9uH/45b/6Ky7ytqXsMlGe6leibGKpsLR2+eiuM4qaZtNf6q2xtgAWpT/5JxISEiuetEyAAAKHklEQVR4nO2d+0ObOhTHwQIFpKWiFbW2Vlq0D7XqNl9Xtrv9/3/UTcK7JRC69MaGfP1hpaRpzsdzDnk6SRLaX7n2daQ566Z8YV2/vF787Iw6qUadt8Hrr2vWDftqml8OAJzgYFMBYDa4FE6W6OVxVMQpQ2z0+MK6kV9Dp0qnlFSozoHAJUkXIwJUCNfAZd1W1norD8B8NNqsW8tWjzVYAedqdKL/jNJVRxm8kYTjG+sGs1TE6g32pebv1V4WvLJuMTudhrCU6PK9EpbSYdpepvpEvtQ5jS7nFZGoHChBczsQlyGs5PqtyrGU4INhc9nqMgzD5HpQgUpRDgYMm8tWIaxRcq0IWHiFsDq/osvrsnGPoghYiFbU1yxPWQJWyCG4BBen1agELERrVDybtc5KwCJQCErAImYVSsAiZyU8i5xVo2Fl13JyKkbV6DC0TzH65x1Dq8GehdcgQ+pAeFa5Bhte1RaehdOgKAbbkWd1r2J9Pz5i3dLd6fTjEZfSCxJ80hXNuBaEdWamWt3csjZqJ3JfK8Y0ZX2GbM46k7OynlkbtgO91CNViCrMWXlYsilzF4sXpOPAIljtMlgAF2e0BjVZ5R2qnfxbCEu+Y20eVX3UZbX5HMTlLORaV6wNpKjTujGYTmC1c6wwsOQVR8/Ev4nBdgYVLgxl+YS1idT0SuE5CEm18bCsJ9ZGUpJLugWrDFYbwWrjYJlnrK2kpE8qjgUDEu9Z8oqT7sNWfrXODPlVW7mQMLDMY9ZmUlHp2mm5X7XXULXRnqNiWHzEYZ0ozDtVO8sNCe2iOSmCJVus7aSix239KocqpDWCi9dWMaxvrA2lIfJnITa1R2HYbr+D+u6LYXGRtMhTFia1xyEIoxDue3swi2F9Z20pBb2QpqyEzXqST1i1H2GFz8WwZB4yPGl+x8dgQitA222Ko5CPqYePrWBF4+d2mttBdkcHxH5gHIuLx2H53sdKx0rzVTs8TIdzLC5gEfUcCrJ6PmMFo2gL/BnOsWSLgwFP1RbkTWzR0ir4OYD/BkEw+vkZnXLqYh1Ltu7ZGkpDlbA6o+DxokQfn6fJmZ0SVrLFwQRgRX4fvf8iP750VsKKf1idR/Ij0EddC5uveIFV6laXmYJHeN3fPnRvVqWo+IBVkrNG8amdb90z0ypXBSmZj5H0T3wMRqcFHu4ss5pFNSwOnob4g3EX6P79SVnWrgOLg37WBTYIUdfpYUUHlSyvWFtKQbh1sPBUKj1WsszaUgrCzTqM4Fn6e4qsblhbSkG4pfuf8OYNhcQeiYv9DpiZUhSFt5RyO4L1g7WlNFQ8B49miK/oORYXfVLcHE0HjnMosuJiOgvzOFQ6LnadZitxssj6T0HSUhR4MvqJJiweVsKkot1ZSgjrmGIY8tAlhdpYslDowzJ52eB9PdpkRRvWioMph1DvO4fFjWOtuVa0bEMXFg8zDrEugnVWdGFZD6wtpKlgnRVVWBYPe0JSxYGo7AKWxcMQOqvTUZ5VG/4hKDqwVlyMoHO6DoIDJV5spudZpnXCTachq4tRQByGJpms1TMvhwXWZb8qo04A/4hyJwj+lUpgmV0iHXMxK4OVe51IKoHFx3QLXQlYNSRg1RA+wZ/gxM8YsK7qdx04mQ/dRlv0swQsAYtAAlYNEcIyMxuSBKxyWc/d73dxSR42NGwnEljmDZoEPbYErGpY8Ymc6BQKP3+SoK4IYJnJhLHccFjYM0up0pWIcBNJc2EReJaAFYtge1a6keik4WFIsOUoGQxGYJvbz5J+E8RhF5U8ith1GbeYpQj6DtbNw7en31HA8vJHVLbSE8luZTM5jGL9Zt1gpjqus7fbbG7/PdQTwRGmOCAbnN0jHd2QbZY0Lf5WnrfQ00m1d5mrqybn9qxur8wSXqZp3f0QqDK6/XEGj2BmJ/rQAr21urt6EKQ2dXR73P3+fHYTrnqdPV/9Pn7ictuHkJCQkJAQgSZOo//L6DpyVN0QsAiltVq6gEUoVcAil4BVQwJWleaT5CVVWBNv7C2nniSNbVpVMpa7HP/pJ1eUPWshSb1DyW1Nqovuhca6qu0UVm8+7fEC61Bt7RSWZ0+9pYBFoBmAJR32pwIWgUBVLvxx6VXJVDuFxZsaDcv1p57j9fp5z5/3cOWxsFy7oHc0mXoLp+djvhdz64vK7Q0NTVOBNMNJcU3HhpottvxjGGP4wvljADwtzTCMP6h4BMudjnUgY9yXcp9r6VHli7z7zb30exf7kaBcB5iuatBMYLSqxZ5hg7fPswX7Wks9hC8cWBAUBUphue7CQIaDG/phpvqhDt/RAbCWaizTG/OFASjphqFrsDJ9H559E2C5pju+7bp2DzZbi37HNjCyGJbv9YbAvEXP87wYlurpqqqfL5wZJKkltOaAnqr2JnN7OQa1G158owdQGQsf+Np8eQ7hG1/ftyYGMHQaX7nwdzwOX+NhSQU5qwVNR07pjqGjxTdboOAiej0F3xX71hBWlkTlDOKeUTRrNwLOpDrpJWQXGVoTlj5OTIcxOgxfLtQshCn0rbAY/J5M3UPoWjTs2anWYKHfcWhoPVjaNFewZSAvm6wxAU4XVQFvZOLOh5OtX36WYR0WajXKtfVg5fpZ4JMa6g0A9KqXuTHRY4xrsFx9H2FBK0L7/gLWGMBaRpXln3JqXPsaLHS9f7Dgcw4h+QtY8V3opvlMBHPYGL7gAxZMWijNUIAFuyK5KsIUD1/wActRoy4PBViOmnRE0jrConzA8mLLKcCaqeknQiXPD45gwWYLWBvaKazNMPT5CkOHYhhC8PkEv+QrwcOnITKHAqz+RtehF+PjA9YwHthRgGVvdEphFkNfxwUsF/bg0RsQlpYtWh8WJK/lZlthykIDIS5gLRNzIKycPVvAgn3QYeYGHBuGs69cwIJRGAWfkZ9LyMGakcFKPSn92DSufD9hjdNWe1o6cTdW8wYsMr0mLzedgIe1BK7USt739ZYaOdq+wmqpuhe129NbKRA4GRVNtQBN0ex6ci+JJyg8LOkw88vw9WTub49hqaox9pZLR4UXaY6B6Fr6ENzpzXRgdAYWmsYbxiBLYElj8EGtN7Ftfwb8yoifjfsKS104BlyO0sLZ4czNKVryAnc0VdVVJzd4GcOHpaHHCxYGDpaEFo/Q6o6qDxMextoKxd7AciTb0XSARDOGy9xde2bA93Vj6PlwNlNdpPeWQ0PXw6Ww8+FQzcKanQ9bafqfLPSw8ux6ogo+koUFr/cEFtCkP536RavJvj8J357nYYE+2WRCuNg38Zd9/+svdVVpowePF+h4kRblVDVggSeght380AjVgOVr2Y5oE1UDVk9t7cWGhN2pBizQtdKrS/Esclj++sOweSKGZavxYnJzRQqrB8d10+pyXIsElt1fwKFh41lVw+qfG2jTns7NUZrt5Q91vRTWBG1m1BfN7jTEsr3yMBweOtycdRASEvq/9R9YYveVSwMKYAAAAABJRU5ErkJggg==;" parent="1" vertex="1">
          <mxGeometry x="375" y="985.2" width="80" height="44.8" as="geometry" />
        </mxCell>
        <mxCell id="AzmfuMKhb9_MXkvoqs_1-17" value="Ingestion API realtime" style="text;html=1;align=center;verticalAlign=middle;whiteSpace=wrap;rounded=0;" parent="1" vertex="1">
          <mxGeometry x="376" y="1041.09" width="79" height="30" as="geometry" />
        </mxCell>
        <mxCell id="AzmfuMKhb9_MXkvoqs_1-18" value="" style="rounded=1;whiteSpace=wrap;html=1;" parent="1" vertex="1">
          <mxGeometry x="721" y="800" width="349" height="290" as="geometry" />
        </mxCell>
        <mxCell id="AzmfuMKhb9_MXkvoqs_1-19" value="" style="rounded=1;whiteSpace=wrap;html=1;" parent="1" vertex="1">
          <mxGeometry x="518" y="836.24" width="150" height="235.91" as="geometry" />
        </mxCell>
        <mxCell id="AzmfuMKhb9_MXkvoqs_1-20" value="Staging" style="rounded=0;whiteSpace=wrap;html=1;fillColor=#7EA6E0;" parent="1" vertex="1">
          <mxGeometry x="553" y="850.28" width="80" height="20" as="geometry" />
        </mxCell>
        <mxCell id="AzmfuMKhb9_MXkvoqs_1-21" value="Data Warehouse" style="rounded=0;whiteSpace=wrap;html=1;fillColor=#FFA41C;" parent="1" vertex="1">
          <mxGeometry x="802" y="810" width="197" height="17" as="geometry" />
        </mxCell>
        <mxCell id="AzmfuMKhb9_MXkvoqs_1-22" value="" style="shape=cylinder3;whiteSpace=wrap;html=1;boundedLbl=1;backgroundOutline=1;size=15;fillColor=#B8B8B8;" parent="1" vertex="1">
          <mxGeometry x="552.38" y="919.15" width="77.62" height="105.85" as="geometry" />
        </mxCell>
        <mxCell id="AzmfuMKhb9_MXkvoqs_1-23" value="" style="shape=image;verticalLabelPosition=bottom;labelBackgroundColor=default;verticalAlign=top;aspect=fixed;imageAspect=0;image=https://iceberg.apache.org/assets/images/Iceberg-logo.svg;" parent="1" vertex="1">
          <mxGeometry x="631.76" y="968.3" width="70" height="19.08" as="geometry" />
        </mxCell>
        <mxCell id="AzmfuMKhb9_MXkvoqs_1-25" value="" style="rounded=1;whiteSpace=wrap;html=1;" parent="1" vertex="1">
          <mxGeometry x="850" y="834.09" width="190" height="235.91" as="geometry" />
        </mxCell>
        <mxCell id="AzmfuMKhb9_MXkvoqs_1-26" value="Data mart" style="rounded=0;whiteSpace=wrap;html=1;fillColor=#7EA6E0;" parent="1" vertex="1">
          <mxGeometry x="905" y="847.13" width="80" height="20" as="geometry" />
        </mxCell>
        <mxCell id="AzmfuMKhb9_MXkvoqs_1-28" value="" style="shape=cylinder3;whiteSpace=wrap;html=1;boundedLbl=1;backgroundOutline=1;size=15;fillColor=#99FF99;" parent="1" vertex="1">
          <mxGeometry x="870" y="898.04" width="50" height="62" as="geometry" />
        </mxCell>
        <mxCell id="AzmfuMKhb9_MXkvoqs_1-29" value="" style="shape=cylinder3;whiteSpace=wrap;html=1;boundedLbl=1;backgroundOutline=1;size=15;fillColor=#99FF99;" parent="1" vertex="1">
          <mxGeometry x="970" y="923.1999999999999" width="50" height="62" as="geometry" />
        </mxCell>
        <mxCell id="AzmfuMKhb9_MXkvoqs_1-30" value="" style="shape=cylinder3;whiteSpace=wrap;html=1;boundedLbl=1;backgroundOutline=1;size=15;fillColor=#99FF99;" parent="1" vertex="1">
          <mxGeometry x="905" y="973.0899999999999" width="50" height="62" as="geometry" />
        </mxCell>
        <mxCell id="AzmfuMKhb9_MXkvoqs_1-31" value="" style="rounded=1;whiteSpace=wrap;html=1;" parent="1" vertex="1">
          <mxGeometry x="1140" y="800" width="340" height="300" as="geometry" />
        </mxCell>
        <mxCell id="AzmfuMKhb9_MXkvoqs_1-33" value="Data Mining" style="rounded=0;whiteSpace=wrap;html=1;fillColor=#FFA41C;" parent="1" vertex="1">
          <mxGeometry x="1250" y="810" width="130" height="20" as="geometry" />
        </mxCell>
        <mxCell id="AzmfuMKhb9_MXkvoqs_1-34" value="" style="shape=image;verticalLabelPosition=bottom;labelBackgroundColor=default;verticalAlign=top;aspect=fixed;imageAspect=0;image=https://superset.apache.org/img/hero-screenshot.jpg;" parent="1" vertex="1">
          <mxGeometry x="1320" y="852.15" width="110" height="61.87" as="geometry" />
        </mxCell>
        <mxCell id="AzmfuMKhb9_MXkvoqs_1-36" value="" style="shape=image;verticalLabelPosition=bottom;labelBackgroundColor=default;verticalAlign=top;aspect=fixed;imageAspect=0;image=data:image/png,iVBORw0KGgoAAAANSUhEUgAAAT4AAACfCAMAAABX0UX9AAAAz1BMVEX///9ISEggp8k4ODhDQ0NFRUU+Pj40NDQ6OjoyMjJAQEBOTk7R0dHZ2dl7e3v7+/vn5+fx8fHDw8NxcXGTk5NVVVXd3d2Kioqurq67u7v19fVfX1/h4eGmpqaBgYHMzMxra2tKQDwAoMWYmJgdrM++vr6enp5iYmJJQ0AnJyepqak3eIsiosI1fJB/h4oZmLehydYtkKpIqcWw0Ns8a3pzuM1DWF/c7fLF4Oip1eM1S1I/Ym1bs83A2+Mxhp1FUVRPZ26Lyt4sj6qBu8wdHR1KGW3+AAAPJUlEQVR4nO1daWOjOBKFCB2AwWDA+DaJ2yT2ZLZnZufanXum//9vWnSAwZaAOBdkeV/abVty9ChVlUqlkqYNGDBgwIABAwYMGDBgwIABAwYMGDBgwIABPcXY287WaRhvwt16Plpc2Yu/naW7eBOH6Xp/dSd9w2K7uyeYIGQxIASAHs/9J/biz2MdANqJQTshABub4+pV/uAOYTxxAbGgXgW0kHk/a8/geB/gy14MhPXQecU//r3hhRYxdDkgIpt20uOnhqoXaOFo/sqDeC/4G2ApuOOwcNBM4CIkqK4TSIzjGwzmzbHD9eSx+Wf+q8EEHElzL8SevM2Q3g4jvVZmcjx8vvumphcnIm16gTj4WIZ4h88VvRS33366ufvOU/UStuslg2Vt33J4r4tF0kpo9NuvP91kuPu3tBcvaiXAHNBcv/EgXw2+3ayvKB6+Z+xl/P0g6WUP2ooeB4jffKCvAs9oN+6HHwV7GX+PF7prh59EXgayeY/RvjT8luxB/aaEx5+qvQTtpv+H429st5xzD5/L9N3c/VzuZNlu+p/zF77bsF8KQcuB3/796abK33+KPnxdtVZpAO77EiRtOemE0ZXy11Z5yvhTOkG9gGO2G2ZhdCX8+RfBgfaA0TsT8DxEbY3uJXk5f21Njxykz+7fsa29fJTSR+3HQn8Oe5n799RIYncwbrlMuP0sZ4/yt7zSauSw+uu9pO3ou/1dovg4Pv33mezputlb69HAHjSYWrv9Ss3eLw8N5Ig+amD1dfE2q9F8BsEgcd0g++cXNXtf3dYRQ/sIXDchWBnDpsA9DV4tlXJhme5EqHRv/uudir3f69izzGAv+vC3G1PtnaPZ+1HwDHjKRb4ZV8zhTwoCP9ewB81NRactQlP1sODybcf9QlgrVB9EF9thP8scl8cavYeii12Rla2awf1cetzLxQHqMk/sh0sB/EPNnrmTdLFQ+TikjyvfhWLuIrkf+80ZfzVGF2L5VtACyh+Y4b7mOF8JIyAdC1ZtQvxW4a/G6EI0VXShWGH3cuE7k6q+Gkn4ucRfjdGFUK3KNnL720fP2ZVqIqySHK3Cn9roylWngCcXP9DD1I1ApojgfV2Tgr9HpccIUa0kJdKGffT85AOpjx/l+k9tdEF9GsdcqjEafrWTkBpeMKpvxOxvjdHFDe0dqb2y+rfnMZaqoQbh0bR/7uqMbuPexVj60Iz+Ba3kbh9ubPdrjdElaWPzp5r7rsKXT97mht8qZ+7Dn82tpRrXCJ49nLeGXPqa6fPUK90/bv5qbP5RpO9K3bdQ76o/PJb3fhW/Kn1ofYyYSm1gk+XV7pVxO5q8dnP3W33zqdzyyiIMHYd0j7LJAwuU8X2xIVLJ3bjEx/H7pIu2+lWH5irZOyWv1fInX3X0MWIVS6dh3ZpX2yg3R8rJazX8+Yo1bw8PfEykXNQZQbdma6kUy6rhT/7IerlZNJWHS5XxvsW9el+zmrymtL+qeF+9xugoVKFzecBpWpOEdp68dif3/1TR5j76LZkVlfMBoYy/dU3m8mXy2t13P1124UeKBwB6mWU/V6gySC62KpxljdqrS14rYQRV4mv1UPWpVgAUOKjYXyeoO69RMroV/m4qBHobZR89XLIxyMP1bET4/uiwOew76wjXpwEpktcyAv/Zsj4Wziyp6aOfczebTjVnCSACwM5AAKpP8XlQJq/d3MA2fUD9vXm4FuokFz4wqDCVJVxkjJ/w6ceHNn2QHm50cEzkW71PAKpJXvu+KXmNwxq/Nw1Xo0H8GgF2f92p2Pv6tlUX/RW+zKY++SRVdeiZv/urgr2/27EH7ffm4DmIn3AI8pI95nHIs9c+t5u5utnDHfITWh/JUrIn5++xZb496t8WZQVtz8VI2Ct2Fy/nLzO6LWD0MzOyhNmV6q98HPdc/pozxjmgIhmuTwiv8l7MypbuPxX+GjLGT8C9VnwC6hiyGoez8Ho5ebI+Y7zMXk9Xa2eInyp/kFxmP5/4a210PwZ7mpY+zX6gSKKy/O/ucqPb7hH0MalPgX3rCiL0yIHC2RAK8I9WwoeW/bcaJ3h18dDquKFyzk0f71oaXeUj6C3WLWow0SpMYd0K/5u7VkaX2E3JDP2D7zaERemJg6RhR9bfND8FRD5kDTBt5eK6uKaFkxZC423qg6PEWvc3QtUAP7WxvDKBQcimLgGh3Mla2QnCyf51R/DemKYRIKh8CBdaCBB3/xSZme7srJNSnBmyToInVKDsLxaTmRtBBDDIgGAUz69w0fzJMbEtQrvABOnL8JpOeoyx72Xwn6eoFrQPr5f7uAMGDBjQAuPFh3Xnno/FqKlqevylp6kqb4H14TxAeo7wIxQzfC1EhpHUf2OgT42pmUSs3kUaLtabI9Vy/jEO2RLYiYN4ROmLV/Fmy9/ZHAdXr4QYz9eYbg4ZSM8WI0tN25qmDcxM4I4mtrF51EIUmYQcMv52JjbMD7CH9nJApr8yaTqFjdaab4G55kZzzSEHf2GSreYcDhl9yVjboERzTLTSdh+lrPBLYIKDTP3RfAobsHlKjaw32iLgzQnKXo9GWkgJ22eCmaJosk9Rb7P2Xh6BFaRpgmJKXzY7ZyDQZtbBtiHwZkTwxOibZ/SFFjwcDrjF0db/E/jYwKaJIRHSlxLXN+kLALwJoDxNJif6UrLUxhne+6/uDI6ZtGV0LMFes61wsTLwfmoSZ5wisNIstBvPDuRE38okqe99uIt1vMkuDMPd5OklZ/QDO6mwPiw1G+qHg5lo2j02v8Qg+8CxzMMBOVp8yMzw/BDRXc/snS89PCSpxuIYYcKubiJ4+cR8zvF2y2aiv91S3bdNmXM32WUWd7uiH6/p56tR9trbUlfQn6dXPKQOY4ZK2zeQ6FenR9iN56VfBp3SnclZEgvE1x7ftg6vlpjibOIMomhiuhwtPc3oBIfiAD1EpLhEDFzJ32T+arNyYlLdYortvFi7X0864TvOuOyB5Xo72qY2z2Y2O7fPz88Xi5PR443mpuGmC9LHcweKAj88HbJ7Z2ir9B211HNmHaCPl40qVVvgR7px1xyzCn3dAa/wik8PkhfAIa23+31Ppu/81WqliKp409MHi+xrnkSIFqvpqtrtltPXNY8n5cJWescGhBCWIuYkboYkD86FQfa/gFkVN3sZBNkwdzoGwDq7X9FPI7r/Dey0IGq6TDK4GQ0RxgdO2GK95Nvkydk0nLH3geXmdnwTuLwSLaS/2yW9zAvT45KkTOYU9G8cmUYGM/8sQNn/ENuz0K3sJR5PLe4wWpWEvHWeSgQRzpWCY0IIrUibmzA/KnQsMo4gKZ+9GulEvG+AJZe2yMrTQmD2s126RHDLdJ/8zDEv/1pQy47n82+y4zJocvK2yakDt+xGAvE+U7EwWpmFXQoq3iYoynzNywWwDcLkulKTh3Qp6XnM80bRvSRBqoE+nc77XCxALj95Jr74QNzXxC2UzaYgq8cXEy6fQNxaSUQAdSsSqUUCEYR0XndX+vLriCAOLp5qE306BMiNROIz4fprws/REJh/wD1dURcSUgLoFTAr9jXDnk1H4go3k8nZWGgDHCQmc6nYuaxM9/ECQzBxgzZphG+IyMo1DQknFR3eRB+MaFqUx8t9I34Shn/CJGTKJIjvweVlNRFIAhqUYBZLVGRmM1q3WPsQFSK74Ld0CdXLq4N1zvLSW9SKvG+LmG4pUayBPqhzsscWn2b09Z41EW4PFzHWXtAH8sRbJkx5TY4Y0FgP7ZjXvcvrHXINy5vwDkDLHMw3xbGUcWzgZfEnNpmOXN1x35GdxGDfKU7hMlXHKngJ77xIW2YnrZFY6kziMAP9jFc/yYv8s9LbYgHUYfo0Py5dmAHNfBusLX28dBflhl9vZOUn2tgUZVWA+OhPlx9wmi9qYLPqHUWV9RGfFux1l+mjni4CRcYxsvmw2tLHHQs65fggs0k5ZvsZTHyYoT2nj19Fkz2palIp69eIRXO+0uC/3236Mox2UT6JDZtptdb0caFZFnXXkMnBZJG1OKdPE9dzWMCM4n2RdMCNsCGa8856Ql8GLxXXtyM2f1vTF+Z2VFa2Tk6fV1zXDS0CxP0z0spF/aEv8xaE18uul3sh+mSTN/ulsr61+Oqu9/QJKri5vJo+BEowqRtySV8mgDuriG/z4+eCPqPcHHzpMH1buoWwqcTm2d/JzGVr+jZV3YeOozLokGX00bfnsS1q15nUCeRrEXfqlMH0cDfpm2O6hVCplsKcNXa5oaAvV+xq+lgT6qBNz9y7Agr62EcJtzCJJkw4TGTf6iR928thMY+2JH1FhFdJH4+wMm+PL0AuK2Cc0eczscr/x2u10XSOjVEoXmkHXaOPB1zK8SperZ5d8sAXXfnagN+AUqYvF7IjX3XQkAO/L+eyaNwZfdsDVYp5wimXWRpz4GWzZPd6TquPsivg4yUn7ZcwAeA3a7BqNfkSbH/y4kRgQFz94nMXhKai5XWbTtc57TkVZ/TxwrL5Rq0IxNOXPDBVRL+00b1QHZ5KLbwvfL6WR/aMjng1s/n045Tx+qVWMvKcrYiCViIuaO14qzkfMuJPgIdJINk5vueMQhvwi5rOdR9fXgSMG98+ifWc/woJts7UGaVLXAQZ+HOx5s62U5m9ex6fZIFLlB+2FWUsRAk6SAAgBq+NW4n36fRgoHB/CR+VLyLtFsCYuSW88O05fXMufsRNU5e3EFvL4i55g54WpM2L8oeinBsCh27pvz04PyYOzXzy3Jc+InwFW442l2LoOG8yOr9t0jwFrEomaiOE2bL4T+TpuuPo7Lx5vgM9z4P7XavB7gWVc/aQ6EU43DPywUBzwtRPiT5rV9wrWU6Lcaxy3TXDjKmGu3RcdpU9jdNe0zgoFzE2cJK3WYpuO6f/NMdlZ5wzGAjb5Qw1P8EW3SMDtDwDQQjxPR3huCzu2acGscrbwuOQTjvWWXHI3DlkbdGh7CA5Cc5/00zKgZe5DljzbDFc3kEYuyZ7u4tp5ePJOlhG0XJzPNcszi57f8PkcUbBXhV+3yiMosidn+10L+ab7O0oWBfBf39Gdz9nVa2/Wgf0a+7s3Jve0t+MknRf/b5DfyxZd0v3XYOzVceAp2Gg71kY6HsWBvqehYG+Z2Gg71kY6HsWdJq5Bgb6rkRAkXRs8TlgwIABAwYMGDBgwIABAwYMGPAS+B97x/nJ2TlxngAAAABJRU5ErkJggg==;" parent="1" vertex="1">
          <mxGeometry x="1210" y="854.5699999999999" width="98" height="49" as="geometry" />
        </mxCell>
        <mxCell id="AzmfuMKhb9_MXkvoqs_1-38" value="" style="shape=image;verticalLabelPosition=bottom;labelBackgroundColor=default;verticalAlign=top;aspect=fixed;imageAspect=0;image=data:image/jpeg,/9j/4AAQSkZJRgABAQAAAQABAAD/2wCEAAkGBxMSEhUSExIVFhUWExUaFRcVFRgXGxgXGhUgFxgaFxcaHSglGxslGx0XIjEiJSkrLi4uGB8zODMsNygtOisBCgoKDg0OGhAQGS0mHx0tLS0rLS0rLS0tLS0tLS0rKzctLTUtNy0tMC4uLS0tLystKystLS0tLjMwLy4sLTctLf/AABEIAK4BIQMBIgACEQEDEQH/xAAbAAEAAwEBAQEAAAAAAAAAAAAAAwQFAQIGB//EADsQAAIBAgQEAgkDAgYDAQEAAAECEQADBBIhMQUTIkFRYRQyM1JxcoGRsQZCkiPhU2KiwdHwB6Gy8Rb/xAAZAQEBAQEBAQAAAAAAAAAAAAAAAQMCBAX/xAArEQEAAgEDAQcDBQEAAAAAAAAAARECAyExUQQSE0FhkfBxgeEFMsHR8SL/2gAMAwEAAhEDEQA/AP2fCYdOWnQvqL+0eFS+jJ7i/wARXMH7NPkX8VNQRejJ7i/xFPRk9xf4ipaUEXoye4v8RT0ZPcX+IqWlBmnGYf0gYWF5ptczLlHqZsv3mfsau+jJ7i/xFeuUszAmZmNZiN/hIr3QUsYUt5OhOtwupVd/CfWPkNa9Hl5ivLkiJi34zGsa7HarFxlEZiNSImNT2jzqNPaN8if/AE9BHCf4X+gUhP8AC/0CrdRXsQiZczquZgq5iBmYiQqzudDp5UWImeEDtbG9uNQNUA1JgD712E/wv9ApdTmObb2QUUIyu2UguGJgLuCpCmfOrdRZilSE/wAL/QKQn+F/oFWyarXbs7jQ7L3f6dl+PjrA3rlGXtRm5enjkEfevUJ/hf6KlS0Scz6nsBsv/J8/xrU1BBbtW2AYIsEAjpGxr16MnuL/ABFecD7NPkX8VPQUse1qzbe6yAqiliFUEwBOg8a7gGtXba3FQQwmCoBHYgjxBkVauWwwKsAQRBBEgjwIpbQKAqgAAQABAA8hQePR09xf4inoye4v8RVA8JbPdbnOBddGIGkZVCkAgzqFGogzOpEAVl4HeBB9LuaPYJBBMi2sMvrfvOpPnrNBsejJ7i/xFPRk9xf4isb/APn7kEelXSDywQSx0VMric/7jJ1mCe+kSYrhLMsLiXQi2idJaOkyTlL/ALogn1o70Gp6OnuL9hXRh09xf4ivn24Fda6ZxB5YRssO4YOXLZoBAkTEzOngasLwK4CSMS4BuO0ANHVcz+/vuvuwfVB1oNdrFsbqg+grpw6e4v2FZGJ4EzIbfOYqWOplmVTYayYLlpPVm10qW7wUsFm6WK3LLnPmYTbIPRLdOY7zm+tBojDof2L9hXfRk9xf4ivHDsObdq3bJBKW0UkbEqoGlWKCL0ZPcX+Ip6MnuL/EVLSgi9GT3F/iKejJ7i/xFS0oPn+Qvur9hSvdKo18H7NPkX8VNUOD9mnyL+KmqBSlKBSlKBSlQ4sdDakdJ1Bg7dj2+NBzFYbPl1jK6t6qtMduoGPiINctrF199UTuT3fbwqjgr1w2rTKXOZyWzBXYKWJjMCAANBMEwNp2vW55rzHqJGvm++mlEWKzsZxO0l4WrgiLTXs75QihWCE5idG6vt3qO5jrdq5eNy+wUcnR1hLefoXI2XqLNvqYPhXzXDse4xbYUqMR/UyNevZnYKQpe30WQqiBOUmCTvWeWdVD3aHZZy72XlEX08vXpcf4+lwOOfkK75bzNcKzhupQDdKgyTsojMe2U1ewtgWrYTMxCr61xixgd2Y71U4TjFZWZEVbAY8tk/fr19GUFTnzCNZ371BieK28zhmI5drmsApZuXJhlVQZ1UwRO2kzI008Zy43efWmspxqt/nsvXHLGB9jsO8v9P2/ffSe1ajXcncnf4eQ8qg4Xi7d20HthghLRmRkOjEGVcA7g6ka71bq5ROM1PMMiqB4iZI5F7S+tuYXUEA80dXsxME76HSrGCw5trlNx7nUxzOQT1MWy6AaCYHkBU9dXjEz5ogwPs0+RfxU9QYH2afIv4qeuFKUpQK4zUJrzMAk+EmKDuXx1/H2rpIHgKwf0p+pkx6O6I6BHgho1kSDI/FbwUCpjlGUXDTW0c9HOdPUipjmDQ1zLG327f2rpUVyY3+//NVm6rTXay/1LxYYTD3MSUZ+WB0r3lgup7ATJPYA1Z4Tjhfs27wVkFxFbK24kTBrTwsu54lbXV+vKd6LpbpSlZqUpSgUpSgwqUpVGvg/Zp8i/ipqhwfs0+RfxU1QKUpQKUpQKhxpPLeDByNBImDGmkifuPjU1R4iyHUqSQCIlSVP0IoMrgF7JhrWYsSzMJiTJcxOUkR5zFeuLY5bfMJxFqySttVuXIKq5LkAgkSYB0mrljh1tES2F6UMoPAzNQ4/Arf5tppAe0gJWARJcSCQdamXE070qjOO9wzOLcSv2bly82U4a2lvKn9NOa9xgJ5rvAyRMaTm7139PPYPNxg5Wa6y5uW2dhKKRbeHYG5J/bEyNK2cW6KAhXOdMqQDMbHXQAGNToKqpaSwUJt9VxwoFq2SqEr/AJR0rCwXPkNBAEx05nLq3ntGPhzjEVPFx5xtz997/hDieJ2FKnEX7SBiRbRnUAlWCtJnqIYgEbCalscUtq7i5i7LTfCIoKqUYgLyjDHM2efA9URWJ+qsI63MNbw1sAZrrsqzbTMLiXf6jJbJGaH/AHKGOhzTWa+ATGC3iLNiMVct2rl1l5mHXKHbVLhttF3MoGvVEGYivq6fZdOdOMpmay+m2+19OJ3t4Zym6aTYr0HENba5as4Vibg5gOa69zO1xUuvdjPzMpjLEMBVD9I8TvFbS4fk28ElsMeYC5tKGXPZe9ztLoUswlYCss7QIeA4K9ibj2r1zPkEMzNcNzDnNdBNhrtiGYsAmYHVVnwr7TB4Ecu5ZexZW1mKoiAFWtZQOtMoAO4y6iANa27RnhpROGW+U1fT615zvzO/2lzjEzuk4TfLqz863eU3HyNaEAKGgISGOZlIIJ01GwqTA4+1eBazdS4AYJturgGJglTvBH3quuDe3eVrZHJKw9snKEiSGtKq+szHqk7ARUnDcOUNwZLSKbk2xaESuUa3BEZ5nbtFfMzjCbmJ+n59WsWmwPs0+RfxU9QYH2afIv4qesVKUpQeW3A+v2o/h407/Sh3HwP+1B4S2qCFUCSTAAEk7kxXvJ46/wDfCh3HwP8AtVHjovmw3o8c3TLMbTrGbSYnehM+a9k8NPx9qDUVFgOZy05sczIueNs0ax9alXv8f9hQF1Gv1onh4H+9E7/Gi7n/AL2oPVKUoFKUoFKUoMKlKVRr4P2afIv4qaocH7NPkX8VNUClKUClKUClKUFbG2WbJlPquCetlkd/V38YOhiobjsLrBdSUSJ0A1b7/wDfIGbG4rl5NB1Oq6sFie4nc+VLZHNf5LY2/wAz/eiIcLla2z2rgdmDDmLDdSyvw0adNvpUHAnuuqO97MRZRLtuLRK319oWa3IDbAqNBFaigDQQPh56mq2AuITcC2zby3WDSmQO0Al194GfW7kGtMcv+JivvSzV7PmcdwsYrGYhBcyNb9ELh7Vi4rqMzppOeA0mWI1Gkivoxwmzy7dkJFu0yG2oZhlKGU1Bkwex371cAG+kmqGN4Rbuuzs13qsm0Qt50XKWzSFUgB/8w1jStsu0TnUTMxEVx1iIj0/Dnu07wW4WtljiFvzcuZXRVUAByAkKTOWMpM6xVnA23W2q3XFxwozOFyBj3IWTHwmpLahRAgCvU1hnnczXnPSPntssO1BhcHbtlyiBTccu8fucgLmPnAA+lTTSa5iZjZUOB9mnyL+KnqDA+zT5F/8Amp6gUpSg8tuPtR/HwrpE1xT96DM/U2Ev3cO6Ya5y7pjK0kaTqMwBIkTrVnhaulm2t5w1xUUO2wLAakHvVnb4fivQYGpW9tJ1Z8Pw6irvjf36ejhbw/tTYV0sK4BOv/r/AJqs3UGlcTx8T/aj+FehQKUpQKUpQKUpQYVKUqjXwfs0+RfxU1Q4P2afIv4qaoFKUoFKUoFKUoFRX7awWZA0D3QT8BUtKChgURgf6GSCCMyROYBzuOxJH0rxgQjkzh8kgMcyd/VjUeAG3/7pUojOshDcK+jx6wzFNOggL275iR8K50c3L6OdDlz5OkgrmmY2nTXuD5TLxM3wFNkKSD1BtARtv2iSfOAKqi/i9f6VvWcuuxkxm6tdI27kecBLici3Avo5b1IYIMvU2U9uw1Pka9Y5ESCLAeAT0rrIgAQBruft3r1h3vllzqAJuZssEQCMh1M667eOsVeoKWKsIAP6IaTqAokQC3h4gD614vBOUG5E5sgKBBmAYgGRH7QST8K0KUVDg7mZAcpTcZWEEQY2qalKBSlKBXGFdpQec/jp+PvXSoPYGu15yDwFB3QeVczTt9/+70CDwFeqDirFdpSgUpSgUpSgUpSgwqUpVGvg/Zp8i/ipqhwfs0+RfxU1QKUpQKUpQKUpQKUrP41xP0dVbKDmYjqfJtba4dYMmEIA8TvQaFKxrf6jtMcqq853XqAX1GCsdTJEsBoCfEAa14X9UWYzQ0dXuyMoBMid5YCBMd41gNylZLcdUFRy36g/uSCl0WmUjNrBMyJEDzE+cF+pLN3Zbg/pG4ZQ6KCR27mCRH5oNilYqfqW0VzZLgETLBR+8IZlu2YGdo1muWv1NaYAhLsHuVAgQzSQWBjKjnQdo30oW26VgYf9U22CEo4zFFhYeHZc8aaQF1nftE6Vr8Pxi3rYuLMGd4nRipmCdZBoLFKUoFKUoFKUoFKUoFKUoFKUoFKUoFKUoFKUoMKlKVRr4P2afIv4qaocH7NPkX8VNUClKUClKUFBuFqcQMRPVkCxlU6DNsxEgdRkA6kDzm5fcqrECSASB4kDbY17pQZ1visnLyboMHdDl0XN63nsP7Grtpsyq0RIBgjUaT96+WXid1bmZnvl/SLiva5P9IWMxFtlfL3XIwbOZZiNNk+iwuNzmCjodYziP+/2oi1lHhTKPCu0oqvjbxRcwQvB1A3jvlEany0+NVrXEg21m4IZB1IV9ZoMb7RJq3i7hVHZYkKxGYwJA0k9hNYPAMXca6o5l+4psE3ufa5eS9mXKqdC6kG5KjMAEU6T1B9HlHgK8FgDEHX/ACmPqYipKUHMo8KoYnHtbYjkXGGkG2A3aTIMR4aTWhWP+ocSycoc1rNtnPMuoqsVAWVHUrBVJ0LkEDbQsCAvYXFM7EG2ygKhBbSSwkiPEbHXerVZn6exL3LMuxYh3UOy5GdQxCMyQIJWDoADuAAQBp0FbiWDF609omA6MpMA6ERsdD9acNwQs21tqSQJ3juxaABoFEwANAAB2qzSgUpWZx/ib4dFdbRuDM2cCZCi075gADm1UCPAmJMAhp0rFP6iUFgbVwZWdRoOoqyqYE982YT+0E10cdlnHKf+mjM47khS2VfPQjw1UzrQbNKxG4+c2QWHkEBsxCj2nL0PfXY7HXUV4T9TqRmFm9HVusExBGVSdZVkfyUtMFSKDepWThOMlrgttbZWLuuu3SJBHiCNJ2lWE7TrUClKUClKUClKUGFSlKo18H7NPkX8VNUOD9mnyL+KmqBSlKBSlKBWZjMU8kqBy0cC6Sephl1CrGwlTMyYMDab9+8qKWYgAbkkD81m3mtcv0orPqv211ECJgsBoPPaiS1SARBiPDyr5zhPFLwcZ1U4e9fdMMwb+ogVDpcWNQTbuEEMWAZQQNYvcUXCrbbE3SuQAMXznsIGUg7naBuT51V4Zh8OLIxqAHMpuhvJxJgHQOV0JABJ3oPoKVHh76uoZSCD3BB/FVeLcSWwkxmYlQiLBZizBRAnUAkT4CaKyLHE7t29YuOqjC3pFlQ2ZzcCtdR7ggZRkRoUFiDlJiOn6DFOFRmbZVLGN9BOnnWLdwuGwdyzcywblw2w0EjmXAXZ/BCzKZbSS2sk1rY/GpaWXYCSAJ7kmNvDXXwGtERYC/ckJeC5ypYFTIIBAMiOkiV8R51erOuC1hgrwACVQmexMLudFG8DQAtWgDOooIsVfyCYkkgKNpJ8+w7/AE71Dw64zZ+ZGdXIMbAesoU9+kjXSTOgpfuJcfkHU5c7AdgCMuo1BmCPhXMC9tXeyu6wxkkk5huSTLHTc+VBS47fvLctLhghvO0sLhKobFtl5uZhJDdShSAxltoki/wvHC9bzhSpzOjKY6XtubbiRuAynXvVfiFmziHFlic6DP0O9t0np6biEMpMnYiRvoai4XjLNu6+BUhXtqrquxNu4WIIn1iGDAnXsSZNBsUpSioMZihbAJDEEx0iY0JkgdtKgwfFLd1gqZjKlpKkCJA3PjPbwNT4w6DsuYZj4L/xMA+RNZz32tZMtoLLQ6qelVI6XhRqc0KBAJk+FEbFU8bxFLRAfNr3CkgfEjbaqHFbrxbUXLkvcQ5sOtsBUBzF7huFv6ZAIka9WniNO+cgkbyNJO3c/Qa/SiqWF/UFlyACwJiAUbuB3AIG8fTwrVqjjWYpoXJJHs4UgTuZ1A8Y1qa6vTKtqSIJ6gZPcTqIojmJx6WyFcxPfsN4k/Q/aorfGLLRD6sVAGVpJb1dImPPbeq/FOKphwGxCEJqDcVS6KImX0lZIAiDqVEmof07x/CYzN6OQWUyylCja7NBGswNfIVpGlnOE5xjPdjma2ScourblKUrN0UpSgUpSgwqUpVGvg/Zp8i/ipqhwfs0+RfxU1QKUpQKUpQVcdaJKFYzK+YBtj0lTPhvvVdMG0BpXOLrPl1yyVKwO40Mz4kmNagwtxjeVizFzmW5biBbUSQRp72USZzTI027grh5s5iWdjzbZGlsKpCkaSNQomYaSRRHnGcNc8t1KG4l9roVgchLW2QgHUrox64OpOnVTh+AYW3DFOZ6Q1xgoPLDEhgAN4iCT7xLR2rtm+TeDZ5uZmRrXupJOaNwdFOY6GYESKyOG44+lFxeBvXbxt3sLGtu3bzhXicyEDKS56H0ygFloPp8HYKl2aMzsCQuwhQu53Om+n/qq+MwjMzhSsXLYVywMqNQI8dzppB171bxbsqMVEsFJURMmNNBv8Kx2xosJfvKzXlW2bjFiFAdVjLmAhRA106YJMzQc4vgna8GS1avxYZCl9ioUFt1OR/XiGEbWx4QbOA4e9q3aCursthLbFw0GB6y6k69wSZhddNaXDcVdsviVvOt1sq3wUMKiMCotwRKqOWSGJMy5gRFanDmZSbTsGKqGDDwZmgEeUQD3A7UAYJkFrIQTbQrDSAQQNdNj0jx0JFWcHYyIFmYnYQNTOg7DwHYRU1KKzrOBYMs5MqXHcMJzNmzaERp62pkzGwnTxYwrBkkLlFx2VhOZs2bcRAmdTJmNhOk3EnYxaVghuK/WZ6YA9UAjq1ka/tO9VnxDXFtKpCFixzakHlOBCwRmD77+rNETWcCwZZyZUd3DCczZp0IjT1tTJmNh2yLXCbhYr/T5Xppvc4sedm52cplyxAM2c2b2YiKucS4jcNq0ttktvfdrYuNLIkK5zKAVLFsvSMy+tM6Qa/DcQzYZbPMGZbjWOepJVjbB/qLrJYlYKzowcScuofSUqvgb5dTMSGZZX1WgxI/47EEaxViiocU5A00llE+EmPv4ecVlXnCIAqMguPlhlJysRIudMncAadyNq2bgBBmIjWdoqpZ5WVmkMIObrNyBuRJJ0I7UR89xC+p5VjlXLi4i6FxAKXAEIDEsWC6LnSCNBAMEH1vpbqhBO86GR499B9fhNYDBRK3rjW7N10YPzChLhlUWmcHVT0L/nJYHfq+jtxrrt/mmP8AigzcZcyrlyF87ZboKnVf3MYGnT9Nat3sN0wMvYarIGvaIM+c1WxOUK5clbTKQxnLlABMBpECJk9tvhavsgWCSdoRWgz2AIIP/uPpQfJ/rngr3bJt8y65bKAWuQltVYOXvIIDKIjOAWGYeZFL/wAYfpO5h3OLuOhFy1ltC2+cMjlXz5hoQYWInetH9bJjLWFuvauAyg5hCnmjqHqMsDIq5h6s9RaRrPzn/hzEXzdupLGwLesklVuZhly+BIzbeHkK1x/U9XSwnssftz3+ez6Gj+k+N2XPtneiO5NV14/vbq/VqUpWTwFKUoFKUoMKlKVRr4P2afIv4qaocH7NPkX8VNUClKUClKUCoMXeZQMqZyTETEDxmKnpQY/EONNattFlmvw/KsiTzHVSYDAdKzoXIgSPESw+PBsWntjOzH1QGBzBovSCsgqc8hgIOhg1PxDBC7cRluNbuWw3WmUnK8SjBgRlYqp8ZtrUHCsCotKqXWz23uh7kqWa4z5rucRAzN1QAI0iBRGpYvB1DKdDPYjYwQQdiDIjyqQiosNYCLlBJ1JJO5JMkn4knapaKzFtYfD5bNu3btc1/VtqqSYksQsdhE+MCpUe1auC0oVM6kgAKoJBAP1Mj+PlXjFYFmNwDLluxmYzmSFC9IjXaRqIJJ1pisCzG4Bly3YzMZzJChekRrtI1EEk60Ro0pXGWQR4jtRVJb9u87W+lwkSDlYEny8oj60wt61dDW4VsjEFTlbQbECTp2+INebOCYZc7KFtoVUoCpIIAk+6IGw7we1cweGcG3mywlshcognYdXhpHSO/wAKIu37COpR1VlIgqwBBHmDpT0dMuTIuQADLAywNhG0VJSiuKoAgCANgK7SlBBi10GkgMCwGsj4d4MGPKs+7YN3KM4fK0sQMoZRqEYif3QdOywdzOvSgxOPCbaZ7d2FvWiRZUXQwzhSrLGbIQTmOUQJM6Vp3gHGUEb6x2HcGPHarFKCnj1Y2yMrdo5ZAOhEbxp/tNSO3TCgZhEKdI+JgwKsUoKl7B8xSt1pVgQUWVBBEEE7n7gHwqXCYVLSLbtoqIoAVVEAACAAPhU1KBSlKBSlKBSlKDCpSlUa+D9mnyL+KmqHB+zT5F/FTVApSlApSlArjzBjeNJ8fOu0oMbB23DSgcObZ5pugwXA6fjBn1OmJ8q+M/8AG/DOJ2sXdbFcwWmVjd5jhg94lYa2AYmA2qgCIHhH6ZSkTMcfPnu7xyrGcajet/OK6fzzBSlKOClKUClKUGXxW6STbNxbShFfM0jNDagEMOkQM0dnG3ePE4ksUJYWctsXIedSwIKkSJC9/Mrt31yoO4oVB3G21Ep4w9wsqsQVJUEg7gkTB+FSUpRSlKUClKUClKUClKUClKUClKUClKUClKUGFSlKo//Z;" parent="1" vertex="1">
          <mxGeometry x="1322.75" y="952.78" width="104.5" height="62.91" as="geometry" />
        </mxCell>
        <mxCell id="AzmfuMKhb9_MXkvoqs_1-39" value="" style="shape=image;verticalLabelPosition=bottom;labelBackgroundColor=default;verticalAlign=top;aspect=fixed;imageAspect=0;image=https://c.mql5.com/31/504/telegram-alerts-logo-200x200-3992.png;" parent="1" vertex="1">
          <mxGeometry x="1229" y="968.3000000000002" width="60" height="60" as="geometry" />
        </mxCell>
        <mxCell id="AzmfuMKhb9_MXkvoqs_1-40" value="" style="shape=flexArrow;endArrow=classic;html=1;rounded=0;exitX=0.986;exitY=0.467;exitDx=0;exitDy=0;exitPerimeter=0;fillColor=#FFB163;" parent="1" source="AzmfuMKhb9_MXkvoqs_1-1" edge="1">
          <mxGeometry width="50" height="50" relative="1" as="geometry">
            <mxPoint x="270" y="942.609010989011" as="sourcePoint" />
            <mxPoint x="516" y="935" as="targetPoint" />
          </mxGeometry>
        </mxCell>
        <mxCell id="AzmfuMKhb9_MXkvoqs_1-41" value="" style="shape=flexArrow;endArrow=classic;html=1;rounded=0;exitX=0.986;exitY=0.467;exitDx=0;exitDy=0;exitPerimeter=0;fillColor=#FFB163;" parent="1" edge="1">
          <mxGeometry width="50" height="50" relative="1" as="geometry">
            <mxPoint x="270" y="1033.0900000000001" as="sourcePoint" />
            <mxPoint x="523" y="1033" as="targetPoint" />
          </mxGeometry>
        </mxCell>
        <mxCell id="AzmfuMKhb9_MXkvoqs_1-42" value="" style="shape=flexArrow;endArrow=classic;html=1;rounded=0;exitX=1.012;exitY=0.274;exitDx=0;exitDy=0;exitPerimeter=0;entryX=-0.003;entryY=0.277;entryDx=0;entryDy=0;entryPerimeter=0;fillColor=#FF9442;" parent="1" edge="1">
          <mxGeometry width="50" height="50" relative="1" as="geometry">
            <mxPoint x="669.8" y="963.87934" as="sourcePoint" />
            <mxPoint x="849.4299999999998" y="962.4370700000002" as="targetPoint" />
          </mxGeometry>
        </mxCell>
        <mxCell id="AzmfuMKhb9_MXkvoqs_1-47" value="" style="shape=image;verticalLabelPosition=bottom;labelBackgroundColor=default;verticalAlign=top;aspect=fixed;imageAspect=0;image=https://bkhost.vn/wp-content/uploads/2022/06/spark-1.jpg;" parent="1" vertex="1">
          <mxGeometry x="747" y="920" width="70" height="32.78" as="geometry" />
        </mxCell>
        <mxCell id="AzmfuMKhb9_MXkvoqs_1-48" value="" style="shape=flexArrow;endArrow=classic;html=1;rounded=0;exitX=1.002;exitY=0.472;exitDx=0;exitDy=0;exitPerimeter=0;entryX=0.088;entryY=0.485;entryDx=0;entryDy=0;entryPerimeter=0;fillColor=#FFAF47;" parent="1" source="AzmfuMKhb9_MXkvoqs_1-25" target="AzmfuMKhb9_MXkvoqs_1-31" edge="1">
          <mxGeometry width="50" height="50" relative="1" as="geometry">
            <mxPoint x="1090" y="980" as="sourcePoint" />
            <mxPoint x="1140" y="930" as="targetPoint" />
          </mxGeometry>
        </mxCell>
        <mxCell id="AzmfuMKhb9_MXkvoqs_1-49" value="" style="endArrow=classic;html=1;rounded=0;" parent="1" edge="1">
          <mxGeometry width="50" height="50" relative="1" as="geometry">
            <mxPoint x="150" y="1160" as="sourcePoint" />
            <mxPoint x="1080" y="1160" as="targetPoint" />
          </mxGeometry>
        </mxCell>
        <mxCell id="AzmfuMKhb9_MXkvoqs_1-50" value="" style="shape=image;verticalLabelPosition=bottom;labelBackgroundColor=default;verticalAlign=top;aspect=fixed;imageAspect=0;image=data:image/png,iVBORw0KGgoAAAANSUhEUgAAAWkAAACLCAMAAACUXphBAAABv1BMVEX///8Ax9QArUbkOSEBfO5RUE8R4e4E1ln/dVcMtv9OTUxKSUhIR0ZFREP4+PhCQUCIiIdhYF+rq6qSkpHf3t5sa2p0c3O/v7+zs7MAcu319fVWVVQAytgAu/8AeO7Y2Njn5+cAs/8AqTrjJQD/clJcW1oAqDTNzc0AdvUE2k7jMRSYmJc8OzmioaGxsbD/b00InfeBgH/sLgAGlPUL1uMBu0zm8v31wLv41NDnVEH74+DlPyjsfXH+9vVX1d/pY1N12+Pvk4m87fHyqaHvUzmU4uman5mq6e72d1lsrq+cxfcP2tkExHwDzVVeovJ06/S51vlgxYJGvW/O4/vo9+7F6dFPmvLpZ1nsgXXyrab2xsH52dX5pJbui4D/nIjb9vj/j3iecox7h6+JgKSxY3LWQjI7peHQRz2xlYqjbIF7qai9V1zIi3rvel5Jw/8+u8Jkk8PXhXB51P8EifIKqft9x/u4k4aUUlWNQDajPzSNo584cY5kTUkUcNRNQjUHmqQvho0HjslNNzUBi9gDwYQWmkYDuZEEzWsDrqYN08YCmsQDo7Z6sfQLzLF/0Jx25ZmU6rGv78Xb+Oa45MiT1qpBpVQ/AAAS/ElEQVR4nO2djX/TxhnHFQeF5PTmdyc2sUUSxyGxk7phAQKU0tKVdbAVFlpg67q+rHvtuhW6963r2vVtHesCf/DuTdbd6c4+yXZsKn6f9uPIki3pq0e/e+65kzGMJzoq3T137tylS6++euHC7dcuX/7RnTNn7p7d37948WiPwn3mhaPd4QR0YXWT1SrR5uz5c6/evnznzNn9IzmKEzMz7pHsaILa39yclSvgPnvptefv7o8ThAtBf/NJ90EdIkdRfu72nbNj8hQEOgWkjf3ZQah7vDfPvXZm9LSfQaBnRv61U6j981qoA9xXLo82tgnoVJA2LuqjxrhXNy/cHRlsCjodpI2LV2KhxrBv/3Akuw5Ap4S0cfFcTNQI9pU7w++4B/rE8N/1eCgB6tnZ1dnnh8wYeqDTQzoZ6tnVzaHiOgSdItKGcSkJ6tnVK2cT75EBnSrSCVHPrt5OmIewoGeeGe25TLkurSZCvXk+URry7Ex6SRuvJkM9u3om/r540GkjbVxIivr5uHsSQKeOdHLUl+PtRwQ98+xYTmeadTSoI6BTSNq4nRT1j/T3EQU9880fc4nqtbGjloBOJWnjckLUsz/W+/4XJKBnXhzvOU2pkqLe0UItBT3z3LhPajqVEPUVHdRy0GklbTyfDPX8YNQK0DOvH8VpTaOSod6Z3/lJ/+9VgU4v6WSor8wPQP2iCnQahsZVupMA9fn5/qjVoNVF00o2W0ly/C1gFpN8bgI6kwD1GkatqqKqQatJVx3L8qoJDn/b8RJdoUkoAeodSHp+7V056j6g1QWmRcc0ncUER79oO48N6QSor8xj1FdlqJ/rA1pNugRME+QSHPxjRdq4Gxc1IS2N6r6glZ3xomcVCpbHOq5bbPjhUpVbMvxGkVoNIe0r1k6dzsZETUlLoro/aGVnfMvyGg3P2iJLix7wC7bneU0arsWyA5cAXW1sm3DJKbXwtrbT2gZw2Qy8p5VDa8tT2k7GRB2Qnl+b51EPAK3sIgLQNIwmMEkS2LFBzYZsLdDG+Fpty7FMx3LKeHXZA3ClDdodA5E2mw7ZtkM+3LY8EzhWuzUeVMMqHuoeaSGqB4FWdVwqjp03jLztETp52wTNSrFRcEzHhz5iAqviun4Z4DQj74FaxffzjtluYNJ42y3HxObTaINcw3UrNrCm1EF+GGfEPCTNRfVA0KqOSxkgor4DungRkcaYtiwbBqrvkUSu6lloPQAOXrntWFlCGi92bKtgoKbVxovw4nXGhGpY7cdAzZCGqIPnCQaDVszKg4ixL8Cg9dFr3kYhTlaU4ItLL5CFlmDjmSWLTYBJW4Ro1UG5S9UJ1yZJZY5Eg+eyS0nPr60R1K8PBq3ouORppkZMhLERZN341W0tbnVzAJFuOfY289kwyzNBDZoHbFaLDagiDO6p7frro+ZIU9QaoFWjiAFPCKuJXiBpmjmUgAVxVbMoEYHpBSJdcbgEOiRdQ6RbjmnhbT0AEvU5j0ZoLvvm008P5s2Thj3zfS3QinS64Zm1XBMqVzM92MiJpH1gO7VsvlIEGqQ9s5mjKo0V1nC6OLv5xptvvb05CPaOQHp+rXFCh7Q8yctapkVlYpcN3QPTK1s2yZVt6h7ExA0f9U8E0tA9prUh5OW/swy18OZPn+5Lek0kPb/zng5paZIHm7JalqqGc7O8TfswuKmsBilJw0OkfY8uuu12OUK6StpQ9LX+1No01N7yAtbywlt9wzoCen7t2zpBLd3pIpOPdTA3mOXZ2D66lrMdwith94BEHWQxxpZtb0VIw4+QlLDVbnfHB2pY7S2fXKBafudnq0rQ5yWkf65BWp56lGhuh+TjsEX5tLVVWSxZAOXKZcvqthqVnI1bRKPSNq1Oq9K18edE0sU2sPPFBuxmTmsnEcoNQSO9rXQQsUHUjelnZXsttu1yuFSy2kVIGpQ8x3EA6VJXaw7OJ3KmhVPkrbZlOw78H63c9oL6NLAAeql4Fuqr216SGuzRSAC9sPyGCnWkQYQ+/R0N0tL6UrFUYoKvVSoVce5RgflwLUtSELfTtK1cxyiUiM20ujXbam756O8G+gBWtlTAr34WrS34Y8I0vETQEPVbCtTRBnH+6mDO+sO1JMtz2RbNFZo3cTnO2gkrChqiflOOeqQNokRhPv1NlAS0KqolNq0V0tpzp7/RpH8jAw1R/0KCOmrTO7/UCWnt2Y8dr90Y58lOUgrQEPWvonl11Dt+rdVD1J5V0+hmp7dkMZyUoKF+KqKOZtPv6nBOzYPM/dQP9PI7on9EbHrtPa2QTt0jLlH1Ay1JQMQcb0cPdEqnTrPqDxqifpvzD9E8tPosSOmd/Eg1CDRUP/PQBp1689AAvfzbp5XmoenRT8xDBzTvH5x5rL2rDXpS5lHFo4oNkjWivybUUX+fgl7GAwBKvbMq7bbs/G5GG/REzKOVbdp0VBGhLrc9rz2ZMS8Iennh5P2ndnfvQe3uPnX/JBoGiAZ12CtnQevUpAON4AGXDh4d1J/v2Mh5FjCJ8Pikg/+aRFC/v7Bwf/dYvV4/RoX+vAd5R2gv/2xTbA/Xruq2hUhav+tR7RSQtuVr/TZA8nTPruIFmAPSNvrLmQDp909CzMeiQrifus/B7jWKvfZw59f6zjGjWfMoOXjYti0fc/U9zEx3FkexbTJqT5L0+7syzCHt3fssalL/uJIooGf0euJFj2IBUhgxSedIRDu2WYMveFhnQqQ/qPcBTWizsEmnnLSHazu/jxXQmiG9ZVHS8rnn8Ui38NbArDC1qsmQ/mBpAGcK+6mTy2FQn6cph35uR6Vzdq4Z+Cooy9YHPq1HKosvm+Wz702E9FdaoLGN3LtPg3pzE4X0zru/PBEXtFZIVwLzgO2XL9ugUypDaeYeTXTZgjk4VJMg/ZIuaBrYMBlZ/sMf/wQ5X/1zTOOY0f1BsTIg9zsiNPQ8pCrO6NBcYUYTIP1yHNCY9e7CXxzb/uvVb8fnrJlLExu28ggHmQg5jKip81SPnvQPYoJGrP/2d5h/eR8m4Kz5OzUEcdnAUe0NOysG5zHiDOojJ+3eiw362DFM2vlHAtKaP0aIjRVmHTgDCaabJ9Z0kP7eoPROEtIbH9m2Zf9Ta56jIL3SUoOYh0uzanvIgcSpIB3fOyDna6cytuN8ODd3Oi5ozYIHzsrwFNMSDu4h53rFI+0WW4vb25WWP9xORcX2jo2PPzl1/PjxzL8yc0inYzmIZlm6avWqE+jBZunztn65VCp1q/wysZlGPosW0EOI2RIWyc1LnICUdHWxbHsObO8dzzO7fAPRQB/Lix/Iyt4MDyZQrAQPcb73KeJ8/Homs/LJXFzWuvV/Bm8V24dkbk3BQR2X8BSzaLkN8+tK07Mt1Kuxu0aL9G9oJwhwMmWk85bDVKKs3tOmzC6EySdbnuzNyJZuPM71+uenMOjj38pA1N+dm4sFW3ughbWM0EgE0hbfGcHbwTa02yvagS560KW/eNJ+U9weeN1wCxwA4lMGODsSj4806Gzr8lKs5nDjo88IZxTSYVBrwj6hPWuJNIP0QHHJApgRP5WStivdkFVs0kU7CH4Ltvj0b7vU28SX2D05VjxZO5SP70muihAvoD+lnElIZzLr352b04V94rT+j+Ph1A4Ek/hJfERSailpULJCm3C6RrHtINkUK6cI6Sp1FNsrbeU7hZxHalxWOC6DK4J8V7NDNuLtbRvtkGvG47j0xkfXe6CPY9CZlWtzgk4raJ84PRfjVwjxCfe6Kx07EiBK0uRWdpq4JoJaxEYFKY/XNSucIi0iaSOBtU3f8wv0avSsoRMhGJRj+YpBOXJFYiQeG5+HnGlIw6D+QkSNafO4T5w+Dd+NAbqC7z0zWPRlRQsVafhBuyNuqpflbeP9gBzz6Rb5zl7ThtN8wD4xE1TRuS+v2uI7+rl0/dg1BjQNaSQJaYY4Zoz1/X5oBeGIYIKkLCnEKUmDmm9EpEWa3BM1rpNE69q9G6qG7xnmPshTY+IKjjhUuCjX7h4ufXydBX29B3rl0z6oGcUBTWKYOXIS4zVhMwVpvgZNpUN6kexWTNdszoXxTtkyDHYcMRLwobDOrZ3ibXzJcg7Ng8v0RgWaFpeY6QGulIGcNPcUeU86pPGdE2kOsBGE8Ylj3Cr0VpNspAv4AyZ+z3yLbrV04988aMY8MplIozgs6F5xKVRBVmaSk5b/jIcGaYI0OpJWsLjrzjchOMmAzu5xN2FDuBza5rHxoQD6Okt6/T8jBk2KS9z4IK038RAVWZ70OzVIN9gcnhHJyHv77gLOGJB5wIBHwRHeTThDYS1G0zwioFnz0PGPeKBpn5AP4FwkzBWkuUgKpUGaNAbRMQfaahTZzXp7xaUCuA6xDS9yTmw29cwjYh28eQzIP+KDrspMeVu0bkNFOtprR9IgrcjaDRdwx4MPr3ckqBVFVwd/f5CHkg4imwp+pWMe9Y8ioK8LoLlO+bCgaXFJiK0qnwFgjZg03y9lVOO7qGW2ooEWcB0E2Udwz+Gw525AnW5L/Z7IWTSPAVYdFzRJmyLJczdaxhkHadngjtBAk442WcQBgMMdfTq4IbpiB3FPxzw2rkVCOmIeiq5iMtC0uOQLb9MeBPvWiEkXVDYvtBHYG+gVQdFL8nzcnpKRIWw3nNO9rGEeS1GTjphHv1YxNmjlTYx7JdzI7YRIk2Uygw1FL91jrWcfOCi4m1LLpq9rmAeWFHV80DTpz5VFNU3xCoyFtMQ9RNKdnmXgkSHaVmL76AZ/8ZOBNGx6KZLgKUlLUWvSZURnLoGI8Nucq0zIp2m/BO0Hp9qAeRd3AlB0c6WDPY2Qrn8WBS2xaRVqXbyMyszQkkTsTTnqLE9hW27Et8wgOUJ77PkNKn6grYqeeBgadbz6x5KQltk0kdgsauMN5XtywoFYWCMmLUvZkWiCyeT3hcAeHHYFehfdEnlb2FxnXKv+pb55ZCLJnjZeRh1bYR6BfzCnMGLSpNcdnavdiCRDpMlbxK+hTZDaUzCcwH6DRtGjLsk8+pDOrH8yJGjiiaBZkgmTZpKDEZP2FWPw0ZmBLi36ceZB/NlrVZkkkEqjQZS6hxo0TPYy/xkKNMmaFbPw8kKVc8SkaZE/8nlSxODQkW5UtQa4Y8X2sYVvDW7Q09XJ8TY+1em3cGFNWH/xQHrCg0TKcYqZpSTowiRg1KQLpOoq2EdL2CsS7m5bpJzqcluCHL0KzNY6A1v1e3v/HVheisT1euZaZn09CWpSXFLOli7zna9RkybPHAl9F7cGovZNGkkx1t3ehG++TqVRyKsf2zMMEbU69RCA31Dw6qNF+dBsIOotwepRk6YZpsOVXMpW9L2g1RONLhgyFgbPB6ceGHQEtS7pzHp81Dnp+FIokxvJHTlpOsztZMOZNHT2iDiEuR0M0zrsu60gReWfFtFIPfbIljxqbdLxo7rYrz1EIjWR4LRHTtrIE1SWVWj51WqxEsw7E0cwe2k/31C6lL+wn92BIb0XbPq1fFh85KjJY3FAvQF/KUZP2sjSuWWW4znwP+oRkn/1qEmnT/JrusQ+hIZGN6KRvpbMqdFCfVNNLSrS7VWgIiJD/rTHPAbSRsGLVAOA7J+Xoj0sYWSzQi4Un5O7gxrEPXZrBnUc0vFQt1TTd8VToY8gxh9HFNJH2RP6FeAAnnNOdkANkqcIVRKak/CuPmAYoL7Hf0eIOoZ7xERdbHueN+C3i9G/iePRlHcRbx+6eh4vy59PrKJ/aqctFOpK6FcnxCnw1XyNzr4GAJpISfG8YxftLBIVW5JD6J9O138gfvP/TiUiHQu1j37ZpP8mbvgzKPDSwL99ZqW4zKoq+W5X8Usqxe1sqVlr5sqFiurryM6iU0v86CH0HXCJgg5RxyQNUU/zz7cegfql0zLQPdRxSUPUB0d9clOlPkNbctA91HFJZ1YyqY5qdcdFBdowHp5KRBqiTnNUv6IivfSy+kMYdaw07wlqZXW6H2jDuHUqgVFjpRd1ItAEdSLSqUWtmGY6CLRhHCayjxSjlk9BGAwao05GeuVw/Kc1hZKS1gGNUCcM6nSilnXG9UAj1MlIZzJpRC0hvfSS7ocPEwZ1Zv3WOM9pOhUdRdQHbRgHMEN+glpPEdJxQA+BeiV1qMUCUzzQT6JaXwLpuKBhQn4zKeqH4zif6RVPeumrBF9xY/0Jag1xRdNEoA3j0UqysE4XapZ0QtDQrG8mC+tUoWZIJwYN9TBZw7j+aHRnMu0KBwKGAQ31KBHrFKHukR4SNLSQRKzTgzogPTRopIc312PDTg1qOrg1EtBQhw8ycWEnmmD9GIqQXvre6L7xFoIdh3ZKUL8yatBIB49urMSgnQ7Uu2MAjXX4vxsZXdwJ5rI/foKk6+MAjXVw69GDm5j3AOBpQH3vWP2VMe/i4PDhoxs3M+tQKysK6EkehnnM9MrSuEH3dHB46+GjBw9u3LyJ0K6sIPIUPsR/VEcxMbmaY4aj3u3BwcHh4a1bD5EeQaVxZPGJxqH/AyFY20ylDTbUAAAAAElFTkSuQmCC;" parent="1" vertex="1">
          <mxGeometry x="527.88" y="1143" width="103.88" height="40" as="geometry" />
        </mxCell>
        <mxCell id="vy-iR5Id63kfSbapCPbl-2" value="&lt;b&gt;ETL&lt;/b&gt;" style="text;html=1;align=center;verticalAlign=middle;whiteSpace=wrap;rounded=0;" parent="1" vertex="1">
          <mxGeometry x="668" y="930.09" width="60" height="30" as="geometry" />
        </mxCell>
      </root>
    </mxGraphModel>
  </diagram>
  <diagram id="KNt4_B-fDXIDFiYMn89Y" name="Trang-2">
    <mxGraphModel dx="1290" dy="530" grid="1" gridSize="10" guides="1" tooltips="1" connect="1" arrows="1" fold="1" page="1" pageScale="1" pageWidth="3300" pageHeight="4681" math="0" shadow="0">
      <root>
        <mxCell id="0" />
        <mxCell id="1" parent="0" />
        <mxCell id="h62G02Ux45p99AeBogX0-16" value="Lichsugia" style="swimlane;childLayout=stackLayout;horizontal=1;startSize=50;horizontalStack=0;rounded=1;fontSize=14;fontStyle=0;strokeWidth=2;resizeParent=0;resizeLast=1;shadow=0;dashed=0;align=center;arcSize=4;whiteSpace=wrap;html=1;" parent="1" vertex="1">
          <mxGeometry x="335" y="320" width="170" height="240" as="geometry" />
        </mxCell>
        <mxCell id="h62G02Ux45p99AeBogX0-17" value="&lt;div&gt;Ngay varchar,&lt;/div&gt;&lt;div&gt;GiaDieuChinh varchar,&lt;/div&gt;&lt;div&gt;GiaDongCua varchar,&lt;/div&gt;&lt;div&gt;ThayDoi varchar,&lt;/div&gt;&lt;div&gt;KhoiLuongKhopLenh varchar,&lt;/div&gt;&lt;div&gt;GiaTriKhopLenh varchar,&lt;/div&gt;&lt;div&gt;KLThoaThuan varchar,&lt;/div&gt;&lt;div&gt;GtThoaThuan varchar,&lt;/div&gt;&lt;div&gt;GiaMoCua varchar,&lt;/div&gt;&lt;div&gt;GiaCaoNhat varchar,&lt;/div&gt;&lt;div&gt;GiaThapNhat varchar,&lt;/div&gt;&lt;div&gt;Symbol varchar&lt;/div&gt;&lt;div&gt;&lt;br&gt;&lt;/div&gt;" style="align=left;strokeColor=none;fillColor=none;spacingLeft=4;fontSize=12;verticalAlign=top;resizable=0;rotatable=0;part=1;html=1;" parent="h62G02Ux45p99AeBogX0-16" vertex="1">
          <mxGeometry y="50" width="170" height="190" as="geometry" />
        </mxCell>
        <mxCell id="h62G02Ux45p99AeBogX0-18" value="Machungkhoan" style="swimlane;childLayout=stackLayout;horizontal=1;startSize=50;horizontalStack=0;rounded=1;fontSize=14;fontStyle=0;strokeWidth=2;resizeParent=0;resizeLast=1;shadow=0;dashed=0;align=center;arcSize=4;whiteSpace=wrap;html=1;" parent="1" vertex="1">
          <mxGeometry x="340" y="640" width="150" height="170" as="geometry" />
        </mxCell>
        <mxCell id="h62G02Ux45p99AeBogX0-19" value="&lt;div&gt;&lt;div&gt;Symbol varchar,&lt;/div&gt;&lt;div&gt;TradeCenterId varchar,&lt;/div&gt;&lt;div&gt;CategoryId varchar,&lt;/div&gt;&lt;div&gt;CompanyName varchar,&lt;/div&gt;&lt;div&gt;CategoryName varchar,&lt;/div&gt;&lt;div&gt;Price varchar,&lt;/div&gt;&lt;div&gt;TotalCompany varchar&lt;/div&gt;&lt;/div&gt;" style="align=left;strokeColor=none;fillColor=none;spacingLeft=4;fontSize=12;verticalAlign=top;resizable=0;rotatable=0;part=1;html=1;" parent="h62G02Ux45p99AeBogX0-18" vertex="1">
          <mxGeometry y="50" width="150" height="120" as="geometry" />
        </mxCell>
        <mxCell id="h62G02Ux45p99AeBogX0-20" value="Machungkhoan" style="swimlane;childLayout=stackLayout;horizontal=1;startSize=50;horizontalStack=0;rounded=1;fontSize=14;fontStyle=0;strokeWidth=2;resizeParent=0;resizeLast=1;shadow=0;dashed=0;align=center;arcSize=4;whiteSpace=wrap;html=1;" parent="1" vertex="1">
          <mxGeometry x="350" y="880" width="140" height="190" as="geometry" />
        </mxCell>
        <mxCell id="h62G02Ux45p99AeBogX0-21" value="&lt;div&gt;pe varchar,&lt;/div&gt;&lt;div&gt;pb varchar,&lt;/div&gt;&lt;div&gt;industryPe varchar,&lt;/div&gt;&lt;div&gt;industryPb varchar,&lt;/div&gt;&lt;div&gt;indexPe varchar,&lt;/div&gt;&lt;div&gt;indexPb varchar,&lt;/div&gt;&lt;div&gt;from_date varchar,&lt;/div&gt;&lt;div&gt;to_date varchar,&lt;/div&gt;&lt;div&gt;Symbol varchar&lt;/div&gt;" style="align=left;strokeColor=none;fillColor=none;spacingLeft=4;fontSize=12;verticalAlign=top;resizable=0;rotatable=0;part=1;html=1;" parent="h62G02Ux45p99AeBogX0-20" vertex="1">
          <mxGeometry y="50" width="140" height="140" as="geometry" />
        </mxCell>
        <mxCell id="h62G02Ux45p99AeBogX0-23" value="dim_stock" style="swimlane;childLayout=stackLayout;horizontal=1;startSize=50;horizontalStack=0;rounded=1;fontSize=14;fontStyle=0;strokeWidth=2;resizeParent=0;resizeLast=1;shadow=0;dashed=0;align=center;arcSize=4;whiteSpace=wrap;html=1;" parent="1" vertex="1">
          <mxGeometry x="970" y="310" width="170" height="150" as="geometry" />
        </mxCell>
        <mxCell id="h62G02Ux45p99AeBogX0-24" value="&lt;div&gt;&lt;div&gt;StockID (Primary Key)&lt;/div&gt;&lt;div&gt;StockSymbol&lt;/div&gt;&lt;div&gt;CompanyName&lt;/div&gt;&lt;div&gt;CategoryID&lt;/div&gt;&lt;div&gt;IndustryID&lt;/div&gt;&lt;div&gt;TradeCenterID&lt;/div&gt;&lt;/div&gt;" style="align=left;strokeColor=none;fillColor=none;spacingLeft=4;fontSize=12;verticalAlign=top;resizable=0;rotatable=0;part=1;html=1;" parent="h62G02Ux45p99AeBogX0-23" vertex="1">
          <mxGeometry y="50" width="170" height="100" as="geometry" />
        </mxCell>
        <mxCell id="h62G02Ux45p99AeBogX0-25" value="dim_date" style="swimlane;childLayout=stackLayout;horizontal=1;startSize=50;horizontalStack=0;rounded=1;fontSize=14;fontStyle=0;strokeWidth=2;resizeParent=0;resizeLast=1;shadow=0;dashed=0;align=center;arcSize=4;whiteSpace=wrap;html=1;" parent="1" vertex="1">
          <mxGeometry x="975" y="660" width="160" height="170" as="geometry" />
        </mxCell>
        <mxCell id="h62G02Ux45p99AeBogX0-26" value="&lt;div&gt;DateID (Primary Key)&lt;/div&gt;&lt;div&gt;Date&lt;/div&gt;&lt;div&gt;Year&lt;/div&gt;&lt;div&gt;Quarter&lt;span style=&quot;white-space-collapse: preserve;&quot;&gt;&#x9;&lt;/span&gt;&lt;/div&gt;&lt;div&gt;Month&lt;/div&gt;&lt;div&gt;Day&lt;/div&gt;&lt;div&gt;Weekday&lt;/div&gt;" style="align=left;strokeColor=none;fillColor=none;spacingLeft=4;fontSize=12;verticalAlign=top;resizable=0;rotatable=0;part=1;html=1;" parent="h62G02Ux45p99AeBogX0-25" vertex="1">
          <mxGeometry y="50" width="160" height="120" as="geometry" />
        </mxCell>
        <mxCell id="h62G02Ux45p99AeBogX0-27" value="dim_indicator" style="swimlane;childLayout=stackLayout;horizontal=1;startSize=50;horizontalStack=0;rounded=1;fontSize=14;fontStyle=0;strokeWidth=2;resizeParent=0;resizeLast=1;shadow=0;dashed=0;align=center;arcSize=4;whiteSpace=wrap;html=1;" parent="1" vertex="1">
          <mxGeometry x="1245" y="200" width="160" height="110" as="geometry" />
        </mxCell>
        <mxCell id="h62G02Ux45p99AeBogX0-28" value="&lt;div&gt;IndicatorID (Primary Key)&lt;/div&gt;&lt;div&gt;IndicatorName&lt;/div&gt;&lt;div&gt;Description&lt;/div&gt;" style="align=left;strokeColor=none;fillColor=none;spacingLeft=4;fontSize=12;verticalAlign=top;resizable=0;rotatable=0;part=1;html=1;" parent="h62G02Ux45p99AeBogX0-27" vertex="1">
          <mxGeometry y="50" width="160" height="60" as="geometry" />
        </mxCell>
        <mxCell id="h62G02Ux45p99AeBogX0-29" value="dim_tradecenter" style="swimlane;childLayout=stackLayout;horizontal=1;startSize=50;horizontalStack=0;rounded=1;fontSize=14;fontStyle=0;strokeWidth=2;resizeParent=0;resizeLast=1;shadow=0;dashed=0;align=center;arcSize=4;whiteSpace=wrap;html=1;" parent="1" vertex="1">
          <mxGeometry x="975" y="500" width="160" height="100" as="geometry" />
        </mxCell>
        <mxCell id="h62G02Ux45p99AeBogX0-30" value="&lt;div&gt;TradeCenterId&lt;/div&gt;&lt;div&gt;TradeCenterName&lt;/div&gt;" style="align=left;strokeColor=none;fillColor=none;spacingLeft=4;fontSize=12;verticalAlign=top;resizable=0;rotatable=0;part=1;html=1;" parent="h62G02Ux45p99AeBogX0-29" vertex="1">
          <mxGeometry y="50" width="160" height="50" as="geometry" />
        </mxCell>
        <mxCell id="h62G02Ux45p99AeBogX0-32" value="fact_stock_indicator" style="swimlane;childLayout=stackLayout;horizontal=1;startSize=50;horizontalStack=0;rounded=1;fontSize=14;fontStyle=0;strokeWidth=2;resizeParent=0;resizeLast=1;shadow=0;dashed=0;align=center;arcSize=4;whiteSpace=wrap;html=1;" parent="1" vertex="1">
          <mxGeometry x="1540" y="400" width="170" height="140" as="geometry" />
        </mxCell>
        <mxCell id="h62G02Ux45p99AeBogX0-33" value="&lt;div&gt;stock_indicatorID&lt;/div&gt;&lt;div&gt;StockID&lt;/div&gt;&lt;div&gt;DateID&lt;/div&gt;&lt;div&gt;IndicatorID&lt;/div&gt;&lt;div&gt;IndicatorValue&lt;/div&gt;" style="align=left;strokeColor=none;fillColor=none;spacingLeft=4;fontSize=12;verticalAlign=top;resizable=0;rotatable=0;part=1;html=1;" parent="h62G02Ux45p99AeBogX0-32" vertex="1">
          <mxGeometry y="50" width="170" height="90" as="geometry" />
        </mxCell>
        <mxCell id="h62G02Ux45p99AeBogX0-34" value="fact_price_history" style="swimlane;childLayout=stackLayout;horizontal=1;startSize=50;horizontalStack=0;rounded=1;fontSize=14;fontStyle=0;strokeWidth=2;resizeParent=0;resizeLast=1;shadow=0;dashed=0;align=center;arcSize=4;whiteSpace=wrap;html=1;" parent="1" vertex="1">
          <mxGeometry x="1260" y="870" width="170" height="180" as="geometry" />
        </mxCell>
        <mxCell id="h62G02Ux45p99AeBogX0-35" value="&lt;div&gt;PriceHistoryID&lt;/div&gt;&lt;div&gt;StockID&lt;/div&gt;&lt;div&gt;DateID&lt;/div&gt;&lt;div&gt;OpenPrice&lt;/div&gt;&lt;div&gt;ClosePrice&lt;/div&gt;&lt;div&gt;HighPrice&lt;/div&gt;&lt;div&gt;LowPrice&lt;/div&gt;&lt;div&gt;Volume&lt;/div&gt;" style="align=left;strokeColor=none;fillColor=none;spacingLeft=4;fontSize=12;verticalAlign=top;resizable=0;rotatable=0;part=1;html=1;" parent="h62G02Ux45p99AeBogX0-34" vertex="1">
          <mxGeometry y="50" width="170" height="130" as="geometry" />
        </mxCell>
        <mxCell id="h62G02Ux45p99AeBogX0-36" value="fact_stock_evaluation" style="swimlane;childLayout=stackLayout;horizontal=1;startSize=50;horizontalStack=0;rounded=1;fontSize=14;fontStyle=0;strokeWidth=2;resizeParent=0;resizeLast=1;shadow=0;dashed=0;align=center;arcSize=4;whiteSpace=wrap;html=1;" parent="1" vertex="1">
          <mxGeometry x="1520" y="680" width="170" height="210" as="geometry" />
        </mxCell>
        <mxCell id="h62G02Ux45p99AeBogX0-37" value="&lt;div&gt;EvaluationID&lt;/div&gt;&lt;div&gt;StockID&lt;/div&gt;&lt;div&gt;FromDateID&lt;/div&gt;&lt;div&gt;ToDateID&lt;/div&gt;&lt;div&gt;PE&lt;/div&gt;&lt;div&gt;PB&lt;/div&gt;&lt;div&gt;IndustryPE&lt;/div&gt;&lt;div&gt;IndustryPB&lt;/div&gt;&lt;div&gt;IndexPE&lt;/div&gt;&lt;div&gt;IndexPB&lt;/div&gt;" style="align=left;strokeColor=none;fillColor=none;spacingLeft=4;fontSize=12;verticalAlign=top;resizable=0;rotatable=0;part=1;html=1;" parent="h62G02Ux45p99AeBogX0-36" vertex="1">
          <mxGeometry y="50" width="170" height="160" as="geometry" />
        </mxCell>
        <mxCell id="h62G02Ux45p99AeBogX0-40" value="" style="edgeStyle=entityRelationEdgeStyle;fontSize=12;html=1;endArrow=ERzeroToMany;endFill=1;rounded=0;exitX=0.996;exitY=0.124;exitDx=0;exitDy=0;exitPerimeter=0;entryX=-0.005;entryY=0.339;entryDx=0;entryDy=0;entryPerimeter=0;" parent="1" source="h62G02Ux45p99AeBogX0-24" target="h62G02Ux45p99AeBogX0-33" edge="1">
          <mxGeometry width="100" height="100" relative="1" as="geometry">
            <mxPoint x="1280" y="560" as="sourcePoint" />
            <mxPoint x="1380" y="460" as="targetPoint" />
          </mxGeometry>
        </mxCell>
        <mxCell id="h62G02Ux45p99AeBogX0-41" value="" style="edgeStyle=entityRelationEdgeStyle;fontSize=12;html=1;endArrow=ERzeroToMany;endFill=1;rounded=0;exitX=1.009;exitY=0.136;exitDx=0;exitDy=0;exitPerimeter=0;entryX=0;entryY=0.5;entryDx=0;entryDy=0;" parent="1" source="h62G02Ux45p99AeBogX0-26" target="h62G02Ux45p99AeBogX0-33" edge="1">
          <mxGeometry width="100" height="100" relative="1" as="geometry">
            <mxPoint x="1230" y="630" as="sourcePoint" />
            <mxPoint x="1460" y="689" as="targetPoint" />
          </mxGeometry>
        </mxCell>
        <mxCell id="h62G02Ux45p99AeBogX0-42" value="" style="edgeStyle=entityRelationEdgeStyle;fontSize=12;html=1;endArrow=ERzeroToMany;endFill=1;rounded=0;exitX=1.022;exitY=0.179;exitDx=0;exitDy=0;exitPerimeter=0;entryX=0.008;entryY=0.337;entryDx=0;entryDy=0;entryPerimeter=0;" parent="1" source="h62G02Ux45p99AeBogX0-26" target="h62G02Ux45p99AeBogX0-35" edge="1">
          <mxGeometry width="100" height="100" relative="1" as="geometry">
            <mxPoint x="1260" y="790" as="sourcePoint" />
            <mxPoint x="1360" y="690" as="targetPoint" />
          </mxGeometry>
        </mxCell>
        <mxCell id="h62G02Ux45p99AeBogX0-47" value="" style="edgeStyle=entityRelationEdgeStyle;fontSize=12;html=1;endArrow=ERzeroToMany;endFill=1;rounded=0;exitX=1.013;exitY=0.182;exitDx=0;exitDy=0;exitPerimeter=0;entryX=-0.001;entryY=0.178;entryDx=0;entryDy=0;entryPerimeter=0;" parent="1" source="h62G02Ux45p99AeBogX0-24" target="h62G02Ux45p99AeBogX0-37" edge="1">
          <mxGeometry width="100" height="100" relative="1" as="geometry">
            <mxPoint x="1209" y="452" as="sourcePoint" />
            <mxPoint x="1439" y="511" as="targetPoint" />
          </mxGeometry>
        </mxCell>
        <mxCell id="h62G02Ux45p99AeBogX0-48" value="" style="edgeStyle=entityRelationEdgeStyle;fontSize=12;html=1;endArrow=ERzeroToMany;endFill=1;rounded=0;exitX=1;exitY=0.25;exitDx=0;exitDy=0;entryX=-0.017;entryY=0.3;entryDx=0;entryDy=0;entryPerimeter=0;" parent="1" source="h62G02Ux45p99AeBogX0-26" target="h62G02Ux45p99AeBogX0-37" edge="1">
          <mxGeometry width="100" height="100" relative="1" as="geometry">
            <mxPoint x="1204" y="681" as="sourcePoint" />
            <mxPoint x="1441" y="774" as="targetPoint" />
          </mxGeometry>
        </mxCell>
        <mxCell id="h62G02Ux45p99AeBogX0-50" value="" style="edgeStyle=entityRelationEdgeStyle;fontSize=12;html=1;endArrow=ERzeroToMany;endFill=1;rounded=0;exitX=1;exitY=0.25;exitDx=0;exitDy=0;entryX=-0.031;entryY=0.686;entryDx=0;entryDy=0;entryPerimeter=0;" parent="1" source="h62G02Ux45p99AeBogX0-28" target="h62G02Ux45p99AeBogX0-33" edge="1">
          <mxGeometry width="100" height="100" relative="1" as="geometry">
            <mxPoint x="1610" y="240" as="sourcePoint" />
            <mxPoint x="1710" y="140" as="targetPoint" />
          </mxGeometry>
        </mxCell>
        <mxCell id="h62G02Ux45p99AeBogX0-56" value="" style="edgeStyle=entityRelationEdgeStyle;fontSize=12;html=1;endArrow=ERoneToMany;rounded=0;exitX=1;exitY=0.25;exitDx=0;exitDy=0;" parent="1" source="h62G02Ux45p99AeBogX0-30" target="h62G02Ux45p99AeBogX0-24" edge="1">
          <mxGeometry width="100" height="100" relative="1" as="geometry">
            <mxPoint x="1150" y="560" as="sourcePoint" />
            <mxPoint x="1250" y="460" as="targetPoint" />
          </mxGeometry>
        </mxCell>
      </root>
    </mxGraphModel>
  </diagram>
</mxfile>
